<svg xmlns="http://www.w3.org/2000/svg" width="1800" height="2500" viewBox="0 0 1800 2500">
  <defs>
    <linearGradient id="bg" x1="0" y1="0" x2="0" y2="1"><stop offset="0%" stop-color="#d9e8f2"/><stop offset="58%" stop-color="#eef6fa"/><stop offset="100%" stop-color="#d7dde2"/></linearGradient>
    <filter id="softShadow" x="-10%" y="-10%" width="120%" height="120%"><feDropShadow dx="0" dy="8" stdDeviation="10" flood-color="#6d7f8a" flood-opacity="0.16"/></filter>
  </defs>
  <rect width="100%" height="100%" fill="url(#bg)"/>
  <circle cx="1450" cy="310" r="500" fill="#ffffff" opacity="0.18"/>
  <circle cx="260" cy="2140" r="620" fill="#ffffff" opacity="0.20"/>
  <text x="900" y="70" text-anchor="middle" font-family="Arial, sans-serif" font-size="48" font-weight="800" fill="#202124">Postleitzahl 90482 — Nürnberg</text>
  <text x="900" y="112" text-anchor="middle" font-family="Arial, sans-serif" font-size="22" fill="#4b5055">Google-Maps-Orte: gelöschte Rezensionen wegen „Diffamierung“</text>
  <text x="900" y="160" text-anchor="middle" font-family="Arial, sans-serif" font-size="18" fill="#6f7377">51 Orte erfasst · 6 mit sichtbarem Banner (11,8%) · 0 in der „Über“-Stufe</text><g><text x="80" y="230" font-family="Arial, sans-serif" font-size="27" font-weight="800" fill="#202124">1. Höchste Lösch-Quote</text><text x="80" y="260" font-family="Arial, sans-serif" font-size="16" fill="#6f7377">Anteil gelöschter Rezensionen</text><rect x="80" y="322" width="470" height="240" fill="#ffffff" opacity="0.96" filter="url(#softShadow)"/><line x1="114.0" y1="322" x2="114.0" y2="542.0" stroke="#dde3e8" stroke-width="1"/><line x1="214.5" y1="322" x2="214.5" y2="542.0" stroke="#dde3e8" stroke-width="1"/><line x1="315.0" y1="322" x2="315.0" y2="542.0" stroke="#dde3e8" stroke-width="1"/><line x1="415.5" y1="322" x2="415.5" y2="542.0" stroke="#dde3e8" stroke-width="1"/><line x1="516.0" y1="322" x2="516.0" y2="542.0" stroke="#dde3e8" stroke-width="1"/><text x="72" y="361.0" text-anchor="end" font-family="Arial, sans-serif" font-size="13" fill="#83888d">1.</text><text x="114" y="342.0" font-family="Arial, sans-serif" font-size="14" fill="#202124">Istanbul Döner Burger Pizza</text><rect x="114" y="346.0" width="402.0" height="18" fill="#c9332c"/><text x="524.0" y="361.0" font-family="Arial, sans-serif" font-size="13" fill="#202124">13,4%  (21–50 von 230)</text><text x="72" y="397.0" text-anchor="end" font-family="Arial, sans-serif" font-size="13" fill="#83888d">2.</text><text x="114" y="378.0" font-family="Arial, sans-serif" font-size="14" fill="#202124">PIZZAPIRATEN</text><rect x="114" y="382.0" width="164.8" height="18" fill="#c9332c"/><text x="286.8" y="397.0" font-family="Arial, sans-serif" font-size="13" fill="#202124">5,5%  (6–10 von 138)</text><text x="72" y="433.0" text-anchor="end" font-family="Arial, sans-serif" font-size="13" fill="#83888d">3.</text><text x="114" y="414.0" font-family="Arial, sans-serif" font-size="14" fill="#202124">FIVE Diner II Ostendstraße 83</text><rect x="114" y="418.0" width="126.6" height="18" fill="#c9332c"/><text x="248.6" y="433.0" font-family="Arial, sans-serif" font-size="13" fill="#202124">4,2%  (11–20 von 353)</text><text x="72" y="469.0" text-anchor="end" font-family="Arial, sans-serif" font-size="13" fill="#83888d">4.</text><text x="114" y="450.0" font-family="Arial, sans-serif" font-size="14" fill="#202124">Pizzeria Da Marcel</text><rect x="114" y="454.0" width="67.4" height="18" fill="#c9332c"/><text x="189.4" y="469.0" font-family="Arial, sans-serif" font-size="13" fill="#202124">2,2%  (2–5 von 153)</text><text x="72" y="505.0" text-anchor="end" font-family="Arial, sans-serif" font-size="13" fill="#83888d">5.</text><text x="114" y="486.0" font-family="Arial, sans-serif" font-size="14" fill="#202124">Gusto Natural Steakrestaurant Nürnberg</text><rect x="114" y="490.0" width="20.7" height="18" fill="#c9332c"/><text x="142.7" y="505.0" font-family="Arial, sans-serif" font-size="13" fill="#202124">0,7%  (2–5 von 503)</text><text x="72" y="541.0" text-anchor="end" font-family="Arial, sans-serif" font-size="13" fill="#83888d">6.</text><text x="114" y="522.0" font-family="Arial, sans-serif" font-size="14" fill="#202124">Osteria BellaVista Mögeldorf</text><rect x="114" y="526.0" width="4.2" height="18" fill="#c9332c"/><text x="126.2" y="541.0" font-family="Arial, sans-serif" font-size="13" fill="#202124">0,1%  (1 von 724)</text><text x="315" y="580.0" text-anchor="middle" font-family="Arial, sans-serif" font-size="13" fill="#6f7377">Lösch-Quote (%) · Top 30</text></g><g><text x="665" y="230" font-family="Arial, sans-serif" font-size="27" font-weight="800" fill="#202124">2. Schlechtestes „echtes“ Rating</text><text x="665" y="260" font-family="Arial, sans-serif" font-size="16" fill="#6f7377">Modell: gelöschte Rezensionen waren 1★</text><rect x="665" y="322" width="470" height="240" fill="#ffffff" opacity="0.96" filter="url(#softShadow)"/><line x1="699.0" y1="322" x2="699.0" y2="542.0" stroke="#dde3e8" stroke-width="1"/><line x1="799.5" y1="322" x2="799.5" y2="542.0" stroke="#dde3e8" stroke-width="1"/><line x1="900.0" y1="322" x2="900.0" y2="542.0" stroke="#dde3e8" stroke-width="1"/><line x1="1000.5" y1="322" x2="1000.5" y2="542.0" stroke="#dde3e8" stroke-width="1"/><line x1="1101.0" y1="322" x2="1101.0" y2="542.0" stroke="#dde3e8" stroke-width="1"/><text x="657" y="361.0" text-anchor="end" font-family="Arial, sans-serif" font-size="13" fill="#83888d">1.</text><text x="699" y="342.0" font-family="Arial, sans-serif" font-size="14" fill="#202124">Osteria BellaVista Mögeldorf</text><rect x="699" y="346.0" width="402.0" height="18" fill="#ef7d16"/><text x="1109.0" y="361.0" font-family="Arial, sans-serif" font-size="13" fill="#202124">4,00★  (vorher 4,0★)</text><text x="657" y="397.0" text-anchor="end" font-family="Arial, sans-serif" font-size="13" fill="#83888d">2.</text><text x="699" y="378.0" font-family="Arial, sans-serif" font-size="14" fill="#202124">Istanbul Döner Burger Pizza</text><rect x="699" y="382.0" width="283.5" height="18" fill="#ef7d16"/><text x="990.5" y="397.0" font-family="Arial, sans-serif" font-size="13" fill="#202124">4,29★  (vorher 4,8★)</text><text x="657" y="433.0" text-anchor="end" font-family="Arial, sans-serif" font-size="13" fill="#83888d">3.</text><text x="699" y="414.0" font-family="Arial, sans-serif" font-size="14" fill="#202124">FIVE Diner II Ostendstraße 83</text><rect x="699" y="418.0" width="182.6" height="18" fill="#ef7d16"/><text x="889.6" y="433.0" font-family="Arial, sans-serif" font-size="13" fill="#202124">4,54★  (vorher 4,7★)</text><text x="657" y="469.0" text-anchor="end" font-family="Arial, sans-serif" font-size="13" fill="#83888d">4.</text><text x="699" y="450.0" font-family="Arial, sans-serif" font-size="14" fill="#202124">PIZZAPIRATEN</text><rect x="699" y="454.0" width="163.4" height="18" fill="#ef7d16"/><text x="870.4" y="469.0" font-family="Arial, sans-serif" font-size="13" fill="#202124">4,59★  (vorher 4,8★)</text><text x="657" y="505.0" text-anchor="end" font-family="Arial, sans-serif" font-size="13" fill="#83888d">5.</text><text x="699" y="486.0" font-family="Arial, sans-serif" font-size="14" fill="#202124">Pizzeria Da Marcel</text><rect x="699" y="490.0" width="153.4" height="18" fill="#ef7d16"/><text x="860.4" y="505.0" font-family="Arial, sans-serif" font-size="13" fill="#202124">4,62★  (vorher 4,7★)</text><text x="657" y="541.0" text-anchor="end" font-family="Arial, sans-serif" font-size="13" fill="#83888d">6.</text><text x="699" y="522.0" font-family="Arial, sans-serif" font-size="14" fill="#202124">Gusto Natural Steakrestaurant Nürnberg</text><rect x="699" y="526.0" width="90.5" height="18" fill="#ef7d16"/><text x="797.5" y="541.0" font-family="Arial, sans-serif" font-size="13" fill="#202124">4,77★  (vorher 4,8★)</text><text x="900" y="580.0" text-anchor="middle" font-family="Arial, sans-serif" font-size="13" fill="#6f7377">Punkte unter 5★</text></g><g><text x="1250" y="230" font-family="Arial, sans-serif" font-size="27" font-weight="800" fill="#202124">3. Beste Orte ohne Löschbanner</text><text x="1250" y="260" font-family="Arial, sans-serif" font-size="16" fill="#6f7377">kein sichtbarer Diffamierungs-Löschbanner — ab 100 Rezensionen</text><rect x="1250" y="322" width="470" height="1104" fill="#ffffff" opacity="0.96" filter="url(#softShadow)"/><line x1="1284.0" y1="322" x2="1284.0" y2="1406.0" stroke="#dde3e8" stroke-width="1"/><line x1="1384.5" y1="322" x2="1384.5" y2="1406.0" stroke="#dde3e8" stroke-width="1"/><line x1="1485.0" y1="322" x2="1485.0" y2="1406.0" stroke="#dde3e8" stroke-width="1"/><line x1="1585.5" y1="322" x2="1585.5" y2="1406.0" stroke="#dde3e8" stroke-width="1"/><line x1="1686.0" y1="322" x2="1686.0" y2="1406.0" stroke="#dde3e8" stroke-width="1"/><text x="1242" y="361.0" text-anchor="end" font-family="Arial, sans-serif" font-size="13" fill="#83888d">1.</text><text x="1284" y="342.0" font-family="Arial, sans-serif" font-size="14" fill="#202124">Konditorei Peter</text><rect x="1284" y="346.0" width="394.0" height="18" fill="#2e7d32"/><text x="1686.0" y="361.0" font-family="Arial, sans-serif" font-size="13" fill="#202124">4,9★  (250)</text><text x="1242" y="397.0" text-anchor="end" font-family="Arial, sans-serif" font-size="13" fill="#83888d">2.</text><text x="1284" y="378.0" font-family="Arial, sans-serif" font-size="14" fill="#202124">Dönerium</text><rect x="1284" y="382.0" width="385.9" height="18" fill="#2e7d32"/><text x="1677.9" y="397.0" font-family="Arial, sans-serif" font-size="13" fill="#202124">4,8★  (317)</text><text x="1242" y="433.0" text-anchor="end" font-family="Arial, sans-serif" font-size="13" fill="#83888d">3.</text><text x="1284" y="414.0" font-family="Arial, sans-serif" font-size="14" fill="#202124">Ristorantino Gismondi</text><rect x="1284" y="418.0" width="385.9" height="18" fill="#2e7d32"/><text x="1677.9" y="433.0" font-family="Arial, sans-serif" font-size="13" fill="#202124">4,8★  (217)</text><text x="1242" y="469.0" text-anchor="end" font-family="Arial, sans-serif" font-size="13" fill="#83888d">4.</text><text x="1284" y="450.0" font-family="Arial, sans-serif" font-size="14" fill="#202124">&#34;Maria´s Taverna&#34; SV Laufamholz</text><rect x="1284" y="454.0" width="385.9" height="18" fill="#2e7d32"/><text x="1677.9" y="469.0" font-family="Arial, sans-serif" font-size="13" fill="#202124">4,8★  (178)</text><text x="1242" y="505.0" text-anchor="end" font-family="Arial, sans-serif" font-size="13" fill="#83888d">5.</text><text x="1284" y="486.0" font-family="Arial, sans-serif" font-size="14" fill="#202124">MYLOS - Satzinger Mühle</text><rect x="1284" y="490.0" width="377.9" height="18" fill="#2e7d32"/><text x="1669.9" y="505.0" font-family="Arial, sans-serif" font-size="13" fill="#202124">4,7★  (1.192)</text><text x="1242" y="541.0" text-anchor="end" font-family="Arial, sans-serif" font-size="13" fill="#83888d">6.</text><text x="1284" y="522.0" font-family="Arial, sans-serif" font-size="14" fill="#202124">Döner House</text><rect x="1284" y="526.0" width="377.9" height="18" fill="#2e7d32"/><text x="1669.9" y="541.0" font-family="Arial, sans-serif" font-size="13" fill="#202124">4,7★  (556)</text><text x="1242" y="577.0" text-anchor="end" font-family="Arial, sans-serif" font-size="13" fill="#83888d">7.</text><text x="1284" y="558.0" font-family="Arial, sans-serif" font-size="14" fill="#202124">Eisdiele Cristallo GmbH</text><rect x="1284" y="562.0" width="369.8" height="18" fill="#2e7d32"/><text x="1661.8" y="577.0" font-family="Arial, sans-serif" font-size="13" fill="#202124">4,6★  (1.010)</text><text x="1242" y="613.0" text-anchor="end" font-family="Arial, sans-serif" font-size="13" fill="#83888d">8.</text><text x="1284" y="594.0" font-family="Arial, sans-serif" font-size="14" fill="#202124">Dolomiddi fränkische Eismanufaktur</text><rect x="1284" y="598.0" width="369.8" height="18" fill="#2e7d32"/><text x="1661.8" y="613.0" font-family="Arial, sans-serif" font-size="13" fill="#202124">4,6★  (461)</text><text x="1242" y="649.0" text-anchor="end" font-family="Arial, sans-serif" font-size="13" fill="#83888d">9.</text><text x="1284" y="630.0" font-family="Arial, sans-serif" font-size="14" fill="#202124">Hashi Restaurant Sushi &amp; Nikkei Fusion</text><rect x="1284" y="634.0" width="369.8" height="18" fill="#2e7d32"/><text x="1661.8" y="649.0" font-family="Arial, sans-serif" font-size="13" fill="#202124">4,6★  (395)</text><text x="1242" y="685.0" text-anchor="end" font-family="Arial, sans-serif" font-size="13" fill="#83888d">10.</text><text x="1284" y="666.0" font-family="Arial, sans-serif" font-size="14" fill="#202124">Restaurant Sportpark Ebensee</text><rect x="1284" y="670.0" width="369.8" height="18" fill="#2e7d32"/><text x="1661.8" y="685.0" font-family="Arial, sans-serif" font-size="13" fill="#202124">4,6★  (379)</text><text x="1242" y="721.0" text-anchor="end" font-family="Arial, sans-serif" font-size="13" fill="#83888d">11.</text><text x="1284" y="702.0" font-family="Arial, sans-serif" font-size="14" fill="#202124">Khun Mae</text><rect x="1284" y="706.0" width="369.8" height="18" fill="#2e7d32"/><text x="1661.8" y="721.0" font-family="Arial, sans-serif" font-size="13" fill="#202124">4,6★  (349)</text><text x="1242" y="757.0" text-anchor="end" font-family="Arial, sans-serif" font-size="13" fill="#83888d">12.</text><text x="1284" y="738.0" font-family="Arial, sans-serif" font-size="14" fill="#202124">KoKoNo Nürnberg IIl Seetor Campus</text><rect x="1284" y="742.0" width="369.8" height="18" fill="#2e7d32"/><text x="1661.8" y="757.0" font-family="Arial, sans-serif" font-size="13" fill="#202124">4,6★  (335)</text><text x="1242" y="793.0" text-anchor="end" font-family="Arial, sans-serif" font-size="13" fill="#83888d">13.</text><text x="1284" y="774.0" font-family="Arial, sans-serif" font-size="14" fill="#202124">Gaststätte Loy</text><rect x="1284" y="778.0" width="369.8" height="18" fill="#2e7d32"/><text x="1661.8" y="793.0" font-family="Arial, sans-serif" font-size="13" fill="#202124">4,6★  (327)</text><text x="1242" y="829.0" text-anchor="end" font-family="Arial, sans-serif" font-size="13" fill="#83888d">14.</text><text x="1284" y="810.0" font-family="Arial, sans-serif" font-size="14" fill="#202124">Taverna Olympia</text><rect x="1284" y="814.0" width="369.8" height="18" fill="#2e7d32"/><text x="1661.8" y="829.0" font-family="Arial, sans-serif" font-size="13" fill="#202124">4,6★  (229)</text><text x="1242" y="865.0" text-anchor="end" font-family="Arial, sans-serif" font-size="13" fill="#83888d">15.</text><text x="1284" y="846.0" font-family="Arial, sans-serif" font-size="14" fill="#202124">Martha - Café, Begegnung und Kultur</text><rect x="1284" y="850.0" width="369.8" height="18" fill="#2e7d32"/><text x="1661.8" y="865.0" font-family="Arial, sans-serif" font-size="13" fill="#202124">4,6★  (123)</text><text x="1242" y="901.0" text-anchor="end" font-family="Arial, sans-serif" font-size="13" fill="#83888d">16.</text><text x="1284" y="882.0" font-family="Arial, sans-serif" font-size="14" fill="#202124">Trattoria Da Sebastiano</text><rect x="1284" y="886.0" width="361.8" height="18" fill="#2e7d32"/><text x="1653.8" y="901.0" font-family="Arial, sans-serif" font-size="13" fill="#202124">4,5★  (738)</text><text x="1242" y="937.0" text-anchor="end" font-family="Arial, sans-serif" font-size="13" fill="#83888d">17.</text><text x="1284" y="918.0" font-family="Arial, sans-serif" font-size="14" fill="#202124">SCHÖNE AUSSICHT Griechisches Restaurant NÜRN…</text><rect x="1284" y="922.0" width="361.8" height="18" fill="#2e7d32"/><text x="1653.8" y="937.0" font-family="Arial, sans-serif" font-size="13" fill="#202124">4,5★  (731)</text><text x="1242" y="973.0" text-anchor="end" font-family="Arial, sans-serif" font-size="13" fill="#83888d">18.</text><text x="1284" y="954.0" font-family="Arial, sans-serif" font-size="14" fill="#202124">Gaststätte Doktorshof</text><rect x="1284" y="958.0" width="361.8" height="18" fill="#2e7d32"/><text x="1653.8" y="973.0" font-family="Arial, sans-serif" font-size="13" fill="#202124">4,5★  (530)</text><text x="1242" y="1009.0" text-anchor="end" font-family="Arial, sans-serif" font-size="13" fill="#83888d">19.</text><text x="1284" y="990.0" font-family="Arial, sans-serif" font-size="14" fill="#202124">Madame Bui</text><rect x="1284" y="994.0" width="361.8" height="18" fill="#2e7d32"/><text x="1653.8" y="1009.0" font-family="Arial, sans-serif" font-size="13" fill="#202124">4,5★  (334)</text><text x="1242" y="1045.0" text-anchor="end" font-family="Arial, sans-serif" font-size="13" fill="#83888d">20.</text><text x="1284" y="1026.0" font-family="Arial, sans-serif" font-size="14" fill="#202124">Zur Hammerschmiede</text><rect x="1284" y="1030.0" width="361.8" height="18" fill="#2e7d32"/><text x="1653.8" y="1045.0" font-family="Arial, sans-serif" font-size="13" fill="#202124">4,5★  (225)</text><text x="1242" y="1081.0" text-anchor="end" font-family="Arial, sans-serif" font-size="13" fill="#83888d">21.</text><text x="1284" y="1062.0" font-family="Arial, sans-serif" font-size="14" fill="#202124">Kang Asia Wok</text><rect x="1284" y="1066.0" width="361.8" height="18" fill="#2e7d32"/><text x="1653.8" y="1081.0" font-family="Arial, sans-serif" font-size="13" fill="#202124">4,5★  (102)</text><text x="1242" y="1117.0" text-anchor="end" font-family="Arial, sans-serif" font-size="13" fill="#83888d">22.</text><text x="1284" y="1098.0" font-family="Arial, sans-serif" font-size="14" fill="#202124">Brezen Kolb Café</text><rect x="1284" y="1102.0" width="353.8" height="18" fill="#2e7d32"/><text x="1645.8" y="1117.0" font-family="Arial, sans-serif" font-size="13" fill="#202124">4,4★  (3.083)</text><text x="1242" y="1153.0" text-anchor="end" font-family="Arial, sans-serif" font-size="13" fill="#83888d">23.</text><text x="1284" y="1134.0" font-family="Arial, sans-serif" font-size="14" fill="#202124">Sportanlage Post SV Nürnberg</text><rect x="1284" y="1138.0" width="353.8" height="18" fill="#2e7d32"/><text x="1645.8" y="1153.0" font-family="Arial, sans-serif" font-size="13" fill="#202124">4,4★  (383)</text><text x="1242" y="1189.0" text-anchor="end" font-family="Arial, sans-serif" font-size="13" fill="#83888d">24.</text><text x="1284" y="1170.0" font-family="Arial, sans-serif" font-size="14" fill="#202124">Pizza Bella Napoli e.K.</text><rect x="1284" y="1174.0" width="353.8" height="18" fill="#2e7d32"/><text x="1645.8" y="1189.0" font-family="Arial, sans-serif" font-size="13" fill="#202124">4,4★  (255)</text><text x="1242" y="1225.0" text-anchor="end" font-family="Arial, sans-serif" font-size="13" fill="#83888d">25.</text><text x="1284" y="1206.0" font-family="Arial, sans-serif" font-size="14" fill="#202124">Bäcker Bock</text><rect x="1284" y="1210.0" width="353.8" height="18" fill="#2e7d32"/><text x="1645.8" y="1225.0" font-family="Arial, sans-serif" font-size="13" fill="#202124">4,4★  (125)</text><text x="1242" y="1261.0" text-anchor="end" font-family="Arial, sans-serif" font-size="13" fill="#83888d">26.</text><text x="1284" y="1242.0" font-family="Arial, sans-serif" font-size="14" fill="#202124">SAIGON 1</text><rect x="1284" y="1246.0" width="345.7" height="18" fill="#2e7d32"/><text x="1637.7" y="1261.0" font-family="Arial, sans-serif" font-size="13" fill="#202124">4,3★  (414)</text><text x="1242" y="1297.0" text-anchor="end" font-family="Arial, sans-serif" font-size="13" fill="#83888d">27.</text><text x="1284" y="1278.0" font-family="Arial, sans-serif" font-size="14" fill="#202124">Bäcker Bock</text><rect x="1284" y="1282.0" width="345.7" height="18" fill="#2e7d32"/><text x="1637.7" y="1297.0" font-family="Arial, sans-serif" font-size="13" fill="#202124">4,3★  (201)</text><text x="1242" y="1333.0" text-anchor="end" font-family="Arial, sans-serif" font-size="13" fill="#83888d">28.</text><text x="1284" y="1314.0" font-family="Arial, sans-serif" font-size="14" fill="#202124">Pizza De Luxe</text><rect x="1284" y="1318.0" width="345.7" height="18" fill="#2e7d32"/><text x="1637.7" y="1333.0" font-family="Arial, sans-serif" font-size="13" fill="#202124">4,3★  (100)</text><text x="1242" y="1369.0" text-anchor="end" font-family="Arial, sans-serif" font-size="13" fill="#83888d">29.</text><text x="1284" y="1350.0" font-family="Arial, sans-serif" font-size="14" fill="#202124">Pho Hanoi Asia</text><rect x="1284" y="1354.0" width="337.7" height="18" fill="#2e7d32"/><text x="1629.7" y="1369.0" font-family="Arial, sans-serif" font-size="13" fill="#202124">4,2★  (150)</text><text x="1242" y="1405.0" text-anchor="end" font-family="Arial, sans-serif" font-size="13" fill="#83888d">30.</text><text x="1284" y="1386.0" font-family="Arial, sans-serif" font-size="14" fill="#202124">Zur Friedenslinde</text><rect x="1284" y="1390.0" width="321.6" height="18" fill="#2e7d32"/><text x="1613.6" y="1405.0" font-family="Arial, sans-serif" font-size="13" fill="#202124">4,0★  (323)</text><text x="1485" y="1444.0" text-anchor="middle" font-family="Arial, sans-serif" font-size="13" fill="#6f7377">Rating (★)</text></g><g><text x="120" y="1660" font-family="Arial, sans-serif" font-size="28" font-weight="800" fill="#202124">Verteilung der Lösch-Stufen über alle 51 Orte</text><rect x="120" y="1715" width="1540" height="560" fill="#ffffff" opacity="0.96" filter="url(#softShadow)"/><text x="150" y="1781" font-family="Arial, sans-serif" font-size="18" fill="#202124">Keine Löschung</text><rect x="450" y="1765" width="900" height="24" fill="#edf2f5"/><rect x="450" y="1765" width="900.0" height="24" fill="#2e7d32"/><text x="1380" y="1783" font-family="Arial, sans-serif" font-size="18" fill="#202124">45 (88,2%)</text><text x="150" y="1826" font-family="Arial, sans-serif" font-size="18" fill="#202124">Eine gelöscht</text><rect x="450" y="1810" width="900" height="24" fill="#edf2f5"/><rect x="450" y="1810" width="20.0" height="24" fill="#8bc34a"/><text x="1380" y="1828" font-family="Arial, sans-serif" font-size="18" fill="#202124">1 (2,0%)</text><text x="150" y="1871" font-family="Arial, sans-serif" font-size="18" fill="#202124">2–5 gelöscht</text><rect x="450" y="1855" width="900" height="24" fill="#edf2f5"/><rect x="450" y="1855" width="40.0" height="24" fill="#cddc39"/><text x="1380" y="1873" font-family="Arial, sans-serif" font-size="18" fill="#202124">2 (3,9%)</text><text x="150" y="1916" font-family="Arial, sans-serif" font-size="18" fill="#202124">6–10 gelöscht</text><rect x="450" y="1900" width="900" height="24" fill="#edf2f5"/><rect x="450" y="1900" width="20.0" height="24" fill="#ffca28"/><text x="1380" y="1918" font-family="Arial, sans-serif" font-size="18" fill="#202124">1 (2,0%)</text><text x="150" y="1961" font-family="Arial, sans-serif" font-size="18" fill="#202124">11–20 gelöscht</text><rect x="450" y="1945" width="900" height="24" fill="#edf2f5"/><rect x="450" y="1945" width="20.0" height="24" fill="#ff9f1c"/><text x="1380" y="1963" font-family="Arial, sans-serif" font-size="18" fill="#202124">1 (2,0%)</text><text x="150" y="2006" font-family="Arial, sans-serif" font-size="18" fill="#202124">21–50 gelöscht</text><rect x="450" y="1990" width="900" height="24" fill="#edf2f5"/><rect x="450" y="1990" width="20.0" height="24" fill="#ff6d00"/><text x="1380" y="2008" font-family="Arial, sans-serif" font-size="18" fill="#202124">1 (2,0%)</text><text x="150" y="2051" font-family="Arial, sans-serif" font-size="18" fill="#202124">51–100 gelöscht</text><rect x="450" y="2035" width="900" height="24" fill="#edf2f5"/><rect x="450" y="2035" width="0.0" height="24" fill="#e5391b"/><text x="1380" y="2053" font-family="Arial, sans-serif" font-size="18" fill="#202124">0 (0,0%)</text><text x="150" y="2096" font-family="Arial, sans-serif" font-size="18" fill="#202124">101–200 gelöscht</text><rect x="450" y="2080" width="900" height="24" fill="#edf2f5"/><rect x="450" y="2080" width="0.0" height="24" fill="#c62828"/><text x="1380" y="2098" font-family="Arial, sans-serif" font-size="18" fill="#202124">0 (0,0%)</text><text x="150" y="2141" font-family="Arial, sans-serif" font-size="18" fill="#202124">201–250 gelöscht</text><rect x="450" y="2125" width="900" height="24" fill="#edf2f5"/><rect x="450" y="2125" width="0.0" height="24" fill="#8e1919"/><text x="1380" y="2143" font-family="Arial, sans-serif" font-size="18" fill="#202124">0 (0,0%)</text><text x="150" y="2186" font-family="Arial, sans-serif" font-size="18" fill="#202124">Über 250 gelöscht</text><rect x="450" y="2170" width="900" height="24" fill="#edf2f5"/><rect x="450" y="2170" width="0.0" height="24" fill="#5b0f0f"/><text x="1380" y="2188" font-family="Arial, sans-serif" font-size="18" fill="#202124">0 (0,0%)</text></g><text x="40" y="2460" font-family="Arial, sans-serif" font-size="13" fill="#8a8f94">Quelle: Google Maps, öffentlich sichtbare Banner; Analyse-Snapshot 01.05.2026</text><text x="1760" y="2460" text-anchor="end" font-family="Arial, sans-serif" font-size="13" fill="#8a8f94">generated by Go cmd/charts</text></svg>
