<svg xmlns="http://www.w3.org/2000/svg" width="1800" height="2500" viewBox="0 0 1800 2500">
  <defs>
    <linearGradient id="bg" x1="0" y1="0" x2="0" y2="1"><stop offset="0%" stop-color="#d9e8f2"/><stop offset="58%" stop-color="#eef6fa"/><stop offset="100%" stop-color="#d7dde2"/></linearGradient>
    <filter id="softShadow" x="-10%" y="-10%" width="120%" height="120%"><feDropShadow dx="0" dy="8" stdDeviation="10" flood-color="#6d7f8a" flood-opacity="0.16"/></filter>
  </defs>
  <rect width="100%" height="100%" fill="url(#bg)"/>
  <circle cx="1450" cy="310" r="500" fill="#ffffff" opacity="0.18"/>
  <circle cx="260" cy="2140" r="620" fill="#ffffff" opacity="0.20"/>
  <text x="900" y="70" text-anchor="middle" font-family="Arial, sans-serif" font-size="48" font-weight="800" fill="#202124">Nürnberg — Gesamtstadt</text>
  <text x="900" y="112" text-anchor="middle" font-family="Arial, sans-serif" font-size="22" fill="#4b5055">Alle erfassten PLZ — gelöschte Rezensionen wegen „Diffamierung“</text>
  <text x="900" y="160" text-anchor="middle" font-family="Arial, sans-serif" font-size="18" fill="#6f7377">2.157 Orte erfasst · 222 mit sichtbarem Banner (10,3%) · 3 in der „Über“-Stufe</text><g><text x="80" y="230" font-family="Arial, sans-serif" font-size="27" font-weight="800" fill="#202124">1. Höchste Lösch-Quote</text><text x="80" y="260" font-family="Arial, sans-serif" font-size="16" fill="#6f7377">Anteil gelöschter Rezensionen</text><rect x="80" y="322" width="470" height="1104" fill="#ffffff" opacity="0.96" filter="url(#softShadow)"/><line x1="114.0" y1="322" x2="114.0" y2="1406.0" stroke="#dde3e8" stroke-width="1"/><line x1="214.5" y1="322" x2="214.5" y2="1406.0" stroke="#dde3e8" stroke-width="1"/><line x1="315.0" y1="322" x2="315.0" y2="1406.0" stroke="#dde3e8" stroke-width="1"/><line x1="415.5" y1="322" x2="415.5" y2="1406.0" stroke="#dde3e8" stroke-width="1"/><line x1="516.0" y1="322" x2="516.0" y2="1406.0" stroke="#dde3e8" stroke-width="1"/><text x="72" y="361.0" text-anchor="end" font-family="Arial, sans-serif" font-size="13" fill="#83888d">1.</text><text x="114" y="342.0" font-family="Arial, sans-serif" font-size="14" fill="#202124">Bäckerei Drexler</text><rect x="114" y="346.0" width="402.0" height="18" fill="#c9332c"/><text x="524.0" y="361.0" font-family="Arial, sans-serif" font-size="13" fill="#202124">39,2%  (11–20 von 24)</text><text x="72" y="397.0" text-anchor="end" font-family="Arial, sans-serif" font-size="13" fill="#83888d">2.</text><text x="114" y="378.0" font-family="Arial, sans-serif" font-size="14" fill="#202124">Pizza del Porto</text><rect x="114" y="382.0" width="362.3" height="18" fill="#c9332c"/><text x="484.3" y="397.0" font-family="Arial, sans-serif" font-size="13" fill="#202124">35,4%  (51–100 von 138)</text><text x="72" y="433.0" text-anchor="end" font-family="Arial, sans-serif" font-size="13" fill="#83888d">3.</text><text x="114" y="414.0" font-family="Arial, sans-serif" font-size="14" fill="#202124">Asia Food</text><rect x="114" y="418.0" width="358.4" height="18" fill="#c9332c"/><text x="480.4" y="433.0" font-family="Arial, sans-serif" font-size="13" fill="#202124">35,0%  (21–50 von 66)</text><text x="72" y="469.0" text-anchor="end" font-family="Arial, sans-serif" font-size="13" fill="#83888d">4.</text><text x="114" y="450.0" font-family="Arial, sans-serif" font-size="14" fill="#202124">Bäckerei Drexler</text><rect x="114" y="454.0" width="341.5" height="18" fill="#c9332c"/><text x="463.5" y="469.0" font-family="Arial, sans-serif" font-size="13" fill="#202124">33,3%  (21–50 von 71)</text><text x="72" y="505.0" text-anchor="end" font-family="Arial, sans-serif" font-size="13" fill="#83888d">5.</text><text x="114" y="486.0" font-family="Arial, sans-serif" font-size="14" fill="#202124">Bäcker Drexler</text><rect x="114" y="490.0" width="341.5" height="18" fill="#c9332c"/><text x="463.5" y="505.0" font-family="Arial, sans-serif" font-size="13" fill="#202124">33,3%  (11–20 von 31)</text><text x="72" y="541.0" text-anchor="end" font-family="Arial, sans-serif" font-size="13" fill="#83888d">6.</text><text x="114" y="522.0" font-family="Arial, sans-serif" font-size="14" fill="#202124">Piknik Pide - Gemüsekebab</text><rect x="114" y="526.0" width="331.8" height="18" fill="#c9332c"/><text x="453.8" y="541.0" font-family="Arial, sans-serif" font-size="13" fill="#202124">32,4%  (101–150 von 262)</text><text x="72" y="577.0" text-anchor="end" font-family="Arial, sans-serif" font-size="13" fill="#83888d">7.</text><text x="114" y="558.0" font-family="Arial, sans-serif" font-size="14" fill="#202124">Hotel Daucher sleep hotels Nürnberg</text><rect x="114" y="562.0" width="330.8" height="18" fill="#c9332c"/><text x="452.8" y="577.0" font-family="Arial, sans-serif" font-size="13" fill="#202124">32,3%  (151–200 von 368)</text><text x="72" y="613.0" text-anchor="end" font-family="Arial, sans-serif" font-size="13" fill="#83888d">8.</text><text x="114" y="594.0" font-family="Arial, sans-serif" font-size="14" fill="#202124">burgerme Nürnberg Nord</text><rect x="114" y="598.0" width="310.2" height="18" fill="#c9332c"/><text x="432.2" y="613.0" font-family="Arial, sans-serif" font-size="13" fill="#202124">30,3%  (101–150 von 289)</text><text x="72" y="649.0" text-anchor="end" font-family="Arial, sans-serif" font-size="13" fill="#83888d">9.</text><text x="114" y="630.0" font-family="Arial, sans-serif" font-size="14" fill="#202124">Ankara Bäckerei Nürnberg</text><rect x="114" y="634.0" width="309.5" height="18" fill="#c9332c"/><text x="431.5" y="649.0" font-family="Arial, sans-serif" font-size="13" fill="#202124">30,2%  (21–50 von 82)</text><text x="72" y="685.0" text-anchor="end" font-family="Arial, sans-serif" font-size="13" fill="#83888d">10.</text><text x="114" y="666.0" font-family="Arial, sans-serif" font-size="14" fill="#202124">IU &amp; On</text><rect x="114" y="670.0" width="283.1" height="18" fill="#c9332c"/><text x="405.1" y="685.0" font-family="Arial, sans-serif" font-size="13" fill="#202124">27,6%  (21–50 von 93)</text><text x="72" y="721.0" text-anchor="end" font-family="Arial, sans-serif" font-size="13" fill="#83888d">11.</text><text x="114" y="702.0" font-family="Arial, sans-serif" font-size="14" fill="#202124">H&amp;B Döner</text><rect x="114" y="706.0" width="228.5" height="18" fill="#c9332c"/><text x="350.5" y="721.0" font-family="Arial, sans-serif" font-size="13" fill="#202124">22,3%  (51–100 von 263)</text><text x="72" y="757.0" text-anchor="end" font-family="Arial, sans-serif" font-size="13" fill="#83888d">12.</text><text x="114" y="738.0" font-family="Arial, sans-serif" font-size="14" fill="#202124">Kochlöffel</text><rect x="114" y="742.0" width="224.6" height="18" fill="#c9332c"/><text x="346.6" y="757.0" font-family="Arial, sans-serif" font-size="13" fill="#202124">21,9%  (101–150 von 447)</text><text x="72" y="793.0" text-anchor="end" font-family="Arial, sans-serif" font-size="13" fill="#83888d">13.</text><text x="114" y="774.0" font-family="Arial, sans-serif" font-size="14" fill="#202124">Schnitzery Nürnberg</text><rect x="114" y="778.0" width="224.6" height="18" fill="#c9332c"/><text x="346.6" y="793.0" font-family="Arial, sans-serif" font-size="13" fill="#202124">21,9%  (51–100 von 269)</text><text x="72" y="829.0" text-anchor="end" font-family="Arial, sans-serif" font-size="13" fill="#83888d">14.</text><text x="114" y="810.0" font-family="Arial, sans-serif" font-size="14" fill="#202124">Bao Street</text><rect x="114" y="814.0" width="212.0" height="18" fill="#c9332c"/><text x="334.0" y="829.0" font-family="Arial, sans-serif" font-size="13" fill="#202124">20,7%  (101–150 von 481)</text><text x="72" y="865.0" text-anchor="end" font-family="Arial, sans-serif" font-size="13" fill="#83888d">15.</text><text x="114" y="846.0" font-family="Arial, sans-serif" font-size="14" fill="#202124">Smack Burger</text><rect x="114" y="850.0" width="200.1" height="18" fill="#c9332c"/><text x="322.1" y="865.0" font-family="Arial, sans-serif" font-size="13" fill="#202124">19,5%  (51–100 von 311)</text><text x="72" y="901.0" text-anchor="end" font-family="Arial, sans-serif" font-size="13" fill="#83888d">16.</text><text x="114" y="882.0" font-family="Arial, sans-serif" font-size="14" fill="#202124">Die Kirschbohne Kaffeerösterei / KRS-Service</text><rect x="114" y="886.0" width="193.8" height="18" fill="#c9332c"/><text x="315.8" y="901.0" font-family="Arial, sans-serif" font-size="13" fill="#202124">18,9%  (2–5 von 15)</text><text x="72" y="937.0" text-anchor="end" font-family="Arial, sans-serif" font-size="13" fill="#83888d">17.</text><text x="114" y="918.0" font-family="Arial, sans-serif" font-size="14" fill="#202124">Urfa Dürüm Döner Nürnberg</text><rect x="114" y="922.0" width="192.2" height="18" fill="#c9332c"/><text x="314.2" y="937.0" font-family="Arial, sans-serif" font-size="13" fill="#202124">18,8%  (über 250 von 1.299)</text><text x="72" y="973.0" text-anchor="end" font-family="Arial, sans-serif" font-size="13" fill="#83888d">18.</text><text x="114" y="954.0" font-family="Arial, sans-serif" font-size="14" fill="#202124">Pizzeria Pomodoro</text><rect x="114" y="958.0" width="182.3" height="18" fill="#c9332c"/><text x="304.3" y="973.0" font-family="Arial, sans-serif" font-size="13" fill="#202124">17,8%  (21–50 von 164)</text><text x="72" y="1009.0" text-anchor="end" font-family="Arial, sans-serif" font-size="13" fill="#83888d">19.</text><text x="114" y="990.0" font-family="Arial, sans-serif" font-size="14" fill="#202124">Fatos Imbiss</text><rect x="114" y="994.0" width="182.1" height="18" fill="#c9332c"/><text x="304.1" y="1009.0" font-family="Arial, sans-serif" font-size="13" fill="#202124">17,8%  (6–10 von 37)</text><text x="72" y="1045.0" text-anchor="end" font-family="Arial, sans-serif" font-size="13" fill="#83888d">20.</text><text x="114" y="1026.0" font-family="Arial, sans-serif" font-size="14" fill="#202124">Pizza da rosa</text><rect x="114" y="1030.0" width="180.5" height="18" fill="#c9332c"/><text x="302.5" y="1045.0" font-family="Arial, sans-serif" font-size="13" fill="#202124">17,6%  (21–50 von 166)</text><text x="72" y="1081.0" text-anchor="end" font-family="Arial, sans-serif" font-size="13" fill="#83888d">21.</text><text x="114" y="1062.0" font-family="Arial, sans-serif" font-size="14" fill="#202124">24 Seven Hotel Nürnberg</text><rect x="114" y="1066.0" width="179.7" height="18" fill="#c9332c"/><text x="301.7" y="1081.0" font-family="Arial, sans-serif" font-size="13" fill="#202124">17,5%  (51–100 von 355)</text><text x="72" y="1117.0" text-anchor="end" font-family="Arial, sans-serif" font-size="13" fill="#83888d">22.</text><text x="114" y="1098.0" font-family="Arial, sans-serif" font-size="14" fill="#202124">Euphrat-Schnellimbiss</text><rect x="114" y="1102.0" width="174.5" height="18" fill="#c9332c"/><text x="296.5" y="1117.0" font-family="Arial, sans-serif" font-size="13" fill="#202124">17,0%  (21–50 von 173)</text><text x="72" y="1153.0" text-anchor="end" font-family="Arial, sans-serif" font-size="13" fill="#83888d">23.</text><text x="114" y="1134.0" font-family="Arial, sans-serif" font-size="14" fill="#202124">Bäckerei Drexler</text><rect x="114" y="1138.0" width="170.8" height="18" fill="#c9332c"/><text x="292.8" y="1153.0" font-family="Arial, sans-serif" font-size="13" fill="#202124">16,7%  (6–10 von 40)</text><text x="72" y="1189.0" text-anchor="end" font-family="Arial, sans-serif" font-size="13" fill="#83888d">24.</text><text x="114" y="1170.0" font-family="Arial, sans-serif" font-size="14" fill="#202124">Bat Dat - Asia Snacks</text><rect x="114" y="1174.0" width="170.6" height="18" fill="#c9332c"/><text x="292.6" y="1189.0" font-family="Arial, sans-serif" font-size="13" fill="#202124">16,6%  (51–100 von 378)</text><text x="72" y="1225.0" text-anchor="end" font-family="Arial, sans-serif" font-size="13" fill="#83888d">25.</text><text x="114" y="1206.0" font-family="Arial, sans-serif" font-size="14" fill="#202124">Kral Internetcafe</text><rect x="114" y="1210.0" width="169.9" height="18" fill="#c9332c"/><text x="291.9" y="1225.0" font-family="Arial, sans-serif" font-size="13" fill="#202124">16,6%  (11–20 von 78)</text><text x="72" y="1261.0" text-anchor="end" font-family="Arial, sans-serif" font-size="13" fill="#83888d">26.</text><text x="114" y="1242.0" font-family="Arial, sans-serif" font-size="14" fill="#202124">Restaurant Tiflis</text><rect x="114" y="1246.0" width="167.5" height="18" fill="#c9332c"/><text x="289.5" y="1261.0" font-family="Arial, sans-serif" font-size="13" fill="#202124">16,4%  (101–150 von 642)</text><text x="72" y="1297.0" text-anchor="end" font-family="Arial, sans-serif" font-size="13" fill="#83888d">27.</text><text x="114" y="1278.0" font-family="Arial, sans-serif" font-size="14" fill="#202124">Steak Döner</text><rect x="114" y="1282.0" width="164.9" height="18" fill="#c9332c"/><text x="286.9" y="1297.0" font-family="Arial, sans-serif" font-size="13" fill="#202124">16,1%  (21–50 von 185)</text><text x="72" y="1333.0" text-anchor="end" font-family="Arial, sans-serif" font-size="13" fill="#83888d">28.</text><text x="114" y="1314.0" font-family="Arial, sans-serif" font-size="14" fill="#202124">Palast Grill Haus</text><rect x="114" y="1318.0" width="164.1" height="18" fill="#c9332c"/><text x="286.1" y="1333.0" font-family="Arial, sans-serif" font-size="13" fill="#202124">16,0%  (101–150 von 658)</text><text x="72" y="1369.0" text-anchor="end" font-family="Arial, sans-serif" font-size="13" fill="#83888d">29.</text><text x="114" y="1350.0" font-family="Arial, sans-serif" font-size="14" fill="#202124">Bootshaus Nürnberg</text><rect x="114" y="1354.0" width="160.0" height="18" fill="#c9332c"/><text x="282.0" y="1369.0" font-family="Arial, sans-serif" font-size="13" fill="#202124">15,6%  (101–150 von 678)</text><text x="72" y="1405.0" text-anchor="end" font-family="Arial, sans-serif" font-size="13" fill="#83888d">30.</text><text x="114" y="1386.0" font-family="Arial, sans-serif" font-size="14" fill="#202124">PROVENZA Trattoria Italia Ristorante Pizzeria</text><rect x="114" y="1390.0" width="146.6" height="18" fill="#c9332c"/><text x="268.6" y="1405.0" font-family="Arial, sans-serif" font-size="13" fill="#202124">14,3%  (über 250 von 1.797)</text><text x="315" y="1444.0" text-anchor="middle" font-family="Arial, sans-serif" font-size="13" fill="#6f7377">Lösch-Quote (%) · Top 30</text></g><g><text x="665" y="230" font-family="Arial, sans-serif" font-size="27" font-weight="800" fill="#202124">2. Schlechtestes „echtes“ Rating</text><text x="665" y="260" font-family="Arial, sans-serif" font-size="16" fill="#6f7377">Modell: gelöschte Rezensionen waren 1★</text><rect x="665" y="322" width="470" height="1104" fill="#ffffff" opacity="0.96" filter="url(#softShadow)"/><line x1="699.0" y1="322" x2="699.0" y2="1406.0" stroke="#dde3e8" stroke-width="1"/><line x1="799.5" y1="322" x2="799.5" y2="1406.0" stroke="#dde3e8" stroke-width="1"/><line x1="900.0" y1="322" x2="900.0" y2="1406.0" stroke="#dde3e8" stroke-width="1"/><line x1="1000.5" y1="322" x2="1000.5" y2="1406.0" stroke="#dde3e8" stroke-width="1"/><line x1="1101.0" y1="322" x2="1101.0" y2="1406.0" stroke="#dde3e8" stroke-width="1"/><text x="657" y="361.0" text-anchor="end" font-family="Arial, sans-serif" font-size="13" fill="#83888d">1.</text><text x="699" y="342.0" font-family="Arial, sans-serif" font-size="14" fill="#202124">Bäcker Drexler</text><rect x="699" y="346.0" width="402.0" height="18" fill="#ef7d16"/><text x="1109.0" y="361.0" font-family="Arial, sans-serif" font-size="13" fill="#202124">3,00★  (vorher 4,0★)</text><text x="657" y="397.0" text-anchor="end" font-family="Arial, sans-serif" font-size="13" fill="#83888d">2.</text><text x="699" y="378.0" font-family="Arial, sans-serif" font-size="14" fill="#202124">Bäckerei Drexler</text><rect x="699" y="382.0" width="388.7" height="18" fill="#ef7d16"/><text x="1095.7" y="397.0" font-family="Arial, sans-serif" font-size="13" fill="#202124">3,07★  (vorher 4,4★)</text><text x="657" y="433.0" text-anchor="end" font-family="Arial, sans-serif" font-size="13" fill="#83888d">3.</text><text x="699" y="414.0" font-family="Arial, sans-serif" font-size="14" fill="#202124">Pizza del Porto</text><rect x="699" y="418.0" width="362.2" height="18" fill="#ef7d16"/><text x="1069.2" y="433.0" font-family="Arial, sans-serif" font-size="13" fill="#202124">3,20★  (vorher 4,4★)</text><text x="657" y="469.0" text-anchor="end" font-family="Arial, sans-serif" font-size="13" fill="#83888d">4.</text><text x="699" y="450.0" font-family="Arial, sans-serif" font-size="14" fill="#202124">Hotel Daucher sleep hotels Nürnberg</text><rect x="699" y="454.0" width="355.0" height="18" fill="#ef7d16"/><text x="1062.0" y="469.0" font-family="Arial, sans-serif" font-size="13" fill="#202124">3,23★  (vorher 4,3★)</text><text x="657" y="505.0" text-anchor="end" font-family="Arial, sans-serif" font-size="13" fill="#83888d">5.</text><text x="699" y="486.0" font-family="Arial, sans-serif" font-size="14" fill="#202124">Asia Food</text><rect x="699" y="490.0" width="346.5" height="18" fill="#ef7d16"/><text x="1053.5" y="505.0" font-family="Arial, sans-serif" font-size="13" fill="#202124">3,28★  (vorher 4,5★)</text><text x="657" y="541.0" text-anchor="end" font-family="Arial, sans-serif" font-size="13" fill="#83888d">6.</text><text x="699" y="522.0" font-family="Arial, sans-serif" font-size="14" fill="#202124">burgerme Nürnberg Nord</text><rect x="699" y="526.0" width="341.5" height="18" fill="#ef7d16"/><text x="1048.5" y="541.0" font-family="Arial, sans-serif" font-size="13" fill="#202124">3,30★  (vorher 4,3★)</text><text x="657" y="577.0" text-anchor="end" font-family="Arial, sans-serif" font-size="13" fill="#83888d">7.</text><text x="699" y="558.0" font-family="Arial, sans-serif" font-size="14" fill="#202124">Kochlöffel</text><rect x="699" y="562.0" width="333.3" height="18" fill="#ef7d16"/><text x="1040.3" y="577.0" font-family="Arial, sans-serif" font-size="13" fill="#202124">3,34★  (vorher 4,0★)</text><text x="657" y="613.0" text-anchor="end" font-family="Arial, sans-serif" font-size="13" fill="#83888d">8.</text><text x="699" y="594.0" font-family="Arial, sans-serif" font-size="14" fill="#202124">Pronto Pizza</text><rect x="699" y="598.0" width="326.2" height="18" fill="#ef7d16"/><text x="1033.2" y="613.0" font-family="Arial, sans-serif" font-size="13" fill="#202124">3,38★  (vorher 3,6★)</text><text x="657" y="649.0" text-anchor="end" font-family="Arial, sans-serif" font-size="13" fill="#83888d">9.</text><text x="699" y="630.0" font-family="Arial, sans-serif" font-size="14" fill="#202124">Bäckerei Drexler</text><rect x="699" y="634.0" width="321.6" height="18" fill="#ef7d16"/><text x="1028.6" y="649.0" font-family="Arial, sans-serif" font-size="13" fill="#202124">3,40★  (vorher 4,6★)</text><text x="657" y="685.0" text-anchor="end" font-family="Arial, sans-serif" font-size="13" fill="#83888d">10.</text><text x="699" y="666.0" font-family="Arial, sans-serif" font-size="14" fill="#202124">dean&amp;david</text><rect x="699" y="670.0" width="307.9" height="18" fill="#ef7d16"/><text x="1014.9" y="685.0" font-family="Arial, sans-serif" font-size="13" fill="#202124">3,47★  (vorher 3,8★)</text><text x="657" y="721.0" text-anchor="end" font-family="Arial, sans-serif" font-size="13" fill="#83888d">11.</text><text x="699" y="702.0" font-family="Arial, sans-serif" font-size="14" fill="#202124">24 Seven Hotel Nürnberg</text><rect x="699" y="706.0" width="306.7" height="18" fill="#ef7d16"/><text x="1013.7" y="721.0" font-family="Arial, sans-serif" font-size="13" fill="#202124">3,47★  (vorher 4,0★)</text><text x="657" y="757.0" text-anchor="end" font-family="Arial, sans-serif" font-size="13" fill="#83888d">12.</text><text x="699" y="738.0" font-family="Arial, sans-serif" font-size="14" fill="#202124">Ankara Bäckerei Nürnberg</text><rect x="699" y="742.0" width="299.1" height="18" fill="#ef7d16"/><text x="1006.1" y="757.0" font-family="Arial, sans-serif" font-size="13" fill="#202124">3,51★  (vorher 4,6★)</text><text x="657" y="793.0" text-anchor="end" font-family="Arial, sans-serif" font-size="13" fill="#83888d">13.</text><text x="699" y="774.0" font-family="Arial, sans-serif" font-size="14" fill="#202124">Piknik Pide - Gemüsekebab</text><rect x="699" y="778.0" width="287.6" height="18" fill="#ef7d16"/><text x="994.6" y="793.0" font-family="Arial, sans-serif" font-size="13" fill="#202124">3,57★  (vorher 4,8★)</text><text x="657" y="829.0" text-anchor="end" font-family="Arial, sans-serif" font-size="13" fill="#83888d">14.</text><text x="699" y="810.0" font-family="Arial, sans-serif" font-size="14" fill="#202124">Pizz &amp; Via</text><rect x="699" y="814.0" width="272.4" height="18" fill="#ef7d16"/><text x="979.4" y="829.0" font-family="Arial, sans-serif" font-size="13" fill="#202124">3,65★  (vorher 3,7★)</text><text x="657" y="865.0" text-anchor="end" font-family="Arial, sans-serif" font-size="13" fill="#83888d">15.</text><text x="699" y="846.0" font-family="Arial, sans-serif" font-size="14" fill="#202124">Schnitzery Nürnberg</text><rect x="699" y="850.0" width="254.7" height="18" fill="#ef7d16"/><text x="961.7" y="865.0" font-family="Arial, sans-serif" font-size="13" fill="#202124">3,73★  (vorher 4,5★)</text><text x="657" y="901.0" text-anchor="end" font-family="Arial, sans-serif" font-size="13" fill="#83888d">16.</text><text x="699" y="882.0" font-family="Arial, sans-serif" font-size="14" fill="#202124">IU &amp; On</text><rect x="699" y="886.0" width="251.2" height="18" fill="#ef7d16"/><text x="958.2" y="901.0" font-family="Arial, sans-serif" font-size="13" fill="#202124">3,75★  (vorher 4,8★)</text><text x="657" y="937.0" text-anchor="end" font-family="Arial, sans-serif" font-size="13" fill="#83888d">17.</text><text x="699" y="918.0" font-family="Arial, sans-serif" font-size="14" fill="#202124">Cookie Couture Nürnberg</text><rect x="699" y="922.0" width="235.0" height="18" fill="#ef7d16"/><text x="942.0" y="937.0" font-family="Arial, sans-serif" font-size="13" fill="#202124">3,83★  (vorher 4,2★)</text><text x="657" y="973.0" text-anchor="end" font-family="Arial, sans-serif" font-size="13" fill="#83888d">18.</text><text x="699" y="954.0" font-family="Arial, sans-serif" font-size="14" fill="#202124">Wolf Fleischerei-Fachgeschäft mit Heisser Wo…</text><rect x="699" y="958.0" width="231.8" height="18" fill="#ef7d16"/><text x="938.8" y="973.0" font-family="Arial, sans-serif" font-size="13" fill="#202124">3,85★  (vorher 4,3★)</text><text x="657" y="1009.0" text-anchor="end" font-family="Arial, sans-serif" font-size="13" fill="#83888d">19.</text><text x="699" y="990.0" font-family="Arial, sans-serif" font-size="14" fill="#202124">Bao Street</text><rect x="699" y="994.0" width="230.1" height="18" fill="#ef7d16"/><text x="937.1" y="1009.0" font-family="Arial, sans-serif" font-size="13" fill="#202124">3,85★  (vorher 4,6★)</text><text x="657" y="1045.0" text-anchor="end" font-family="Arial, sans-serif" font-size="13" fill="#83888d">20.</text><text x="699" y="1026.0" font-family="Arial, sans-serif" font-size="14" fill="#202124">H&amp;B Döner</text><rect x="699" y="1030.0" width="226.1" height="18" fill="#ef7d16"/><text x="933.1" y="1045.0" font-family="Arial, sans-serif" font-size="13" fill="#202124">3,88★  (vorher 4,7★)</text><text x="657" y="1081.0" text-anchor="end" font-family="Arial, sans-serif" font-size="13" fill="#83888d">21.</text><text x="699" y="1062.0" font-family="Arial, sans-serif" font-size="14" fill="#202124">Smack Burger</text><rect x="699" y="1066.0" width="221.7" height="18" fill="#ef7d16"/><text x="928.7" y="1081.0" font-family="Arial, sans-serif" font-size="13" fill="#202124">3,90★  (vorher 4,6★)</text><text x="657" y="1117.0" text-anchor="end" font-family="Arial, sans-serif" font-size="13" fill="#83888d">22.</text><text x="699" y="1098.0" font-family="Arial, sans-serif" font-size="14" fill="#202124">Urfa Dürüm Döner Nürnberg</text><rect x="699" y="1102.0" width="216.1" height="18" fill="#ef7d16"/><text x="923.1" y="1117.0" font-family="Arial, sans-serif" font-size="13" fill="#202124">3,92★  (vorher 4,6★)</text><text x="657" y="1153.0" text-anchor="end" font-family="Arial, sans-serif" font-size="13" fill="#83888d">23.</text><text x="699" y="1134.0" font-family="Arial, sans-serif" font-size="14" fill="#202124">Howe Wurstwaren KG</text><rect x="699" y="1138.0" width="213.3" height="18" fill="#ef7d16"/><text x="920.3" y="1153.0" font-family="Arial, sans-serif" font-size="13" fill="#202124">3,94★  (vorher 4,3★)</text><text x="657" y="1189.0" text-anchor="end" font-family="Arial, sans-serif" font-size="13" fill="#83888d">24.</text><text x="699" y="1170.0" font-family="Arial, sans-serif" font-size="14" fill="#202124">Maestro</text><rect x="699" y="1174.0" width="210.0" height="18" fill="#ef7d16"/><text x="917.0" y="1189.0" font-family="Arial, sans-serif" font-size="13" fill="#202124">3,96★  (vorher 4,4★)</text><text x="657" y="1225.0" text-anchor="end" font-family="Arial, sans-serif" font-size="13" fill="#83888d">25.</text><text x="699" y="1206.0" font-family="Arial, sans-serif" font-size="14" fill="#202124">Pizza da rosa</text><rect x="699" y="1210.0" width="207.8" height="18" fill="#ef7d16"/><text x="914.8" y="1225.0" font-family="Arial, sans-serif" font-size="13" fill="#202124">3,97★  (vorher 4,6★)</text><text x="657" y="1261.0" text-anchor="end" font-family="Arial, sans-serif" font-size="13" fill="#83888d">26.</text><text x="699" y="1242.0" font-family="Arial, sans-serif" font-size="14" fill="#202124">Espressolab</text><rect x="699" y="1246.0" width="207.0" height="18" fill="#ef7d16"/><text x="914.0" y="1261.0" font-family="Arial, sans-serif" font-size="13" fill="#202124">3,97★  (vorher 4,3★)</text><text x="657" y="1297.0" text-anchor="end" font-family="Arial, sans-serif" font-size="13" fill="#83888d">27.</text><text x="699" y="1278.0" font-family="Arial, sans-serif" font-size="14" fill="#202124">Osteria BellaVista Mögeldorf</text><rect x="699" y="1282.0" width="201.8" height="18" fill="#ef7d16"/><text x="908.8" y="1297.0" font-family="Arial, sans-serif" font-size="13" fill="#202124">4,00★  (vorher 4,0★)</text><text x="657" y="1333.0" text-anchor="end" font-family="Arial, sans-serif" font-size="13" fill="#83888d">28.</text><text x="699" y="1314.0" font-family="Arial, sans-serif" font-size="14" fill="#202124">MOGGI Asian Kitchen &amp; Bar GmbH</text><rect x="699" y="1318.0" width="192.6" height="18" fill="#ef7d16"/><text x="899.6" y="1333.0" font-family="Arial, sans-serif" font-size="13" fill="#202124">4,04★  (vorher 4,5★)</text><text x="657" y="1369.0" text-anchor="end" font-family="Arial, sans-serif" font-size="13" fill="#83888d">29.</text><text x="699" y="1350.0" font-family="Arial, sans-serif" font-size="14" fill="#202124">Pizzeria Pomodoro</text><rect x="699" y="1354.0" width="192.6" height="18" fill="#ef7d16"/><text x="899.6" y="1369.0" font-family="Arial, sans-serif" font-size="13" fill="#202124">4,04★  (vorher 4,7★)</text><text x="657" y="1405.0" text-anchor="end" font-family="Arial, sans-serif" font-size="13" fill="#83888d">30.</text><text x="699" y="1386.0" font-family="Arial, sans-serif" font-size="14" fill="#202124">Fatos Imbiss</text><rect x="699" y="1390.0" width="192.6" height="18" fill="#ef7d16"/><text x="899.6" y="1405.0" font-family="Arial, sans-serif" font-size="13" fill="#202124">4,04★  (vorher 4,7★)</text><text x="900" y="1444.0" text-anchor="middle" font-family="Arial, sans-serif" font-size="13" fill="#6f7377">Punkte unter 5★</text></g><g><text x="1250" y="230" font-family="Arial, sans-serif" font-size="27" font-weight="800" fill="#202124">3. Beste Orte ohne Löschbanner</text><text x="1250" y="260" font-family="Arial, sans-serif" font-size="16" fill="#6f7377">kein sichtbarer Diffamierungs-Löschbanner — ab 100 Rezensionen</text><rect x="1250" y="322" width="470" height="1104" fill="#ffffff" opacity="0.96" filter="url(#softShadow)"/><line x1="1284.0" y1="322" x2="1284.0" y2="1406.0" stroke="#dde3e8" stroke-width="1"/><line x1="1384.5" y1="322" x2="1384.5" y2="1406.0" stroke="#dde3e8" stroke-width="1"/><line x1="1485.0" y1="322" x2="1485.0" y2="1406.0" stroke="#dde3e8" stroke-width="1"/><line x1="1585.5" y1="322" x2="1585.5" y2="1406.0" stroke="#dde3e8" stroke-width="1"/><line x1="1686.0" y1="322" x2="1686.0" y2="1406.0" stroke="#dde3e8" stroke-width="1"/><text x="1242" y="361.0" text-anchor="end" font-family="Arial, sans-serif" font-size="13" fill="#83888d">1.</text><text x="1284" y="342.0" font-family="Arial, sans-serif" font-size="14" fill="#202124">EAT HAPPY</text><rect x="1284" y="346.0" width="402.0" height="18" fill="#2e7d32"/><text x="1694.0" y="361.0" font-family="Arial, sans-serif" font-size="13" fill="#202124">5,0★  (621)</text><text x="1242" y="397.0" text-anchor="end" font-family="Arial, sans-serif" font-size="13" fill="#83888d">2.</text><text x="1284" y="378.0" font-family="Arial, sans-serif" font-size="14" fill="#202124">Tchibo</text><rect x="1284" y="382.0" width="402.0" height="18" fill="#2e7d32"/><text x="1694.0" y="397.0" font-family="Arial, sans-serif" font-size="13" fill="#202124">5,0★  (621)</text><text x="1242" y="433.0" text-anchor="end" font-family="Arial, sans-serif" font-size="13" fill="#83888d">3.</text><text x="1284" y="414.0" font-family="Arial, sans-serif" font-size="14" fill="#202124">Lusakirana</text><rect x="1284" y="418.0" width="402.0" height="18" fill="#2e7d32"/><text x="1694.0" y="433.0" font-family="Arial, sans-serif" font-size="13" fill="#202124">5,0★  (588)</text><text x="1242" y="469.0" text-anchor="end" font-family="Arial, sans-serif" font-size="13" fill="#83888d">4.</text><text x="1284" y="450.0" font-family="Arial, sans-serif" font-size="14" fill="#202124">REWE To Go bei Aral</text><rect x="1284" y="454.0" width="402.0" height="18" fill="#2e7d32"/><text x="1694.0" y="469.0" font-family="Arial, sans-serif" font-size="13" fill="#202124">5,0★  (542)</text><text x="1242" y="505.0" text-anchor="end" font-family="Arial, sans-serif" font-size="13" fill="#83888d">5.</text><text x="1284" y="486.0" font-family="Arial, sans-serif" font-size="14" fill="#202124">Salvatore Russolillo</text><rect x="1284" y="490.0" width="402.0" height="18" fill="#2e7d32"/><text x="1694.0" y="505.0" font-family="Arial, sans-serif" font-size="13" fill="#202124">5,0★  (348)</text><text x="1242" y="541.0" text-anchor="end" font-family="Arial, sans-serif" font-size="13" fill="#83888d">6.</text><text x="1284" y="522.0" font-family="Arial, sans-serif" font-size="14" fill="#202124">Gaststätte Z. Kreuzweg</text><rect x="1284" y="526.0" width="402.0" height="18" fill="#2e7d32"/><text x="1694.0" y="541.0" font-family="Arial, sans-serif" font-size="13" fill="#202124">5,0★  (292)</text><text x="1242" y="577.0" text-anchor="end" font-family="Arial, sans-serif" font-size="13" fill="#83888d">7.</text><text x="1284" y="558.0" font-family="Arial, sans-serif" font-size="14" fill="#202124">Pecoranera - Italian Soulfood 🇮🇹</text><rect x="1284" y="562.0" width="402.0" height="18" fill="#2e7d32"/><text x="1694.0" y="577.0" font-family="Arial, sans-serif" font-size="13" fill="#202124">5,0★  (254)</text><text x="1242" y="613.0" text-anchor="end" font-family="Arial, sans-serif" font-size="13" fill="#83888d">8.</text><text x="1284" y="594.0" font-family="Arial, sans-serif" font-size="14" fill="#202124">EAT HAPPY</text><rect x="1284" y="598.0" width="402.0" height="18" fill="#2e7d32"/><text x="1694.0" y="613.0" font-family="Arial, sans-serif" font-size="13" fill="#202124">5,0★  (155)</text><text x="1242" y="649.0" text-anchor="end" font-family="Arial, sans-serif" font-size="13" fill="#83888d">9.</text><text x="1284" y="630.0" font-family="Arial, sans-serif" font-size="14" fill="#202124">Santos DOS Tapas Bodega Restaurante</text><rect x="1284" y="634.0" width="402.0" height="18" fill="#2e7d32"/><text x="1694.0" y="649.0" font-family="Arial, sans-serif" font-size="13" fill="#202124">5,0★  (127)</text><text x="1242" y="685.0" text-anchor="end" font-family="Arial, sans-serif" font-size="13" fill="#83888d">10.</text><text x="1284" y="666.0" font-family="Arial, sans-serif" font-size="14" fill="#202124">Hazar Çiğköfte</text><rect x="1284" y="670.0" width="402.0" height="18" fill="#2e7d32"/><text x="1694.0" y="685.0" font-family="Arial, sans-serif" font-size="13" fill="#202124">5,0★  (125)</text><text x="1242" y="721.0" text-anchor="end" font-family="Arial, sans-serif" font-size="13" fill="#83888d">11.</text><text x="1284" y="702.0" font-family="Arial, sans-serif" font-size="14" fill="#202124">Acai Gastro Konzept oHG</text><rect x="1284" y="706.0" width="402.0" height="18" fill="#2e7d32"/><text x="1694.0" y="721.0" font-family="Arial, sans-serif" font-size="13" fill="#202124">5,0★  (124)</text><text x="1242" y="757.0" text-anchor="end" font-family="Arial, sans-serif" font-size="13" fill="#83888d">12.</text><text x="1284" y="738.0" font-family="Arial, sans-serif" font-size="14" fill="#202124">Napule è Pizza</text><rect x="1284" y="742.0" width="402.0" height="18" fill="#2e7d32"/><text x="1694.0" y="757.0" font-family="Arial, sans-serif" font-size="13" fill="#202124">5,0★  (117)</text><text x="1242" y="793.0" text-anchor="end" font-family="Arial, sans-serif" font-size="13" fill="#83888d">13.</text><text x="1284" y="774.0" font-family="Arial, sans-serif" font-size="14" fill="#202124">The Professor Döner</text><rect x="1284" y="778.0" width="394.0" height="18" fill="#2e7d32"/><text x="1686.0" y="793.0" font-family="Arial, sans-serif" font-size="13" fill="#202124">4,9★  (3.417)</text><text x="1242" y="829.0" text-anchor="end" font-family="Arial, sans-serif" font-size="13" fill="#83888d">14.</text><text x="1284" y="810.0" font-family="Arial, sans-serif" font-size="14" fill="#202124">Schaschlik Imbiss</text><rect x="1284" y="814.0" width="394.0" height="18" fill="#2e7d32"/><text x="1686.0" y="829.0" font-family="Arial, sans-serif" font-size="13" fill="#202124">4,9★  (2.566)</text><text x="1242" y="865.0" text-anchor="end" font-family="Arial, sans-serif" font-size="13" fill="#83888d">15.</text><text x="1284" y="846.0" font-family="Arial, sans-serif" font-size="14" fill="#202124">Phantastic -asian cuisine-</text><rect x="1284" y="850.0" width="394.0" height="18" fill="#2e7d32"/><text x="1686.0" y="865.0" font-family="Arial, sans-serif" font-size="13" fill="#202124">4,9★  (2.239)</text><text x="1242" y="901.0" text-anchor="end" font-family="Arial, sans-serif" font-size="13" fill="#83888d">16.</text><text x="1284" y="882.0" font-family="Arial, sans-serif" font-size="14" fill="#202124">Restobar Zoom Hookah &amp; Lounge - Nürnberg</text><rect x="1284" y="886.0" width="394.0" height="18" fill="#2e7d32"/><text x="1686.0" y="901.0" font-family="Arial, sans-serif" font-size="13" fill="#202124">4,9★  (1.763)</text><text x="1242" y="937.0" text-anchor="end" font-family="Arial, sans-serif" font-size="13" fill="#83888d">17.</text><text x="1284" y="918.0" font-family="Arial, sans-serif" font-size="14" fill="#202124">Café &amp; Bar Central Nürnberg Poke Bowl Pasta …</text><rect x="1284" y="922.0" width="394.0" height="18" fill="#2e7d32"/><text x="1686.0" y="937.0" font-family="Arial, sans-serif" font-size="13" fill="#202124">4,9★  (1.164)</text><text x="1242" y="973.0" text-anchor="end" font-family="Arial, sans-serif" font-size="13" fill="#83888d">18.</text><text x="1284" y="954.0" font-family="Arial, sans-serif" font-size="14" fill="#202124">Hanım &amp; Ağa Çiğköfte Nürnberg</text><rect x="1284" y="958.0" width="394.0" height="18" fill="#2e7d32"/><text x="1686.0" y="973.0" font-family="Arial, sans-serif" font-size="13" fill="#202124">4,9★  (1.123)</text><text x="1242" y="1009.0" text-anchor="end" font-family="Arial, sans-serif" font-size="13" fill="#83888d">19.</text><text x="1284" y="990.0" font-family="Arial, sans-serif" font-size="14" fill="#202124">La Ceaune Nürnberg</text><rect x="1284" y="994.0" width="394.0" height="18" fill="#2e7d32"/><text x="1686.0" y="1009.0" font-family="Arial, sans-serif" font-size="13" fill="#202124">4,9★  (1.121)</text><text x="1242" y="1045.0" text-anchor="end" font-family="Arial, sans-serif" font-size="13" fill="#83888d">20.</text><text x="1284" y="1026.0" font-family="Arial, sans-serif" font-size="14" fill="#202124">Indo Chaska Indisches Restaurant</text><rect x="1284" y="1030.0" width="394.0" height="18" fill="#2e7d32"/><text x="1686.0" y="1045.0" font-family="Arial, sans-serif" font-size="13" fill="#202124">4,9★  (927)</text><text x="1242" y="1081.0" text-anchor="end" font-family="Arial, sans-serif" font-size="13" fill="#83888d">21.</text><text x="1284" y="1062.0" font-family="Arial, sans-serif" font-size="14" fill="#202124">Smash King Burger</text><rect x="1284" y="1066.0" width="394.0" height="18" fill="#2e7d32"/><text x="1686.0" y="1081.0" font-family="Arial, sans-serif" font-size="13" fill="#202124">4,9★  (707)</text><text x="1242" y="1117.0" text-anchor="end" font-family="Arial, sans-serif" font-size="13" fill="#83888d">22.</text><text x="1284" y="1098.0" font-family="Arial, sans-serif" font-size="14" fill="#202124">Pasha Kebab</text><rect x="1284" y="1102.0" width="394.0" height="18" fill="#2e7d32"/><text x="1686.0" y="1117.0" font-family="Arial, sans-serif" font-size="13" fill="#202124">4,9★  (666)</text><text x="1242" y="1153.0" text-anchor="end" font-family="Arial, sans-serif" font-size="13" fill="#83888d">23.</text><text x="1284" y="1134.0" font-family="Arial, sans-serif" font-size="14" fill="#202124">odilia - Süßes aus der Natur</text><rect x="1284" y="1138.0" width="394.0" height="18" fill="#2e7d32"/><text x="1686.0" y="1153.0" font-family="Arial, sans-serif" font-size="13" fill="#202124">4,9★  (506)</text><text x="1242" y="1189.0" text-anchor="end" font-family="Arial, sans-serif" font-size="13" fill="#83888d">24.</text><text x="1284" y="1170.0" font-family="Arial, sans-serif" font-size="14" fill="#202124">Yellow Tile Coffee Project</text><rect x="1284" y="1174.0" width="394.0" height="18" fill="#2e7d32"/><text x="1686.0" y="1189.0" font-family="Arial, sans-serif" font-size="13" fill="#202124">4,9★  (499)</text><text x="1242" y="1225.0" text-anchor="end" font-family="Arial, sans-serif" font-size="13" fill="#83888d">25.</text><text x="1284" y="1206.0" font-family="Arial, sans-serif" font-size="14" fill="#202124">Café Brasserie Sebald</text><rect x="1284" y="1210.0" width="394.0" height="18" fill="#2e7d32"/><text x="1686.0" y="1225.0" font-family="Arial, sans-serif" font-size="13" fill="#202124">4,9★  (454)</text><text x="1242" y="1261.0" text-anchor="end" font-family="Arial, sans-serif" font-size="13" fill="#83888d">26.</text><text x="1284" y="1242.0" font-family="Arial, sans-serif" font-size="14" fill="#202124">Krummbeere</text><rect x="1284" y="1246.0" width="394.0" height="18" fill="#2e7d32"/><text x="1686.0" y="1261.0" font-family="Arial, sans-serif" font-size="13" fill="#202124">4,9★  (407)</text><text x="1242" y="1297.0" text-anchor="end" font-family="Arial, sans-serif" font-size="13" fill="#83888d">27.</text><text x="1284" y="1278.0" font-family="Arial, sans-serif" font-size="14" fill="#202124">MILCH UND ZUCKER</text><rect x="1284" y="1282.0" width="394.0" height="18" fill="#2e7d32"/><text x="1686.0" y="1297.0" font-family="Arial, sans-serif" font-size="13" fill="#202124">4,9★  (403)</text><text x="1242" y="1333.0" text-anchor="end" font-family="Arial, sans-serif" font-size="13" fill="#83888d">28.</text><text x="1284" y="1314.0" font-family="Arial, sans-serif" font-size="14" fill="#202124">Ristorantino dei Lavoratori</text><rect x="1284" y="1318.0" width="394.0" height="18" fill="#2e7d32"/><text x="1686.0" y="1333.0" font-family="Arial, sans-serif" font-size="13" fill="#202124">4,9★  (380)</text><text x="1242" y="1369.0" text-anchor="end" font-family="Arial, sans-serif" font-size="13" fill="#83888d">29.</text><text x="1284" y="1350.0" font-family="Arial, sans-serif" font-size="14" fill="#202124">Momo&#39;s Streetfood</text><rect x="1284" y="1354.0" width="394.0" height="18" fill="#2e7d32"/><text x="1686.0" y="1369.0" font-family="Arial, sans-serif" font-size="13" fill="#202124">4,9★  (379)</text><text x="1242" y="1405.0" text-anchor="end" font-family="Arial, sans-serif" font-size="13" fill="#83888d">30.</text><text x="1284" y="1386.0" font-family="Arial, sans-serif" font-size="14" fill="#202124">BAMBULE - Kletterhalle Nürnberg</text><rect x="1284" y="1390.0" width="394.0" height="18" fill="#2e7d32"/><text x="1686.0" y="1405.0" font-family="Arial, sans-serif" font-size="13" fill="#202124">4,9★  (375)</text><text x="1485" y="1444.0" text-anchor="middle" font-family="Arial, sans-serif" font-size="13" fill="#6f7377">Rating (★)</text></g><g><text x="120" y="1660" font-family="Arial, sans-serif" font-size="28" font-weight="800" fill="#202124">Verteilung der Lösch-Stufen über alle 2.157 Orte</text><rect x="120" y="1715" width="1540" height="560" fill="#ffffff" opacity="0.96" filter="url(#softShadow)"/><text x="150" y="1781" font-family="Arial, sans-serif" font-size="18" fill="#202124">Keine Löschung</text><rect x="450" y="1765" width="900" height="24" fill="#edf2f5"/><rect x="450" y="1765" width="900.0" height="24" fill="#2e7d32"/><text x="1380" y="1783" font-family="Arial, sans-serif" font-size="18" fill="#202124">1.935 (89,7%)</text><text x="150" y="1826" font-family="Arial, sans-serif" font-size="18" fill="#202124">Eine gelöscht</text><rect x="450" y="1810" width="900" height="24" fill="#edf2f5"/><rect x="450" y="1810" width="8.4" height="24" fill="#8bc34a"/><text x="1380" y="1828" font-family="Arial, sans-serif" font-size="18" fill="#202124">18 (0,8%)</text><text x="150" y="1871" font-family="Arial, sans-serif" font-size="18" fill="#202124">2–5 gelöscht</text><rect x="450" y="1855" width="900" height="24" fill="#edf2f5"/><rect x="450" y="1855" width="14.0" height="24" fill="#cddc39"/><text x="1380" y="1873" font-family="Arial, sans-serif" font-size="18" fill="#202124">30 (1,4%)</text><text x="150" y="1916" font-family="Arial, sans-serif" font-size="18" fill="#202124">6–10 gelöscht</text><rect x="450" y="1900" width="900" height="24" fill="#edf2f5"/><rect x="450" y="1900" width="16.3" height="24" fill="#ffca28"/><text x="1380" y="1918" font-family="Arial, sans-serif" font-size="18" fill="#202124">35 (1,6%)</text><text x="150" y="1961" font-family="Arial, sans-serif" font-size="18" fill="#202124">11–20 gelöscht</text><rect x="450" y="1945" width="900" height="24" fill="#edf2f5"/><rect x="450" y="1945" width="18.6" height="24" fill="#ff9f1c"/><text x="1380" y="1963" font-family="Arial, sans-serif" font-size="18" fill="#202124">40 (1,9%)</text><text x="150" y="2006" font-family="Arial, sans-serif" font-size="18" fill="#202124">21–50 gelöscht</text><rect x="450" y="1990" width="900" height="24" fill="#edf2f5"/><rect x="450" y="1990" width="23.3" height="24" fill="#ff6d00"/><text x="1380" y="2008" font-family="Arial, sans-serif" font-size="18" fill="#202124">50 (2,3%)</text><text x="150" y="2051" font-family="Arial, sans-serif" font-size="18" fill="#202124">51–100 gelöscht</text><rect x="450" y="2035" width="900" height="24" fill="#edf2f5"/><rect x="450" y="2035" width="11.2" height="24" fill="#e5391b"/><text x="1380" y="2053" font-family="Arial, sans-serif" font-size="18" fill="#202124">24 (1,1%)</text><text x="150" y="2096" font-family="Arial, sans-serif" font-size="18" fill="#202124">101–200 gelöscht</text><rect x="450" y="2080" width="900" height="24" fill="#edf2f5"/><rect x="450" y="2080" width="8.4" height="24" fill="#c62828"/><text x="1380" y="2098" font-family="Arial, sans-serif" font-size="18" fill="#202124">18 (0,8%)</text><text x="150" y="2141" font-family="Arial, sans-serif" font-size="18" fill="#202124">201–250 gelöscht</text><rect x="450" y="2125" width="900" height="24" fill="#edf2f5"/><rect x="450" y="2125" width="1.9" height="24" fill="#8e1919"/><text x="1380" y="2143" font-family="Arial, sans-serif" font-size="18" fill="#202124">4 (0,2%)</text><text x="150" y="2186" font-family="Arial, sans-serif" font-size="18" fill="#202124">Über 250 gelöscht</text><rect x="450" y="2170" width="900" height="24" fill="#edf2f5"/><rect x="450" y="2170" width="1.4" height="24" fill="#5b0f0f"/><text x="1380" y="2188" font-family="Arial, sans-serif" font-size="18" fill="#202124">3 (0,1%)</text></g><text x="40" y="2460" font-family="Arial, sans-serif" font-size="13" fill="#8a8f94">Quelle: Google Maps, öffentlich sichtbare Banner; Analyse-Snapshot 02.05.2026</text><text x="1760" y="2460" text-anchor="end" font-family="Arial, sans-serif" font-size="13" fill="#8a8f94">generated by Go cmd/charts</text></svg>
