<svg xmlns="http://www.w3.org/2000/svg" width="1800" height="2500" viewBox="0 0 1800 2500">
  <defs>
    <linearGradient id="bg" x1="0" y1="0" x2="0" y2="1"><stop offset="0%" stop-color="#d9e8f2"/><stop offset="58%" stop-color="#eef6fa"/><stop offset="100%" stop-color="#d7dde2"/></linearGradient>
    <filter id="softShadow" x="-10%" y="-10%" width="120%" height="120%"><feDropShadow dx="0" dy="8" stdDeviation="10" flood-color="#6d7f8a" flood-opacity="0.16"/></filter>
  </defs>
  <rect width="100%" height="100%" fill="url(#bg)"/>
  <circle cx="1450" cy="310" r="500" fill="#ffffff" opacity="0.18"/>
  <circle cx="260" cy="2140" r="620" fill="#ffffff" opacity="0.20"/>
  <text x="900" y="70" text-anchor="middle" font-family="Arial, sans-serif" font-size="48" font-weight="800" fill="#202124">Postleitzahl 90489 — Nürnberg</text>
  <text x="900" y="112" text-anchor="middle" font-family="Arial, sans-serif" font-size="22" fill="#4b5055">Google-Maps-Orte: gelöschte Rezensionen wegen „Diffamierung“</text>
  <text x="900" y="160" text-anchor="middle" font-family="Arial, sans-serif" font-size="18" fill="#6f7377">80 Orte erfasst · 9 mit sichtbarem Banner (11,2%) · 0 in der „Über“-Stufe</text><g><text x="80" y="230" font-family="Arial, sans-serif" font-size="27" font-weight="800" fill="#202124">1. Höchste Lösch-Quote</text><text x="80" y="260" font-family="Arial, sans-serif" font-size="16" fill="#6f7377">Anteil gelöschter Rezensionen</text><rect x="80" y="322" width="470" height="348" fill="#ffffff" opacity="0.96" filter="url(#softShadow)"/><line x1="114.0" y1="322" x2="114.0" y2="650.0" stroke="#dde3e8" stroke-width="1"/><line x1="214.5" y1="322" x2="214.5" y2="650.0" stroke="#dde3e8" stroke-width="1"/><line x1="315.0" y1="322" x2="315.0" y2="650.0" stroke="#dde3e8" stroke-width="1"/><line x1="415.5" y1="322" x2="415.5" y2="650.0" stroke="#dde3e8" stroke-width="1"/><line x1="516.0" y1="322" x2="516.0" y2="650.0" stroke="#dde3e8" stroke-width="1"/><text x="72" y="361.0" text-anchor="end" font-family="Arial, sans-serif" font-size="13" fill="#83888d">1.</text><text x="114" y="342.0" font-family="Arial, sans-serif" font-size="14" fill="#202124">Restaurante Pizzeria Quattro Stagioni</text><rect x="114" y="346.0" width="389.5" height="18" fill="#c9332c"/><text x="511.5" y="361.0" font-family="Arial, sans-serif" font-size="13" fill="#202124">9,7%  (21–50 von 331)</text><text x="72" y="397.0" text-anchor="end" font-family="Arial, sans-serif" font-size="13" fill="#83888d">2.</text><text x="114" y="378.0" font-family="Arial, sans-serif" font-size="14" fill="#202124">Grillmeister</text><rect x="114" y="382.0" width="297.9" height="18" fill="#c9332c"/><text x="419.9" y="397.0" font-family="Arial, sans-serif" font-size="13" fill="#202124">7,4%  (51–100 von 944)</text><text x="72" y="433.0" text-anchor="end" font-family="Arial, sans-serif" font-size="13" fill="#83888d">3.</text><text x="114" y="414.0" font-family="Arial, sans-serif" font-size="14" fill="#202124">Karakaya Dürüm Döner</text><rect x="114" y="418.0" width="195.0" height="18" fill="#c9332c"/><text x="317.0" y="433.0" font-family="Arial, sans-serif" font-size="13" fill="#202124">4,8%  (21–50 von 697)</text><text x="72" y="469.0" text-anchor="end" font-family="Arial, sans-serif" font-size="13" fill="#83888d">4.</text><text x="114" y="450.0" font-family="Arial, sans-serif" font-size="14" fill="#202124">Taqueria &amp; Cantina La Lucha</text><rect x="114" y="454.0" width="144.3" height="18" fill="#c9332c"/><text x="266.3" y="469.0" font-family="Arial, sans-serif" font-size="13" fill="#202124">3,6%  (21–50 von 954)</text><text x="72" y="505.0" text-anchor="end" font-family="Arial, sans-serif" font-size="13" fill="#83888d">5.</text><text x="114" y="486.0" font-family="Arial, sans-serif" font-size="14" fill="#202124">Ästhetik Room Maria Sayb -Massagen &amp; Beauty.…</text><rect x="114" y="490.0" width="67.9" height="18" fill="#c9332c"/><text x="189.9" y="505.0" font-family="Arial, sans-serif" font-size="13" fill="#202124">1,7%  (1 von 58)</text><text x="72" y="541.0" text-anchor="end" font-family="Arial, sans-serif" font-size="13" fill="#83888d">6.</text><text x="114" y="522.0" font-family="Arial, sans-serif" font-size="14" fill="#202124">Bit Stop Burger</text><rect x="114" y="526.0" width="61.1" height="18" fill="#c9332c"/><text x="183.1" y="541.0" font-family="Arial, sans-serif" font-size="13" fill="#202124">1,5%  (6–10 von 519)</text><text x="72" y="577.0" text-anchor="end" font-family="Arial, sans-serif" font-size="13" fill="#83888d">7.</text><text x="114" y="558.0" font-family="Arial, sans-serif" font-size="14" fill="#202124">Café Ginkgo - Poké Bowl</text><rect x="114" y="562.0" width="47.0" height="18" fill="#c9332c"/><text x="169.0" y="577.0" font-family="Arial, sans-serif" font-size="13" fill="#202124">1,2%  (2–5 von 296)</text><text x="72" y="613.0" text-anchor="end" font-family="Arial, sans-serif" font-size="13" fill="#83888d">8.</text><text x="114" y="594.0" font-family="Arial, sans-serif" font-size="14" fill="#202124">Mama Cafe</text><rect x="114" y="598.0" width="46.2" height="18" fill="#c9332c"/><text x="168.2" y="613.0" font-family="Arial, sans-serif" font-size="13" fill="#202124">1,1%  (2–5 von 302)</text><text x="72" y="649.0" text-anchor="end" font-family="Arial, sans-serif" font-size="13" fill="#83888d">9.</text><text x="114" y="630.0" font-family="Arial, sans-serif" font-size="14" fill="#202124">MANO</text><rect x="114" y="634.0" width="35.0" height="18" fill="#c9332c"/><text x="157.0" y="649.0" font-family="Arial, sans-serif" font-size="13" fill="#202124">0,9%  (2–5 von 398)</text><text x="315" y="688.0" text-anchor="middle" font-family="Arial, sans-serif" font-size="13" fill="#6f7377">Lösch-Quote (%) · Top 30</text></g><g><text x="665" y="230" font-family="Arial, sans-serif" font-size="27" font-weight="800" fill="#202124">2. Schlechtestes „echtes“ Rating</text><text x="665" y="260" font-family="Arial, sans-serif" font-size="16" fill="#6f7377">Modell: gelöschte Rezensionen waren 1★</text><rect x="665" y="322" width="470" height="348" fill="#ffffff" opacity="0.96" filter="url(#softShadow)"/><line x1="699.0" y1="322" x2="699.0" y2="650.0" stroke="#dde3e8" stroke-width="1"/><line x1="799.5" y1="322" x2="799.5" y2="650.0" stroke="#dde3e8" stroke-width="1"/><line x1="900.0" y1="322" x2="900.0" y2="650.0" stroke="#dde3e8" stroke-width="1"/><line x1="1000.5" y1="322" x2="1000.5" y2="650.0" stroke="#dde3e8" stroke-width="1"/><line x1="1101.0" y1="322" x2="1101.0" y2="650.0" stroke="#dde3e8" stroke-width="1"/><text x="657" y="361.0" text-anchor="end" font-family="Arial, sans-serif" font-size="13" fill="#83888d">1.</text><text x="699" y="342.0" font-family="Arial, sans-serif" font-size="14" fill="#202124">Mama Cafe</text><rect x="699" y="346.0" width="296.7" height="18" fill="#ef7d16"/><text x="1003.7" y="361.0" font-family="Arial, sans-serif" font-size="13" fill="#202124">4,26★  (vorher 4,3★)</text><text x="657" y="397.0" text-anchor="end" font-family="Arial, sans-serif" font-size="13" fill="#83888d">2.</text><text x="699" y="378.0" font-family="Arial, sans-serif" font-size="14" fill="#202124">Restaurante Pizzeria Quattro Stagioni</text><rect x="699" y="382.0" width="228.3" height="18" fill="#ef7d16"/><text x="935.3" y="397.0" font-family="Arial, sans-serif" font-size="13" fill="#202124">4,43★  (vorher 4,8★)</text><text x="657" y="433.0" text-anchor="end" font-family="Arial, sans-serif" font-size="13" fill="#83888d">3.</text><text x="699" y="414.0" font-family="Arial, sans-serif" font-size="14" fill="#202124">Grillmeister</text><rect x="699" y="418.0" width="193.4" height="18" fill="#ef7d16"/><text x="900.4" y="433.0" font-family="Arial, sans-serif" font-size="13" fill="#202124">4,52★  (vorher 4,8★)</text><text x="657" y="469.0" text-anchor="end" font-family="Arial, sans-serif" font-size="13" fill="#83888d">4.</text><text x="699" y="450.0" font-family="Arial, sans-serif" font-size="14" fill="#202124">Karakaya Dürüm Döner</text><rect x="699" y="454.0" width="192.6" height="18" fill="#ef7d16"/><text x="899.6" y="469.0" font-family="Arial, sans-serif" font-size="13" fill="#202124">4,52★  (vorher 4,7★)</text><text x="657" y="505.0" text-anchor="end" font-family="Arial, sans-serif" font-size="13" fill="#83888d">5.</text><text x="699" y="486.0" font-family="Arial, sans-serif" font-size="14" fill="#202124">Bit Stop Burger</text><rect x="699" y="490.0" width="182.9" height="18" fill="#ef7d16"/><text x="889.9" y="505.0" font-family="Arial, sans-serif" font-size="13" fill="#202124">4,54★  (vorher 4,6★)</text><text x="657" y="541.0" text-anchor="end" font-family="Arial, sans-serif" font-size="13" fill="#83888d">6.</text><text x="699" y="522.0" font-family="Arial, sans-serif" font-size="14" fill="#202124">Taqueria &amp; Cantina La Lucha</text><rect x="699" y="526.0" width="174.1" height="18" fill="#ef7d16"/><text x="881.1" y="541.0" font-family="Arial, sans-serif" font-size="13" fill="#202124">4,57★  (vorher 4,7★)</text><text x="657" y="577.0" text-anchor="end" font-family="Arial, sans-serif" font-size="13" fill="#83888d">7.</text><text x="699" y="558.0" font-family="Arial, sans-serif" font-size="14" fill="#202124">MANO</text><rect x="699" y="562.0" width="93.7" height="18" fill="#ef7d16"/><text x="800.7" y="577.0" font-family="Arial, sans-serif" font-size="13" fill="#202124">4,77★  (vorher 4,8★)</text><text x="657" y="613.0" text-anchor="end" font-family="Arial, sans-serif" font-size="13" fill="#83888d">8.</text><text x="699" y="594.0" font-family="Arial, sans-serif" font-size="14" fill="#202124">Ästhetik Room Maria Sayb -Massagen &amp; Beauty.…</text><rect x="699" y="598.0" width="27.3" height="18" fill="#ef7d16"/><text x="734.3" y="613.0" font-family="Arial, sans-serif" font-size="13" fill="#202124">4,93★  (vorher 5,0★)</text><text x="657" y="649.0" text-anchor="end" font-family="Arial, sans-serif" font-size="13" fill="#83888d">9.</text><text x="699" y="630.0" font-family="Arial, sans-serif" font-size="14" fill="#202124">Café Ginkgo - Poké Bowl</text><rect x="699" y="634.0" width="18.9" height="18" fill="#ef7d16"/><text x="725.9" y="649.0" font-family="Arial, sans-serif" font-size="13" fill="#202124">4,95★  (vorher 5,0★)</text><text x="900" y="688.0" text-anchor="middle" font-family="Arial, sans-serif" font-size="13" fill="#6f7377">Punkte unter 5★</text></g><g><text x="1250" y="230" font-family="Arial, sans-serif" font-size="27" font-weight="800" fill="#202124">3. Beste Orte ohne Löschbanner</text><text x="1250" y="260" font-family="Arial, sans-serif" font-size="16" fill="#6f7377">kein sichtbarer Diffamierungs-Löschbanner — ab 100 Rezensionen</text><rect x="1250" y="322" width="470" height="1104" fill="#ffffff" opacity="0.96" filter="url(#softShadow)"/><line x1="1284.0" y1="322" x2="1284.0" y2="1406.0" stroke="#dde3e8" stroke-width="1"/><line x1="1384.5" y1="322" x2="1384.5" y2="1406.0" stroke="#dde3e8" stroke-width="1"/><line x1="1485.0" y1="322" x2="1485.0" y2="1406.0" stroke="#dde3e8" stroke-width="1"/><line x1="1585.5" y1="322" x2="1585.5" y2="1406.0" stroke="#dde3e8" stroke-width="1"/><line x1="1686.0" y1="322" x2="1686.0" y2="1406.0" stroke="#dde3e8" stroke-width="1"/><text x="1242" y="361.0" text-anchor="end" font-family="Arial, sans-serif" font-size="13" fill="#83888d">1.</text><text x="1284" y="342.0" font-family="Arial, sans-serif" font-size="14" fill="#202124">Restobar Zoom Hookah &amp; Lounge - Nürnberg</text><rect x="1284" y="346.0" width="394.0" height="18" fill="#2e7d32"/><text x="1686.0" y="361.0" font-family="Arial, sans-serif" font-size="13" fill="#202124">4,9★  (1.763 Rezensionen)</text><text x="1242" y="397.0" text-anchor="end" font-family="Arial, sans-serif" font-size="13" fill="#83888d">2.</text><text x="1284" y="378.0" font-family="Arial, sans-serif" font-size="14" fill="#202124">Bäckerei Böhmer</text><rect x="1284" y="382.0" width="394.0" height="18" fill="#2e7d32"/><text x="1686.0" y="397.0" font-family="Arial, sans-serif" font-size="13" fill="#202124">4,9★  (294 Rezensionen)</text><text x="1242" y="433.0" text-anchor="end" font-family="Arial, sans-serif" font-size="13" fill="#83888d">3.</text><text x="1284" y="414.0" font-family="Arial, sans-serif" font-size="14" fill="#202124">Bester Berliner Döner</text><rect x="1284" y="418.0" width="385.9" height="18" fill="#2e7d32"/><text x="1677.9" y="433.0" font-family="Arial, sans-serif" font-size="13" fill="#202124">4,8★  (502 Rezensionen)</text><text x="1242" y="469.0" text-anchor="end" font-family="Arial, sans-serif" font-size="13" fill="#83888d">4.</text><text x="1284" y="450.0" font-family="Arial, sans-serif" font-size="14" fill="#202124">Restaurant Entenstuben</text><rect x="1284" y="454.0" width="385.9" height="18" fill="#2e7d32"/><text x="1677.9" y="469.0" font-family="Arial, sans-serif" font-size="13" fill="#202124">4,8★  (384 Rezensionen)</text><text x="1242" y="505.0" text-anchor="end" font-family="Arial, sans-serif" font-size="13" fill="#83888d">5.</text><text x="1284" y="486.0" font-family="Arial, sans-serif" font-size="14" fill="#202124">INOSHI</text><rect x="1284" y="490.0" width="385.9" height="18" fill="#2e7d32"/><text x="1677.9" y="505.0" font-family="Arial, sans-serif" font-size="13" fill="#202124">4,8★  (352 Rezensionen)</text><text x="1242" y="541.0" text-anchor="end" font-family="Arial, sans-serif" font-size="13" fill="#83888d">6.</text><text x="1284" y="522.0" font-family="Arial, sans-serif" font-size="14" fill="#202124">SAH Döner</text><rect x="1284" y="526.0" width="385.9" height="18" fill="#2e7d32"/><text x="1677.9" y="541.0" font-family="Arial, sans-serif" font-size="13" fill="#202124">4,8★  (231 Rezensionen)</text><text x="1242" y="577.0" text-anchor="end" font-family="Arial, sans-serif" font-size="13" fill="#83888d">7.</text><text x="1284" y="558.0" font-family="Arial, sans-serif" font-size="14" fill="#202124">Deuerlein Wein Buch Caffè</text><rect x="1284" y="562.0" width="385.9" height="18" fill="#2e7d32"/><text x="1677.9" y="577.0" font-family="Arial, sans-serif" font-size="13" fill="#202124">4,8★  (104 Rezensionen)</text><text x="1242" y="613.0" text-anchor="end" font-family="Arial, sans-serif" font-size="13" fill="#83888d">8.</text><text x="1284" y="594.0" font-family="Arial, sans-serif" font-size="14" fill="#202124">La Rustika</text><rect x="1284" y="598.0" width="377.9" height="18" fill="#2e7d32"/><text x="1669.9" y="613.0" font-family="Arial, sans-serif" font-size="13" fill="#202124">4,7★  (1.232 Rezensionen)</text><text x="1242" y="649.0" text-anchor="end" font-family="Arial, sans-serif" font-size="13" fill="#83888d">9.</text><text x="1284" y="630.0" font-family="Arial, sans-serif" font-size="14" fill="#202124">Panjabi Shaan Nürnberg</text><rect x="1284" y="634.0" width="377.9" height="18" fill="#2e7d32"/><text x="1669.9" y="649.0" font-family="Arial, sans-serif" font-size="13" fill="#202124">4,7★  (1.067 Rezensionen)</text><text x="1242" y="685.0" text-anchor="end" font-family="Arial, sans-serif" font-size="13" fill="#83888d">10.</text><text x="1284" y="666.0" font-family="Arial, sans-serif" font-size="14" fill="#202124">Gasthaus Engel</text><rect x="1284" y="670.0" width="377.9" height="18" fill="#2e7d32"/><text x="1669.9" y="685.0" font-family="Arial, sans-serif" font-size="13" fill="#202124">4,7★  (765 Rezensionen)</text><text x="1242" y="721.0" text-anchor="end" font-family="Arial, sans-serif" font-size="13" fill="#83888d">11.</text><text x="1284" y="702.0" font-family="Arial, sans-serif" font-size="14" fill="#202124">Eis im Glück</text><rect x="1284" y="706.0" width="377.9" height="18" fill="#2e7d32"/><text x="1669.9" y="721.0" font-family="Arial, sans-serif" font-size="13" fill="#202124">4,7★  (622 Rezensionen)</text><text x="1242" y="757.0" text-anchor="end" font-family="Arial, sans-serif" font-size="13" fill="#83888d">12.</text><text x="1284" y="738.0" font-family="Arial, sans-serif" font-size="14" fill="#202124">Costas Navarone Restaurant Bar Lounge</text><rect x="1284" y="742.0" width="377.9" height="18" fill="#2e7d32"/><text x="1669.9" y="757.0" font-family="Arial, sans-serif" font-size="13" fill="#202124">4,7★  (458 Rezensionen)</text><text x="1242" y="793.0" text-anchor="end" font-family="Arial, sans-serif" font-size="13" fill="#83888d">13.</text><text x="1284" y="774.0" font-family="Arial, sans-serif" font-size="14" fill="#202124">Becker&#39;s Backpoint</text><rect x="1284" y="778.0" width="377.9" height="18" fill="#2e7d32"/><text x="1669.9" y="793.0" font-family="Arial, sans-serif" font-size="13" fill="#202124">4,7★  (263 Rezensionen)</text><text x="1242" y="829.0" text-anchor="end" font-family="Arial, sans-serif" font-size="13" fill="#83888d">14.</text><text x="1284" y="810.0" font-family="Arial, sans-serif" font-size="14" fill="#202124">Grissini</text><rect x="1284" y="814.0" width="377.9" height="18" fill="#2e7d32"/><text x="1669.9" y="829.0" font-family="Arial, sans-serif" font-size="13" fill="#202124">4,7★  (209 Rezensionen)</text><text x="1242" y="865.0" text-anchor="end" font-family="Arial, sans-serif" font-size="13" fill="#83888d">15.</text><text x="1284" y="846.0" font-family="Arial, sans-serif" font-size="14" fill="#202124">HOLZOFENPIZZERIA TRATTORIA DA-PEPE</text><rect x="1284" y="850.0" width="377.9" height="18" fill="#2e7d32"/><text x="1669.9" y="865.0" font-family="Arial, sans-serif" font-size="13" fill="#202124">4,7★  (200 Rezensionen)</text><text x="1242" y="901.0" text-anchor="end" font-family="Arial, sans-serif" font-size="13" fill="#83888d">16.</text><text x="1284" y="882.0" font-family="Arial, sans-serif" font-size="14" fill="#202124">Flaleppo Arabische Süßigkeiten Flafel</text><rect x="1284" y="886.0" width="377.9" height="18" fill="#2e7d32"/><text x="1669.9" y="901.0" font-family="Arial, sans-serif" font-size="13" fill="#202124">4,7★  (148 Rezensionen)</text><text x="1242" y="937.0" text-anchor="end" font-family="Arial, sans-serif" font-size="13" fill="#83888d">17.</text><text x="1284" y="918.0" font-family="Arial, sans-serif" font-size="14" fill="#202124">Crazy Nate&#39;s West Coast Mexican</text><rect x="1284" y="922.0" width="369.8" height="18" fill="#2e7d32"/><text x="1661.8" y="937.0" font-family="Arial, sans-serif" font-size="13" fill="#202124">4,6★  (1.312 Rezensionen)</text><text x="1242" y="973.0" text-anchor="end" font-family="Arial, sans-serif" font-size="13" fill="#83888d">18.</text><text x="1284" y="954.0" font-family="Arial, sans-serif" font-size="14" fill="#202124">Sulzbacher Big Dürüm</text><rect x="1284" y="958.0" width="369.8" height="18" fill="#2e7d32"/><text x="1661.8" y="973.0" font-family="Arial, sans-serif" font-size="13" fill="#202124">4,6★  (1.109 Rezensionen)</text><text x="1242" y="1009.0" text-anchor="end" font-family="Arial, sans-serif" font-size="13" fill="#83888d">19.</text><text x="1284" y="990.0" font-family="Arial, sans-serif" font-size="14" fill="#202124">Restaurant Stephanie</text><rect x="1284" y="994.0" width="369.8" height="18" fill="#2e7d32"/><text x="1661.8" y="1009.0" font-family="Arial, sans-serif" font-size="13" fill="#202124">4,6★  (784 Rezensionen)</text><text x="1242" y="1045.0" text-anchor="end" font-family="Arial, sans-serif" font-size="13" fill="#83888d">20.</text><text x="1284" y="1026.0" font-family="Arial, sans-serif" font-size="14" fill="#202124">Bayerischer Wald</text><rect x="1284" y="1030.0" width="369.8" height="18" fill="#2e7d32"/><text x="1661.8" y="1045.0" font-family="Arial, sans-serif" font-size="13" fill="#202124">4,6★  (596 Rezensionen)</text><text x="1242" y="1081.0" text-anchor="end" font-family="Arial, sans-serif" font-size="13" fill="#83888d">21.</text><text x="1284" y="1062.0" font-family="Arial, sans-serif" font-size="14" fill="#202124">Bäckerei Lebküchnerei Düll GmbH</text><rect x="1284" y="1066.0" width="369.8" height="18" fill="#2e7d32"/><text x="1661.8" y="1081.0" font-family="Arial, sans-serif" font-size="13" fill="#202124">4,6★  (573 Rezensionen)</text><text x="1242" y="1117.0" text-anchor="end" font-family="Arial, sans-serif" font-size="13" fill="#83888d">22.</text><text x="1284" y="1098.0" font-family="Arial, sans-serif" font-size="14" fill="#202124">Kim Chung</text><rect x="1284" y="1102.0" width="369.8" height="18" fill="#2e7d32"/><text x="1661.8" y="1117.0" font-family="Arial, sans-serif" font-size="13" fill="#202124">4,6★  (554 Rezensionen)</text><text x="1242" y="1153.0" text-anchor="end" font-family="Arial, sans-serif" font-size="13" fill="#83888d">23.</text><text x="1284" y="1134.0" font-family="Arial, sans-serif" font-size="14" fill="#202124">Aroy Dee Thai Imbiss</text><rect x="1284" y="1138.0" width="369.8" height="18" fill="#2e7d32"/><text x="1661.8" y="1153.0" font-family="Arial, sans-serif" font-size="13" fill="#202124">4,6★  (379 Rezensionen)</text><text x="1242" y="1189.0" text-anchor="end" font-family="Arial, sans-serif" font-size="13" fill="#83888d">24.</text><text x="1284" y="1170.0" font-family="Arial, sans-serif" font-size="14" fill="#202124">Pilsbar Storchennest</text><rect x="1284" y="1174.0" width="369.8" height="18" fill="#2e7d32"/><text x="1661.8" y="1189.0" font-family="Arial, sans-serif" font-size="13" fill="#202124">4,6★  (218 Rezensionen)</text><text x="1242" y="1225.0" text-anchor="end" font-family="Arial, sans-serif" font-size="13" fill="#83888d">25.</text><text x="1284" y="1206.0" font-family="Arial, sans-serif" font-size="14" fill="#202124">Arion Korean Restaurant</text><rect x="1284" y="1210.0" width="369.8" height="18" fill="#2e7d32"/><text x="1661.8" y="1225.0" font-family="Arial, sans-serif" font-size="13" fill="#202124">4,6★  (180 Rezensionen)</text><text x="1242" y="1261.0" text-anchor="end" font-family="Arial, sans-serif" font-size="13" fill="#83888d">26.</text><text x="1284" y="1242.0" font-family="Arial, sans-serif" font-size="14" fill="#202124">KUMO</text><rect x="1284" y="1246.0" width="369.8" height="18" fill="#2e7d32"/><text x="1661.8" y="1261.0" font-family="Arial, sans-serif" font-size="13" fill="#202124">4,6★  (180 Rezensionen)</text><text x="1242" y="1297.0" text-anchor="end" font-family="Arial, sans-serif" font-size="13" fill="#83888d">27.</text><text x="1284" y="1278.0" font-family="Arial, sans-serif" font-size="14" fill="#202124">Bistro Feuerbach</text><rect x="1284" y="1282.0" width="369.8" height="18" fill="#2e7d32"/><text x="1661.8" y="1297.0" font-family="Arial, sans-serif" font-size="13" fill="#202124">4,6★  (152 Rezensionen)</text><text x="1242" y="1333.0" text-anchor="end" font-family="Arial, sans-serif" font-size="13" fill="#83888d">28.</text><text x="1284" y="1314.0" font-family="Arial, sans-serif" font-size="14" fill="#202124">Dalchini - The Indian Cuisine</text><rect x="1284" y="1318.0" width="369.8" height="18" fill="#2e7d32"/><text x="1661.8" y="1333.0" font-family="Arial, sans-serif" font-size="13" fill="#202124">4,6★  (141 Rezensionen)</text><text x="1242" y="1369.0" text-anchor="end" font-family="Arial, sans-serif" font-size="13" fill="#83888d">29.</text><text x="1284" y="1350.0" font-family="Arial, sans-serif" font-size="14" fill="#202124">ÓRALE Taquería y Bar</text><rect x="1284" y="1354.0" width="361.8" height="18" fill="#2e7d32"/><text x="1653.8" y="1369.0" font-family="Arial, sans-serif" font-size="13" fill="#202124">4,5★  (570 Rezensionen)</text><text x="1242" y="1405.0" text-anchor="end" font-family="Arial, sans-serif" font-size="13" fill="#83888d">30.</text><text x="1284" y="1386.0" font-family="Arial, sans-serif" font-size="14" fill="#202124">TANTE NORIS am See - noris gastro gGmbH</text><rect x="1284" y="1390.0" width="361.8" height="18" fill="#2e7d32"/><text x="1653.8" y="1405.0" font-family="Arial, sans-serif" font-size="13" fill="#202124">4,5★  (536 Rezensionen)</text><text x="1485" y="1444.0" text-anchor="middle" font-family="Arial, sans-serif" font-size="13" fill="#6f7377">Rating (★)</text></g><g><text x="120" y="1660" font-family="Arial, sans-serif" font-size="28" font-weight="800" fill="#202124">Verteilung der Lösch-Stufen über alle 80 Orte</text><rect x="120" y="1715" width="1540" height="560" fill="#ffffff" opacity="0.96" filter="url(#softShadow)"/><text x="150" y="1781" font-family="Arial, sans-serif" font-size="18" fill="#202124">Keine Löschung</text><rect x="450" y="1765" width="900" height="24" fill="#edf2f5"/><rect x="450" y="1765" width="900.0" height="24" fill="#2e7d32"/><text x="1380" y="1783" font-family="Arial, sans-serif" font-size="18" fill="#202124">71 (88,8%)</text><text x="150" y="1826" font-family="Arial, sans-serif" font-size="18" fill="#202124">Eine gelöscht</text><rect x="450" y="1810" width="900" height="24" fill="#edf2f5"/><rect x="450" y="1810" width="12.7" height="24" fill="#8bc34a"/><text x="1380" y="1828" font-family="Arial, sans-serif" font-size="18" fill="#202124">1 (1,2%)</text><text x="150" y="1871" font-family="Arial, sans-serif" font-size="18" fill="#202124">2–5 gelöscht</text><rect x="450" y="1855" width="900" height="24" fill="#edf2f5"/><rect x="450" y="1855" width="38.0" height="24" fill="#cddc39"/><text x="1380" y="1873" font-family="Arial, sans-serif" font-size="18" fill="#202124">3 (3,8%)</text><text x="150" y="1916" font-family="Arial, sans-serif" font-size="18" fill="#202124">6–10 gelöscht</text><rect x="450" y="1900" width="900" height="24" fill="#edf2f5"/><rect x="450" y="1900" width="12.7" height="24" fill="#ffca28"/><text x="1380" y="1918" font-family="Arial, sans-serif" font-size="18" fill="#202124">1 (1,2%)</text><text x="150" y="1961" font-family="Arial, sans-serif" font-size="18" fill="#202124">11–20 gelöscht</text><rect x="450" y="1945" width="900" height="24" fill="#edf2f5"/><rect x="450" y="1945" width="0.0" height="24" fill="#ff9f1c"/><text x="1380" y="1963" font-family="Arial, sans-serif" font-size="18" fill="#202124">0 (0,0%)</text><text x="150" y="2006" font-family="Arial, sans-serif" font-size="18" fill="#202124">21–50 gelöscht</text><rect x="450" y="1990" width="900" height="24" fill="#edf2f5"/><rect x="450" y="1990" width="38.0" height="24" fill="#ff6d00"/><text x="1380" y="2008" font-family="Arial, sans-serif" font-size="18" fill="#202124">3 (3,8%)</text><text x="150" y="2051" font-family="Arial, sans-serif" font-size="18" fill="#202124">51–100 gelöscht</text><rect x="450" y="2035" width="900" height="24" fill="#edf2f5"/><rect x="450" y="2035" width="12.7" height="24" fill="#e5391b"/><text x="1380" y="2053" font-family="Arial, sans-serif" font-size="18" fill="#202124">1 (1,2%)</text><text x="150" y="2096" font-family="Arial, sans-serif" font-size="18" fill="#202124">101–200 gelöscht</text><rect x="450" y="2080" width="900" height="24" fill="#edf2f5"/><rect x="450" y="2080" width="0.0" height="24" fill="#c62828"/><text x="1380" y="2098" font-family="Arial, sans-serif" font-size="18" fill="#202124">0 (0,0%)</text><text x="150" y="2141" font-family="Arial, sans-serif" font-size="18" fill="#202124">201–250 gelöscht</text><rect x="450" y="2125" width="900" height="24" fill="#edf2f5"/><rect x="450" y="2125" width="0.0" height="24" fill="#8e1919"/><text x="1380" y="2143" font-family="Arial, sans-serif" font-size="18" fill="#202124">0 (0,0%)</text><text x="150" y="2186" font-family="Arial, sans-serif" font-size="18" fill="#202124">Über 250 gelöscht</text><rect x="450" y="2170" width="900" height="24" fill="#edf2f5"/><rect x="450" y="2170" width="0.0" height="24" fill="#5b0f0f"/><text x="1380" y="2188" font-family="Arial, sans-serif" font-size="18" fill="#202124">0 (0,0%)</text></g><text x="40" y="2460" font-family="Arial, sans-serif" font-size="13" fill="#8a8f94">Quelle: Google Maps, öffentlich sichtbare Banner; Analyse-Snapshot 02.05.2026</text><text x="1760" y="2460" text-anchor="end" font-family="Arial, sans-serif" font-size="13" fill="#8a8f94">generated by Go cmd/charts</text></svg>
