<svg xmlns="http://www.w3.org/2000/svg" width="1800" height="2500" viewBox="0 0 1800 2500">
  <defs>
    <linearGradient id="bg" x1="0" y1="0" x2="0" y2="1"><stop offset="0%" stop-color="#d9e8f2"/><stop offset="58%" stop-color="#eef6fa"/><stop offset="100%" stop-color="#d7dde2"/></linearGradient>
    <filter id="softShadow" x="-10%" y="-10%" width="120%" height="120%"><feDropShadow dx="0" dy="8" stdDeviation="10" flood-color="#6d7f8a" flood-opacity="0.16"/></filter>
  </defs>
  <rect width="100%" height="100%" fill="url(#bg)"/>
  <circle cx="1450" cy="310" r="500" fill="#ffffff" opacity="0.18"/>
  <circle cx="260" cy="2140" r="620" fill="#ffffff" opacity="0.20"/>
  <text x="900" y="70" text-anchor="middle" font-family="Arial, sans-serif" font-size="48" font-weight="800" fill="#202124">Postleitzahl 90403 — Nürnberg</text>
  <text x="900" y="112" text-anchor="middle" font-family="Arial, sans-serif" font-size="22" fill="#4b5055">Google-Maps-Orte: gelöschte Rezensionen wegen „Diffamierung“</text>
  <text x="900" y="160" text-anchor="middle" font-family="Arial, sans-serif" font-size="18" fill="#6f7377">197 Orte erfasst · 32 mit sichtbarem Banner (16,2%) · 2 in der „Über“-Stufe</text><g><text x="80" y="230" font-family="Arial, sans-serif" font-size="27" font-weight="800" fill="#202124">1. Höchste Lösch-Quote</text><text x="80" y="260" font-family="Arial, sans-serif" font-size="16" fill="#6f7377">Anteil gelöschter Rezensionen</text><rect x="80" y="322" width="470" height="1104" fill="#ffffff" opacity="0.96" filter="url(#softShadow)"/><line x1="114.0" y1="322" x2="114.0" y2="1406.0" stroke="#dde3e8" stroke-width="1"/><line x1="214.5" y1="322" x2="214.5" y2="1406.0" stroke="#dde3e8" stroke-width="1"/><line x1="315.0" y1="322" x2="315.0" y2="1406.0" stroke="#dde3e8" stroke-width="1"/><line x1="415.5" y1="322" x2="415.5" y2="1406.0" stroke="#dde3e8" stroke-width="1"/><line x1="516.0" y1="322" x2="516.0" y2="1406.0" stroke="#dde3e8" stroke-width="1"/><text x="72" y="361.0" text-anchor="end" font-family="Arial, sans-serif" font-size="13" fill="#83888d">1.</text><text x="114" y="342.0" font-family="Arial, sans-serif" font-size="14" fill="#202124">PROVENZA Trattoria Italia Ristorante Pizzeria</text><rect x="114" y="346.0" width="402.0" height="18" fill="#c9332c"/><text x="524.0" y="361.0" font-family="Arial, sans-serif" font-size="13" fill="#202124">14,3%  (über 250 von 1.797)</text><text x="72" y="397.0" text-anchor="end" font-family="Arial, sans-serif" font-size="13" fill="#83888d">2.</text><text x="114" y="378.0" font-family="Arial, sans-serif" font-size="14" fill="#202124">MOGGI Asian Kitchen &amp; Bar GmbH</text><rect x="114" y="382.0" width="367.4" height="18" fill="#c9332c"/><text x="489.4" y="397.0" font-family="Arial, sans-serif" font-size="13" fill="#202124">13,1%  (21–50 von 236)</text><text x="72" y="433.0" text-anchor="end" font-family="Arial, sans-serif" font-size="13" fill="#83888d">3.</text><text x="114" y="414.0" font-family="Arial, sans-serif" font-size="14" fill="#202124">Espressolab</text><rect x="114" y="418.0" width="281.2" height="18" fill="#c9332c"/><text x="403.2" y="433.0" font-family="Arial, sans-serif" font-size="13" fill="#202124">10,0%  (21–50 von 319)</text><text x="72" y="469.0" text-anchor="end" font-family="Arial, sans-serif" font-size="13" fill="#83888d">4.</text><text x="114" y="450.0" font-family="Arial, sans-serif" font-size="14" fill="#202124">Lange Kante 16</text><rect x="114" y="454.0" width="259.9" height="18" fill="#c9332c"/><text x="381.9" y="469.0" font-family="Arial, sans-serif" font-size="13" fill="#202124">9,2%  (11–20 von 152)</text><text x="72" y="505.0" text-anchor="end" font-family="Arial, sans-serif" font-size="13" fill="#83888d">5.</text><text x="114" y="486.0" font-family="Arial, sans-serif" font-size="14" fill="#202124">Restaurant Oberkrainer am Hauptmarkt</text><rect x="114" y="490.0" width="250.6" height="18" fill="#c9332c"/><text x="372.6" y="505.0" font-family="Arial, sans-serif" font-size="13" fill="#202124">8,9%  (über 250 von 3.065)</text><text x="72" y="541.0" text-anchor="end" font-family="Arial, sans-serif" font-size="13" fill="#83888d">6.</text><text x="114" y="522.0" font-family="Arial, sans-serif" font-size="14" fill="#202124">Orko</text><rect x="114" y="526.0" width="222.8" height="18" fill="#c9332c"/><text x="344.8" y="541.0" font-family="Arial, sans-serif" font-size="13" fill="#202124">7,9%  (11–20 von 180)</text><text x="72" y="577.0" text-anchor="end" font-family="Arial, sans-serif" font-size="13" fill="#83888d">7.</text><text x="114" y="558.0" font-family="Arial, sans-serif" font-size="14" fill="#202124">Mam-Mam Burger</text><rect x="114" y="562.0" width="206.5" height="18" fill="#c9332c"/><text x="328.5" y="577.0" font-family="Arial, sans-serif" font-size="13" fill="#202124">7,3%  (101–150 von 1.581)</text><text x="72" y="613.0" text-anchor="end" font-family="Arial, sans-serif" font-size="13" fill="#83888d">8.</text><text x="114" y="594.0" font-family="Arial, sans-serif" font-size="14" fill="#202124">CôCô – Indochine Sushi Nürnberg</text><rect x="114" y="598.0" width="199.2" height="18" fill="#c9332c"/><text x="321.2" y="613.0" font-family="Arial, sans-serif" font-size="13" fill="#202124">7,1%  (101–150 von 1.644)</text><text x="72" y="649.0" text-anchor="end" font-family="Arial, sans-serif" font-size="13" fill="#83888d">9.</text><text x="114" y="630.0" font-family="Arial, sans-serif" font-size="14" fill="#202124">Burg Café Beer</text><rect x="114" y="634.0" width="188.8" height="18" fill="#c9332c"/><text x="310.8" y="649.0" font-family="Arial, sans-serif" font-size="13" fill="#202124">6,7%  (21–50 von 493)</text><text x="72" y="685.0" text-anchor="end" font-family="Arial, sans-serif" font-size="13" fill="#83888d">10.</text><text x="114" y="666.0" font-family="Arial, sans-serif" font-size="14" fill="#202124">globo Restaurant</text><rect x="114" y="670.0" width="172.5" height="18" fill="#c9332c"/><text x="294.5" y="685.0" font-family="Arial, sans-serif" font-size="13" fill="#202124">6,1%  (21–50 von 543)</text><text x="72" y="721.0" text-anchor="end" font-family="Arial, sans-serif" font-size="13" fill="#83888d">11.</text><text x="114" y="702.0" font-family="Arial, sans-serif" font-size="14" fill="#202124">cia‘s</text><rect x="114" y="706.0" width="162.9" height="18" fill="#c9332c"/><text x="284.9" y="721.0" font-family="Arial, sans-serif" font-size="13" fill="#202124">5,8%  (6–10 von 130)</text><text x="72" y="757.0" text-anchor="end" font-family="Arial, sans-serif" font-size="13" fill="#83888d">12.</text><text x="114" y="738.0" font-family="Arial, sans-serif" font-size="14" fill="#202124">dasPaul Restaurant &amp; Hotel</text><rect x="114" y="742.0" width="121.9" height="18" fill="#c9332c"/><text x="243.9" y="757.0" font-family="Arial, sans-serif" font-size="13" fill="#202124">4,3%  (101–150 von 2.766)</text><text x="72" y="793.0" text-anchor="end" font-family="Arial, sans-serif" font-size="13" fill="#83888d">13.</text><text x="114" y="774.0" font-family="Arial, sans-serif" font-size="14" fill="#202124">KARL - Wein trifft feine Küche</text><rect x="114" y="778.0" width="106.2" height="18" fill="#c9332c"/><text x="228.2" y="793.0" font-family="Arial, sans-serif" font-size="13" fill="#202124">3,8%  (2–5 von 89)</text><text x="72" y="829.0" text-anchor="end" font-family="Arial, sans-serif" font-size="13" fill="#83888d">14.</text><text x="114" y="810.0" font-family="Arial, sans-serif" font-size="14" fill="#202124">Tapasitos restaurante y bar</text><rect x="114" y="814.0" width="86.8" height="18" fill="#c9332c"/><text x="208.8" y="829.0" font-family="Arial, sans-serif" font-size="13" fill="#202124">3,1%  (51–100 von 2.365)</text><text x="72" y="865.0" text-anchor="end" font-family="Arial, sans-serif" font-size="13" fill="#83888d">15.</text><text x="114" y="846.0" font-family="Arial, sans-serif" font-size="14" fill="#202124">Nürnberger Döner</text><rect x="114" y="850.0" width="80.1" height="18" fill="#c9332c"/><text x="202.1" y="865.0" font-family="Arial, sans-serif" font-size="13" fill="#202124">2,9%  (21–50 von 1.211)</text><text x="72" y="901.0" text-anchor="end" font-family="Arial, sans-serif" font-size="13" fill="#83888d">16.</text><text x="114" y="882.0" font-family="Arial, sans-serif" font-size="14" fill="#202124">Oggi Trattoria della Nonna</text><rect x="114" y="886.0" width="67.1" height="18" fill="#c9332c"/><text x="189.1" y="901.0" font-family="Arial, sans-serif" font-size="13" fill="#202124">2,4%  (11–20 von 634)</text><text x="72" y="937.0" text-anchor="end" font-family="Arial, sans-serif" font-size="13" fill="#83888d">17.</text><text x="114" y="918.0" font-family="Arial, sans-serif" font-size="14" fill="#202124">Jøwåy Nürnberg</text><rect x="114" y="922.0" width="61.2" height="18" fill="#c9332c"/><text x="183.2" y="937.0" font-family="Arial, sans-serif" font-size="13" fill="#202124">2,2%  (2–5 von 157)</text><text x="72" y="973.0" text-anchor="end" font-family="Arial, sans-serif" font-size="13" fill="#83888d">18.</text><text x="114" y="954.0" font-family="Arial, sans-serif" font-size="14" fill="#202124">Casa Argentina</text><rect x="114" y="958.0" width="57.6" height="18" fill="#c9332c"/><text x="179.6" y="973.0" font-family="Arial, sans-serif" font-size="13" fill="#202124">2,0%  (21–50 von 1.696)</text><text x="72" y="1009.0" text-anchor="end" font-family="Arial, sans-serif" font-size="13" fill="#83888d">19.</text><text x="114" y="990.0" font-family="Arial, sans-serif" font-size="14" fill="#202124">The Hummus Connection</text><rect x="114" y="994.0" width="54.8" height="18" fill="#c9332c"/><text x="176.8" y="1009.0" font-family="Arial, sans-serif" font-size="13" fill="#202124">1,9%  (11–20 von 781)</text><text x="72" y="1045.0" text-anchor="end" font-family="Arial, sans-serif" font-size="13" fill="#83888d">20.</text><text x="114" y="1026.0" font-family="Arial, sans-serif" font-size="14" fill="#202124">Lebe Gesund: Bäckerei &amp; vegane Bio-Lebensmit…</text><rect x="114" y="1030.0" width="47.5" height="18" fill="#c9332c"/><text x="169.5" y="1045.0" font-family="Arial, sans-serif" font-size="13" fill="#202124">1,7%  (1 von 58)</text><text x="72" y="1081.0" text-anchor="end" font-family="Arial, sans-serif" font-size="13" fill="#83888d">21.</text><text x="114" y="1062.0" font-family="Arial, sans-serif" font-size="14" fill="#202124">Wirtshaus Albrecht</text><rect x="114" y="1066.0" width="45.5" height="18" fill="#c9332c"/><text x="167.5" y="1081.0" font-family="Arial, sans-serif" font-size="13" fill="#202124">1,6%  (2–5 von 212)</text><text x="72" y="1117.0" text-anchor="end" font-family="Arial, sans-serif" font-size="13" fill="#83888d">22.</text><text x="114" y="1098.0" font-family="Arial, sans-serif" font-size="14" fill="#202124">FIVE Diner I Obstmarkt 5</text><rect x="114" y="1102.0" width="34.8" height="18" fill="#c9332c"/><text x="156.8" y="1117.0" font-family="Arial, sans-serif" font-size="13" fill="#202124">1,2%  (21–50 von 2.827)</text><text x="72" y="1153.0" text-anchor="end" font-family="Arial, sans-serif" font-size="13" fill="#83888d">23.</text><text x="114" y="1134.0" font-family="Arial, sans-serif" font-size="14" fill="#202124">Pintxos bodega y café</text><rect x="114" y="1138.0" width="33.7" height="18" fill="#c9332c"/><text x="155.7" y="1153.0" font-family="Arial, sans-serif" font-size="13" fill="#202124">1,2%  (1 von 82)</text><text x="72" y="1189.0" text-anchor="end" font-family="Arial, sans-serif" font-size="13" fill="#83888d">24.</text><text x="114" y="1170.0" font-family="Arial, sans-serif" font-size="14" fill="#202124">Zeit &amp; Raum</text><rect x="114" y="1174.0" width="32.3" height="18" fill="#c9332c"/><text x="154.3" y="1189.0" font-family="Arial, sans-serif" font-size="13" fill="#202124">1,1%  (11–20 von 1.333)</text><text x="72" y="1225.0" text-anchor="end" font-family="Arial, sans-serif" font-size="13" fill="#83888d">25.</text><text x="114" y="1206.0" font-family="Arial, sans-serif" font-size="14" fill="#202124">dieroteBar</text><rect x="114" y="1210.0" width="28.7" height="18" fill="#c9332c"/><text x="150.7" y="1225.0" font-family="Arial, sans-serif" font-size="13" fill="#202124">1,0%  (6–10 von 780)</text><text x="72" y="1261.0" text-anchor="end" font-family="Arial, sans-serif" font-size="13" fill="#83888d">26.</text><text x="114" y="1242.0" font-family="Arial, sans-serif" font-size="14" fill="#202124">Taqueria Cantina la Lucha city</text><rect x="114" y="1246.0" width="25.6" height="18" fill="#c9332c"/><text x="147.6" y="1261.0" font-family="Arial, sans-serif" font-size="13" fill="#202124">0,9%  (6–10 von 874)</text><text x="72" y="1297.0" text-anchor="end" font-family="Arial, sans-serif" font-size="13" fill="#83888d">27.</text><text x="114" y="1278.0" font-family="Arial, sans-serif" font-size="14" fill="#202124">Caf(f)e Centrale Constantine</text><rect x="114" y="1282.0" width="23.9" height="18" fill="#c9332c"/><text x="145.9" y="1297.0" font-family="Arial, sans-serif" font-size="13" fill="#202124">0,8%  (2–5 von 408)</text><text x="72" y="1333.0" text-anchor="end" font-family="Arial, sans-serif" font-size="13" fill="#83888d">28.</text><text x="114" y="1314.0" font-family="Arial, sans-serif" font-size="14" fill="#202124">Travolta Nürnberg</text><rect x="114" y="1318.0" width="13.2" height="18" fill="#c9332c"/><text x="135.2" y="1333.0" font-family="Arial, sans-serif" font-size="13" fill="#202124">0,5%  (11–20 von 3.261)</text><text x="72" y="1369.0" text-anchor="end" font-family="Arial, sans-serif" font-size="13" fill="#83888d">29.</text><text x="114" y="1350.0" font-family="Arial, sans-serif" font-size="14" fill="#202124">Indisches Restaurant Ganesha Nürnberg</text><rect x="114" y="1354.0" width="12.4" height="18" fill="#c9332c"/><text x="134.4" y="1369.0" font-family="Arial, sans-serif" font-size="13" fill="#202124">0,4%  (6–10 von 1.814)</text><text x="72" y="1405.0" text-anchor="end" font-family="Arial, sans-serif" font-size="13" fill="#83888d">30.</text><text x="114" y="1386.0" font-family="Arial, sans-serif" font-size="14" fill="#202124">Karl August - a Neighborhood Hotel</text><rect x="114" y="1390.0" width="7.9" height="18" fill="#c9332c"/><text x="129.9" y="1405.0" font-family="Arial, sans-serif" font-size="13" fill="#202124">0,3%  (2–5 von 1.253)</text><text x="315" y="1444.0" text-anchor="middle" font-family="Arial, sans-serif" font-size="13" fill="#6f7377">Lösch-Quote (%) · Top 30</text></g><g><text x="665" y="230" font-family="Arial, sans-serif" font-size="27" font-weight="800" fill="#202124">2. Schlechtestes „echtes“ Rating</text><text x="665" y="260" font-family="Arial, sans-serif" font-size="16" fill="#6f7377">Modell: gelöschte Rezensionen waren 1★</text><rect x="665" y="322" width="470" height="1104" fill="#ffffff" opacity="0.96" filter="url(#softShadow)"/><line x1="699.0" y1="322" x2="699.0" y2="1406.0" stroke="#dde3e8" stroke-width="1"/><line x1="799.5" y1="322" x2="799.5" y2="1406.0" stroke="#dde3e8" stroke-width="1"/><line x1="900.0" y1="322" x2="900.0" y2="1406.0" stroke="#dde3e8" stroke-width="1"/><line x1="1000.5" y1="322" x2="1000.5" y2="1406.0" stroke="#dde3e8" stroke-width="1"/><line x1="1101.0" y1="322" x2="1101.0" y2="1406.0" stroke="#dde3e8" stroke-width="1"/><text x="657" y="361.0" text-anchor="end" font-family="Arial, sans-serif" font-size="13" fill="#83888d">1.</text><text x="699" y="342.0" font-family="Arial, sans-serif" font-size="14" fill="#202124">Espressolab</text><rect x="699" y="346.0" width="402.0" height="18" fill="#ef7d16"/><text x="1109.0" y="361.0" font-family="Arial, sans-serif" font-size="13" fill="#202124">3,97★  (vorher 4,3★)</text><text x="657" y="397.0" text-anchor="end" font-family="Arial, sans-serif" font-size="13" fill="#83888d">2.</text><text x="699" y="378.0" font-family="Arial, sans-serif" font-size="14" fill="#202124">MOGGI Asian Kitchen &amp; Bar GmbH</text><rect x="699" y="382.0" width="373.9" height="18" fill="#ef7d16"/><text x="1080.9" y="397.0" font-family="Arial, sans-serif" font-size="13" fill="#202124">4,04★  (vorher 4,5★)</text><text x="657" y="433.0" text-anchor="end" font-family="Arial, sans-serif" font-size="13" fill="#83888d">3.</text><text x="699" y="414.0" font-family="Arial, sans-serif" font-size="14" fill="#202124">PROVENZA Trattoria Italia Ristorante Pizzeria</text><rect x="699" y="418.0" width="357.1" height="18" fill="#ef7d16"/><text x="1064.1" y="433.0" font-family="Arial, sans-serif" font-size="13" fill="#202124">4,08★  (vorher 4,6★)</text><text x="657" y="469.0" text-anchor="end" font-family="Arial, sans-serif" font-size="13" fill="#83888d">4.</text><text x="699" y="450.0" font-family="Arial, sans-serif" font-size="14" fill="#202124">Bratwurst Röslein</text><rect x="699" y="454.0" width="351.7" height="18" fill="#ef7d16"/><text x="1058.7" y="469.0" font-family="Arial, sans-serif" font-size="13" fill="#202124">4,10★  (vorher 4,1★)</text><text x="657" y="505.0" text-anchor="end" font-family="Arial, sans-serif" font-size="13" fill="#83888d">5.</text><text x="699" y="486.0" font-family="Arial, sans-serif" font-size="14" fill="#202124">dasPaul Restaurant &amp; Hotel</text><rect x="699" y="490.0" width="329.0" height="18" fill="#ef7d16"/><text x="1036.0" y="505.0" font-family="Arial, sans-serif" font-size="13" fill="#202124">4,16★  (vorher 4,3★)</text><text x="657" y="541.0" text-anchor="end" font-family="Arial, sans-serif" font-size="13" fill="#83888d">6.</text><text x="699" y="522.0" font-family="Arial, sans-serif" font-size="14" fill="#202124">Orko</text><rect x="699" y="526.0" width="267.3" height="18" fill="#ef7d16"/><text x="974.3" y="541.0" font-family="Arial, sans-serif" font-size="13" fill="#202124">4,32★  (vorher 4,6★)</text><text x="657" y="577.0" text-anchor="end" font-family="Arial, sans-serif" font-size="13" fill="#83888d">7.</text><text x="699" y="558.0" font-family="Arial, sans-serif" font-size="14" fill="#202124">Wirtshaus Albrecht</text><rect x="699" y="562.0" width="255.6" height="18" fill="#ef7d16"/><text x="962.6" y="577.0" font-family="Arial, sans-serif" font-size="13" fill="#202124">4,34★  (vorher 4,4★)</text><text x="657" y="613.0" text-anchor="end" font-family="Arial, sans-serif" font-size="13" fill="#83888d">8.</text><text x="699" y="594.0" font-family="Arial, sans-serif" font-size="14" fill="#202124">Restaurant Oberkrainer am Hauptmarkt</text><rect x="699" y="598.0" width="245.9" height="18" fill="#ef7d16"/><text x="952.9" y="613.0" font-family="Arial, sans-serif" font-size="13" fill="#202124">4,37★  (vorher 4,7★)</text><text x="657" y="649.0" text-anchor="end" font-family="Arial, sans-serif" font-size="13" fill="#83888d">9.</text><text x="699" y="630.0" font-family="Arial, sans-serif" font-size="14" fill="#202124">Mam-Mam Burger</text><rect x="699" y="634.0" width="223.2" height="18" fill="#ef7d16"/><text x="930.2" y="649.0" font-family="Arial, sans-serif" font-size="13" fill="#202124">4,43★  (vorher 4,7★)</text><text x="657" y="685.0" text-anchor="end" font-family="Arial, sans-serif" font-size="13" fill="#83888d">10.</text><text x="699" y="666.0" font-family="Arial, sans-serif" font-size="14" fill="#202124">Lebe Gesund: Bäckerei &amp; vegane Bio-Lebensmit…</text><rect x="699" y="670.0" width="218.2" height="18" fill="#ef7d16"/><text x="925.2" y="685.0" font-family="Arial, sans-serif" font-size="13" fill="#202124">4,44★  (vorher 4,5★)</text><text x="657" y="721.0" text-anchor="end" font-family="Arial, sans-serif" font-size="13" fill="#83888d">11.</text><text x="699" y="702.0" font-family="Arial, sans-serif" font-size="14" fill="#202124">Burg Café Beer</text><rect x="699" y="706.0" width="214.3" height="18" fill="#ef7d16"/><text x="921.3" y="721.0" font-family="Arial, sans-serif" font-size="13" fill="#202124">4,45★  (vorher 4,7★)</text><text x="657" y="757.0" text-anchor="end" font-family="Arial, sans-serif" font-size="13" fill="#83888d">12.</text><text x="699" y="738.0" font-family="Arial, sans-serif" font-size="14" fill="#202124">Zeit &amp; Raum</text><rect x="699" y="742.0" width="210.8" height="18" fill="#ef7d16"/><text x="917.8" y="757.0" font-family="Arial, sans-serif" font-size="13" fill="#202124">4,46★  (vorher 4,5★)</text><text x="657" y="793.0" text-anchor="end" font-family="Arial, sans-serif" font-size="13" fill="#83888d">13.</text><text x="699" y="774.0" font-family="Arial, sans-serif" font-size="14" fill="#202124">dieroteBar</text><rect x="699" y="778.0" width="209.2" height="18" fill="#ef7d16"/><text x="916.2" y="793.0" font-family="Arial, sans-serif" font-size="13" fill="#202124">4,46★  (vorher 4,5★)</text><text x="657" y="829.0" text-anchor="end" font-family="Arial, sans-serif" font-size="13" fill="#83888d">14.</text><text x="699" y="810.0" font-family="Arial, sans-serif" font-size="14" fill="#202124">cia‘s</text><rect x="699" y="814.0" width="200.6" height="18" fill="#ef7d16"/><text x="907.6" y="829.0" font-family="Arial, sans-serif" font-size="13" fill="#202124">4,49★  (vorher 4,7★)</text><text x="657" y="865.0" text-anchor="end" font-family="Arial, sans-serif" font-size="13" fill="#83888d">15.</text><text x="699" y="846.0" font-family="Arial, sans-serif" font-size="14" fill="#202124">Tapasitos restaurante y bar</text><rect x="699" y="850.0" width="199.4" height="18" fill="#ef7d16"/><text x="906.4" y="865.0" font-family="Arial, sans-serif" font-size="13" fill="#202124">4,49★  (vorher 4,6★)</text><text x="657" y="901.0" text-anchor="end" font-family="Arial, sans-serif" font-size="13" fill="#83888d">16.</text><text x="699" y="882.0" font-family="Arial, sans-serif" font-size="14" fill="#202124">Oggi Trattoria della Nonna</text><rect x="699" y="886.0" width="189.7" height="18" fill="#ef7d16"/><text x="896.7" y="901.0" font-family="Arial, sans-serif" font-size="13" fill="#202124">4,51★  (vorher 4,6★)</text><text x="657" y="937.0" text-anchor="end" font-family="Arial, sans-serif" font-size="13" fill="#83888d">17.</text><text x="699" y="918.0" font-family="Arial, sans-serif" font-size="14" fill="#202124">CôCô – Indochine Sushi Nürnberg</text><rect x="699" y="922.0" width="183.4" height="18" fill="#ef7d16"/><text x="890.4" y="937.0" font-family="Arial, sans-serif" font-size="13" fill="#202124">4,53★  (vorher 4,8★)</text><text x="657" y="973.0" text-anchor="end" font-family="Arial, sans-serif" font-size="13" fill="#83888d">18.</text><text x="699" y="954.0" font-family="Arial, sans-serif" font-size="14" fill="#202124">Lange Kante 16</text><rect x="699" y="958.0" width="179.9" height="18" fill="#ef7d16"/><text x="886.9" y="973.0" font-family="Arial, sans-serif" font-size="13" fill="#202124">4,54★  (vorher 4,9★)</text><text x="657" y="1009.0" text-anchor="end" font-family="Arial, sans-serif" font-size="13" fill="#83888d">19.</text><text x="699" y="990.0" font-family="Arial, sans-serif" font-size="14" fill="#202124">KARL - Wein trifft feine Küche</text><rect x="699" y="994.0" width="171.7" height="18" fill="#ef7d16"/><text x="878.7" y="1009.0" font-family="Arial, sans-serif" font-size="13" fill="#202124">4,56★  (vorher 4,7★)</text><text x="657" y="1045.0" text-anchor="end" font-family="Arial, sans-serif" font-size="13" fill="#83888d">20.</text><text x="699" y="1026.0" font-family="Arial, sans-serif" font-size="14" fill="#202124">Taqueria Cantina la Lucha city</text><rect x="699" y="1030.0" width="169.0" height="18" fill="#ef7d16"/><text x="876.0" y="1045.0" font-family="Arial, sans-serif" font-size="13" fill="#202124">4,57★  (vorher 4,6★)</text><text x="657" y="1081.0" text-anchor="end" font-family="Arial, sans-serif" font-size="13" fill="#83888d">21.</text><text x="699" y="1062.0" font-family="Arial, sans-serif" font-size="14" fill="#202124">globo Restaurant</text><rect x="699" y="1066.0" width="169.0" height="18" fill="#ef7d16"/><text x="876.0" y="1081.0" font-family="Arial, sans-serif" font-size="13" fill="#202124">4,57★  (vorher 4,8★)</text><text x="657" y="1117.0" text-anchor="end" font-family="Arial, sans-serif" font-size="13" fill="#83888d">22.</text><text x="699" y="1098.0" font-family="Arial, sans-serif" font-size="14" fill="#202124">FIVE Diner I Obstmarkt 5</text><rect x="699" y="1102.0" width="135.0" height="18" fill="#ef7d16"/><text x="842.0" y="1117.0" font-family="Arial, sans-serif" font-size="13" fill="#202124">4,65★  (vorher 4,7★)</text><text x="657" y="1153.0" text-anchor="end" font-family="Arial, sans-serif" font-size="13" fill="#83888d">23.</text><text x="699" y="1134.0" font-family="Arial, sans-serif" font-size="14" fill="#202124">Travolta Nürnberg</text><rect x="699" y="1138.0" width="124.1" height="18" fill="#ef7d16"/><text x="831.1" y="1153.0" font-family="Arial, sans-serif" font-size="13" fill="#202124">4,68★  (vorher 4,7★)</text><text x="657" y="1189.0" text-anchor="end" font-family="Arial, sans-serif" font-size="13" fill="#83888d">24.</text><text x="699" y="1170.0" font-family="Arial, sans-serif" font-size="14" fill="#202124">Karl August - a Neighborhood Hotel</text><rect x="699" y="1174.0" width="121.0" height="18" fill="#ef7d16"/><text x="828.0" y="1189.0" font-family="Arial, sans-serif" font-size="13" fill="#202124">4,69★  (vorher 4,7★)</text><text x="657" y="1225.0" text-anchor="end" font-family="Arial, sans-serif" font-size="13" fill="#83888d">25.</text><text x="699" y="1206.0" font-family="Arial, sans-serif" font-size="14" fill="#202124">The Hummus Connection</text><rect x="699" y="1210.0" width="106.9" height="18" fill="#ef7d16"/><text x="813.9" y="1225.0" font-family="Arial, sans-serif" font-size="13" fill="#202124">4,73★  (vorher 4,8★)</text><text x="657" y="1261.0" text-anchor="end" font-family="Arial, sans-serif" font-size="13" fill="#83888d">26.</text><text x="699" y="1242.0" font-family="Arial, sans-serif" font-size="14" fill="#202124">Pintxos bodega y café</text><rect x="699" y="1246.0" width="96.0" height="18" fill="#ef7d16"/><text x="803.0" y="1261.0" font-family="Arial, sans-serif" font-size="13" fill="#202124">4,75★  (vorher 4,8★)</text><text x="657" y="1297.0" text-anchor="end" font-family="Arial, sans-serif" font-size="13" fill="#83888d">27.</text><text x="699" y="1278.0" font-family="Arial, sans-serif" font-size="14" fill="#202124">Caf(f)e Centrale Constantine</text><rect x="699" y="1282.0" width="90.5" height="18" fill="#ef7d16"/><text x="797.5" y="1297.0" font-family="Arial, sans-serif" font-size="13" fill="#202124">4,77★  (vorher 4,8★)</text><text x="657" y="1333.0" text-anchor="end" font-family="Arial, sans-serif" font-size="13" fill="#83888d">28.</text><text x="699" y="1314.0" font-family="Arial, sans-serif" font-size="14" fill="#202124">Indisches Restaurant Ganesha Nürnberg</text><rect x="699" y="1318.0" width="84.7" height="18" fill="#ef7d16"/><text x="791.7" y="1333.0" font-family="Arial, sans-serif" font-size="13" fill="#202124">4,78★  (vorher 4,8★)</text><text x="657" y="1369.0" text-anchor="end" font-family="Arial, sans-serif" font-size="13" fill="#83888d">29.</text><text x="699" y="1350.0" font-family="Arial, sans-serif" font-size="14" fill="#202124">Nürnberger Döner</text><rect x="699" y="1354.0" width="82.4" height="18" fill="#ef7d16"/><text x="789.4" y="1369.0" font-family="Arial, sans-serif" font-size="13" fill="#202124">4,79★  (vorher 4,9★)</text><text x="657" y="1405.0" text-anchor="end" font-family="Arial, sans-serif" font-size="13" fill="#83888d">30.</text><text x="699" y="1386.0" font-family="Arial, sans-serif" font-size="14" fill="#202124">Jøwåy Nürnberg</text><rect x="699" y="1390.0" width="72.2" height="18" fill="#ef7d16"/><text x="779.2" y="1405.0" font-family="Arial, sans-serif" font-size="13" fill="#202124">4,82★  (vorher 4,9★)</text><text x="900" y="1444.0" text-anchor="middle" font-family="Arial, sans-serif" font-size="13" fill="#6f7377">Punkte unter 5★</text></g><g><text x="1250" y="230" font-family="Arial, sans-serif" font-size="27" font-weight="800" fill="#202124">3. Beste Orte ohne Löschbanner</text><text x="1250" y="260" font-family="Arial, sans-serif" font-size="16" fill="#6f7377">kein sichtbarer Diffamierungs-Löschbanner — ab 100 Rezensionen</text><rect x="1250" y="322" width="470" height="1104" fill="#ffffff" opacity="0.96" filter="url(#softShadow)"/><line x1="1284.0" y1="322" x2="1284.0" y2="1406.0" stroke="#dde3e8" stroke-width="1"/><line x1="1384.5" y1="322" x2="1384.5" y2="1406.0" stroke="#dde3e8" stroke-width="1"/><line x1="1485.0" y1="322" x2="1485.0" y2="1406.0" stroke="#dde3e8" stroke-width="1"/><line x1="1585.5" y1="322" x2="1585.5" y2="1406.0" stroke="#dde3e8" stroke-width="1"/><line x1="1686.0" y1="322" x2="1686.0" y2="1406.0" stroke="#dde3e8" stroke-width="1"/><text x="1242" y="361.0" text-anchor="end" font-family="Arial, sans-serif" font-size="13" fill="#83888d">1.</text><text x="1284" y="342.0" font-family="Arial, sans-serif" font-size="14" fill="#202124">Santos DOS Tapas Bodega Restaurante</text><rect x="1284" y="346.0" width="402.0" height="18" fill="#2e7d32"/><text x="1694.0" y="361.0" font-family="Arial, sans-serif" font-size="13" fill="#202124">5,0★  (127 Rezensionen)</text><text x="1242" y="397.0" text-anchor="end" font-family="Arial, sans-serif" font-size="13" fill="#83888d">2.</text><text x="1284" y="378.0" font-family="Arial, sans-serif" font-size="14" fill="#202124">Café &amp; Bar Central Nürnberg Poke Bowl Pasta …</text><rect x="1284" y="382.0" width="394.0" height="18" fill="#2e7d32"/><text x="1686.0" y="397.0" font-family="Arial, sans-serif" font-size="13" fill="#202124">4,9★  (1.164 Rezensionen)</text><text x="1242" y="433.0" text-anchor="end" font-family="Arial, sans-serif" font-size="13" fill="#83888d">3.</text><text x="1284" y="414.0" font-family="Arial, sans-serif" font-size="14" fill="#202124">Pasha Kebab</text><rect x="1284" y="418.0" width="394.0" height="18" fill="#2e7d32"/><text x="1686.0" y="433.0" font-family="Arial, sans-serif" font-size="13" fill="#202124">4,9★  (666 Rezensionen)</text><text x="1242" y="469.0" text-anchor="end" font-family="Arial, sans-serif" font-size="13" fill="#83888d">4.</text><text x="1284" y="450.0" font-family="Arial, sans-serif" font-size="14" fill="#202124">odilia - Süßes aus der Natur</text><rect x="1284" y="454.0" width="394.0" height="18" fill="#2e7d32"/><text x="1686.0" y="469.0" font-family="Arial, sans-serif" font-size="13" fill="#202124">4,9★  (506 Rezensionen)</text><text x="1242" y="505.0" text-anchor="end" font-family="Arial, sans-serif" font-size="13" fill="#83888d">5.</text><text x="1284" y="486.0" font-family="Arial, sans-serif" font-size="14" fill="#202124">Café Brasserie Sebald</text><rect x="1284" y="490.0" width="394.0" height="18" fill="#2e7d32"/><text x="1686.0" y="505.0" font-family="Arial, sans-serif" font-size="13" fill="#202124">4,9★  (454 Rezensionen)</text><text x="1242" y="541.0" text-anchor="end" font-family="Arial, sans-serif" font-size="13" fill="#83888d">6.</text><text x="1284" y="522.0" font-family="Arial, sans-serif" font-size="14" fill="#202124">Momo&#39;s Streetfood</text><rect x="1284" y="526.0" width="394.0" height="18" fill="#2e7d32"/><text x="1686.0" y="541.0" font-family="Arial, sans-serif" font-size="13" fill="#202124">4,9★  (379 Rezensionen)</text><text x="1242" y="577.0" text-anchor="end" font-family="Arial, sans-serif" font-size="13" fill="#83888d">7.</text><text x="1284" y="558.0" font-family="Arial, sans-serif" font-size="14" fill="#202124">Naples by Matteo</text><rect x="1284" y="562.0" width="394.0" height="18" fill="#2e7d32"/><text x="1686.0" y="577.0" font-family="Arial, sans-serif" font-size="13" fill="#202124">4,9★  (258 Rezensionen)</text><text x="1242" y="613.0" text-anchor="end" font-family="Arial, sans-serif" font-size="13" fill="#83888d">8.</text><text x="1284" y="594.0" font-family="Arial, sans-serif" font-size="14" fill="#202124">Ristorantino VALLUCCI - italienisches Restau…</text><rect x="1284" y="598.0" width="394.0" height="18" fill="#2e7d32"/><text x="1686.0" y="613.0" font-family="Arial, sans-serif" font-size="13" fill="#202124">4,9★  (159 Rezensionen)</text><text x="1242" y="649.0" text-anchor="end" font-family="Arial, sans-serif" font-size="13" fill="#83888d">9.</text><text x="1284" y="630.0" font-family="Arial, sans-serif" font-size="14" fill="#202124">Tisane</text><rect x="1284" y="634.0" width="394.0" height="18" fill="#2e7d32"/><text x="1686.0" y="649.0" font-family="Arial, sans-serif" font-size="13" fill="#202124">4,9★  (116 Rezensionen)</text><text x="1242" y="685.0" text-anchor="end" font-family="Arial, sans-serif" font-size="13" fill="#83888d">10.</text><text x="1284" y="666.0" font-family="Arial, sans-serif" font-size="14" fill="#202124">Restaurant Moki Asian Cuisine &amp; Sushi - Nürn…</text><rect x="1284" y="670.0" width="385.9" height="18" fill="#2e7d32"/><text x="1677.9" y="685.0" font-family="Arial, sans-serif" font-size="13" fill="#202124">4,8★  (1.126 Rezensionen)</text><text x="1242" y="721.0" text-anchor="end" font-family="Arial, sans-serif" font-size="13" fill="#83888d">11.</text><text x="1284" y="702.0" font-family="Arial, sans-serif" font-size="14" fill="#202124">Surrito - Sushi Burrito und Bento</text><rect x="1284" y="706.0" width="385.9" height="18" fill="#2e7d32"/><text x="1677.9" y="721.0" font-family="Arial, sans-serif" font-size="13" fill="#202124">4,8★  (831 Rezensionen)</text><text x="1242" y="757.0" text-anchor="end" font-family="Arial, sans-serif" font-size="13" fill="#83888d">12.</text><text x="1284" y="738.0" font-family="Arial, sans-serif" font-size="14" fill="#202124">Ly&#39;s Kitchen</text><rect x="1284" y="742.0" width="385.9" height="18" fill="#2e7d32"/><text x="1677.9" y="757.0" font-family="Arial, sans-serif" font-size="13" fill="#202124">4,8★  (614 Rezensionen)</text><text x="1242" y="793.0" text-anchor="end" font-family="Arial, sans-serif" font-size="13" fill="#83888d">13.</text><text x="1284" y="774.0" font-family="Arial, sans-serif" font-size="14" fill="#202124">Moon Asian Restaurant Nürnberg</text><rect x="1284" y="778.0" width="385.9" height="18" fill="#2e7d32"/><text x="1677.9" y="793.0" font-family="Arial, sans-serif" font-size="13" fill="#202124">4,8★  (566 Rezensionen)</text><text x="1242" y="829.0" text-anchor="end" font-family="Arial, sans-serif" font-size="13" fill="#83888d">14.</text><text x="1284" y="810.0" font-family="Arial, sans-serif" font-size="14" fill="#202124">Dürrer Hase Restaurant</text><rect x="1284" y="814.0" width="385.9" height="18" fill="#2e7d32"/><text x="1677.9" y="829.0" font-family="Arial, sans-serif" font-size="13" fill="#202124">4,8★  (482 Rezensionen)</text><text x="1242" y="865.0" text-anchor="end" font-family="Arial, sans-serif" font-size="13" fill="#83888d">15.</text><text x="1284" y="846.0" font-family="Arial, sans-serif" font-size="14" fill="#202124">Essigbrätlein</text><rect x="1284" y="850.0" width="385.9" height="18" fill="#2e7d32"/><text x="1677.9" y="865.0" font-family="Arial, sans-serif" font-size="13" fill="#202124">4,8★  (477 Rezensionen)</text><text x="1242" y="901.0" text-anchor="end" font-family="Arial, sans-serif" font-size="13" fill="#83888d">16.</text><text x="1284" y="882.0" font-family="Arial, sans-serif" font-size="14" fill="#202124">NEST COFFEE</text><rect x="1284" y="886.0" width="385.9" height="18" fill="#2e7d32"/><text x="1677.9" y="901.0" font-family="Arial, sans-serif" font-size="13" fill="#202124">4,8★  (365 Rezensionen)</text><text x="1242" y="937.0" text-anchor="end" font-family="Arial, sans-serif" font-size="13" fill="#83888d">17.</text><text x="1284" y="918.0" font-family="Arial, sans-serif" font-size="14" fill="#202124">Amore é Sapore - Osteria da Giulia</text><rect x="1284" y="922.0" width="385.9" height="18" fill="#2e7d32"/><text x="1677.9" y="937.0" font-family="Arial, sans-serif" font-size="13" fill="#202124">4,8★  (315 Rezensionen)</text><text x="1242" y="973.0" text-anchor="end" font-family="Arial, sans-serif" font-size="13" fill="#83888d">18.</text><text x="1284" y="954.0" font-family="Arial, sans-serif" font-size="14" fill="#202124">Zum Fenster</text><rect x="1284" y="958.0" width="385.9" height="18" fill="#2e7d32"/><text x="1677.9" y="973.0" font-family="Arial, sans-serif" font-size="13" fill="#202124">4,8★  (303 Rezensionen)</text><text x="1242" y="1009.0" text-anchor="end" font-family="Arial, sans-serif" font-size="13" fill="#83888d">19.</text><text x="1284" y="990.0" font-family="Arial, sans-serif" font-size="14" fill="#202124">Halt die Waffel Eisdiele &amp; Café</text><rect x="1284" y="994.0" width="385.9" height="18" fill="#2e7d32"/><text x="1677.9" y="1009.0" font-family="Arial, sans-serif" font-size="13" fill="#202124">4,8★  (285 Rezensionen)</text><text x="1242" y="1045.0" text-anchor="end" font-family="Arial, sans-serif" font-size="13" fill="#83888d">20.</text><text x="1284" y="1026.0" font-family="Arial, sans-serif" font-size="14" fill="#202124">Machiko Sushi &amp; Chicky rice</text><rect x="1284" y="1030.0" width="385.9" height="18" fill="#2e7d32"/><text x="1677.9" y="1045.0" font-family="Arial, sans-serif" font-size="13" fill="#202124">4,8★  (171 Rezensionen)</text><text x="1242" y="1081.0" text-anchor="end" font-family="Arial, sans-serif" font-size="13" fill="#83888d">21.</text><text x="1284" y="1062.0" font-family="Arial, sans-serif" font-size="14" fill="#202124">Bar Biene</text><rect x="1284" y="1066.0" width="385.9" height="18" fill="#2e7d32"/><text x="1677.9" y="1081.0" font-family="Arial, sans-serif" font-size="13" fill="#202124">4,8★  (162 Rezensionen)</text><text x="1242" y="1117.0" text-anchor="end" font-family="Arial, sans-serif" font-size="13" fill="#83888d">22.</text><text x="1284" y="1098.0" font-family="Arial, sans-serif" font-size="14" fill="#202124">Chai Roti Nürnberg</text><rect x="1284" y="1102.0" width="385.9" height="18" fill="#2e7d32"/><text x="1677.9" y="1117.0" font-family="Arial, sans-serif" font-size="13" fill="#202124">4,8★  (129 Rezensionen)</text><text x="1242" y="1153.0" text-anchor="end" font-family="Arial, sans-serif" font-size="13" fill="#83888d">23.</text><text x="1284" y="1134.0" font-family="Arial, sans-serif" font-size="14" fill="#202124">Café Wanderer &amp; Bieramt</text><rect x="1284" y="1138.0" width="377.9" height="18" fill="#2e7d32"/><text x="1669.9" y="1153.0" font-family="Arial, sans-serif" font-size="13" fill="#202124">4,7★  (1.708 Rezensionen)</text><text x="1242" y="1189.0" text-anchor="end" font-family="Arial, sans-serif" font-size="13" fill="#83888d">24.</text><text x="1284" y="1170.0" font-family="Arial, sans-serif" font-size="14" fill="#202124">Finyas Taverne in der Altstadt</text><rect x="1284" y="1174.0" width="377.9" height="18" fill="#2e7d32"/><text x="1669.9" y="1189.0" font-family="Arial, sans-serif" font-size="13" fill="#202124">4,7★  (1.461 Rezensionen)</text><text x="1242" y="1225.0" text-anchor="end" font-family="Arial, sans-serif" font-size="13" fill="#83888d">25.</text><text x="1284" y="1206.0" font-family="Arial, sans-serif" font-size="14" fill="#202124">Die kleine Eismanufaktur</text><rect x="1284" y="1210.0" width="377.9" height="18" fill="#2e7d32"/><text x="1669.9" y="1225.0" font-family="Arial, sans-serif" font-size="13" fill="#202124">4,7★  (1.301 Rezensionen)</text><text x="1242" y="1261.0" text-anchor="end" font-family="Arial, sans-serif" font-size="13" fill="#83888d">26.</text><text x="1284" y="1242.0" font-family="Arial, sans-serif" font-size="14" fill="#202124">Die Blume von Hawaii - Cocktail Bar Nürnberg</text><rect x="1284" y="1246.0" width="377.9" height="18" fill="#2e7d32"/><text x="1669.9" y="1261.0" font-family="Arial, sans-serif" font-size="13" fill="#202124">4,7★  (841 Rezensionen)</text><text x="1242" y="1297.0" text-anchor="end" font-family="Arial, sans-serif" font-size="13" fill="#83888d">27.</text><text x="1284" y="1278.0" font-family="Arial, sans-serif" font-size="14" fill="#202124">Mata Hari Bar</text><rect x="1284" y="1282.0" width="377.9" height="18" fill="#2e7d32"/><text x="1669.9" y="1297.0" font-family="Arial, sans-serif" font-size="13" fill="#202124">4,7★  (841 Rezensionen)</text><text x="1242" y="1333.0" text-anchor="end" font-family="Arial, sans-serif" font-size="13" fill="#83888d">28.</text><text x="1284" y="1314.0" font-family="Arial, sans-serif" font-size="14" fill="#202124">Kaffee Lebemann</text><rect x="1284" y="1318.0" width="377.9" height="18" fill="#2e7d32"/><text x="1669.9" y="1333.0" font-family="Arial, sans-serif" font-size="13" fill="#202124">4,7★  (696 Rezensionen)</text><text x="1242" y="1369.0" text-anchor="end" font-family="Arial, sans-serif" font-size="13" fill="#83888d">29.</text><text x="1284" y="1350.0" font-family="Arial, sans-serif" font-size="14" fill="#202124">Di Simo - caffè e vini</text><rect x="1284" y="1354.0" width="377.9" height="18" fill="#2e7d32"/><text x="1669.9" y="1369.0" font-family="Arial, sans-serif" font-size="13" fill="#202124">4,7★  (556 Rezensionen)</text><text x="1242" y="1405.0" text-anchor="end" font-family="Arial, sans-serif" font-size="13" fill="#83888d">30.</text><text x="1284" y="1386.0" font-family="Arial, sans-serif" font-size="14" fill="#202124">RIZZO Cafe con Paolo</text><rect x="1284" y="1390.0" width="377.9" height="18" fill="#2e7d32"/><text x="1669.9" y="1405.0" font-family="Arial, sans-serif" font-size="13" fill="#202124">4,7★  (532 Rezensionen)</text><text x="1485" y="1444.0" text-anchor="middle" font-family="Arial, sans-serif" font-size="13" fill="#6f7377">Rating (★)</text></g><g><text x="120" y="1660" font-family="Arial, sans-serif" font-size="28" font-weight="800" fill="#202124">Verteilung der Lösch-Stufen über alle 197 Orte</text><rect x="120" y="1715" width="1540" height="560" fill="#ffffff" opacity="0.96" filter="url(#softShadow)"/><text x="150" y="1781" font-family="Arial, sans-serif" font-size="18" fill="#202124">Keine Löschung</text><rect x="450" y="1765" width="900" height="24" fill="#edf2f5"/><rect x="450" y="1765" width="900.0" height="24" fill="#2e7d32"/><text x="1380" y="1783" font-family="Arial, sans-serif" font-size="18" fill="#202124">165 (83,8%)</text><text x="150" y="1826" font-family="Arial, sans-serif" font-size="18" fill="#202124">Eine gelöscht</text><rect x="450" y="1810" width="900" height="24" fill="#edf2f5"/><rect x="450" y="1810" width="10.9" height="24" fill="#8bc34a"/><text x="1380" y="1828" font-family="Arial, sans-serif" font-size="18" fill="#202124">2 (1,0%)</text><text x="150" y="1871" font-family="Arial, sans-serif" font-size="18" fill="#202124">2–5 gelöscht</text><rect x="450" y="1855" width="900" height="24" fill="#edf2f5"/><rect x="450" y="1855" width="32.7" height="24" fill="#cddc39"/><text x="1380" y="1873" font-family="Arial, sans-serif" font-size="18" fill="#202124">6 (3,0%)</text><text x="150" y="1916" font-family="Arial, sans-serif" font-size="18" fill="#202124">6–10 gelöscht</text><rect x="450" y="1900" width="900" height="24" fill="#edf2f5"/><rect x="450" y="1900" width="27.3" height="24" fill="#ffca28"/><text x="1380" y="1918" font-family="Arial, sans-serif" font-size="18" fill="#202124">5 (2,5%)</text><text x="150" y="1961" font-family="Arial, sans-serif" font-size="18" fill="#202124">11–20 gelöscht</text><rect x="450" y="1945" width="900" height="24" fill="#edf2f5"/><rect x="450" y="1945" width="32.7" height="24" fill="#ff9f1c"/><text x="1380" y="1963" font-family="Arial, sans-serif" font-size="18" fill="#202124">6 (3,0%)</text><text x="150" y="2006" font-family="Arial, sans-serif" font-size="18" fill="#202124">21–50 gelöscht</text><rect x="450" y="1990" width="900" height="24" fill="#edf2f5"/><rect x="450" y="1990" width="38.2" height="24" fill="#ff6d00"/><text x="1380" y="2008" font-family="Arial, sans-serif" font-size="18" fill="#202124">7 (3,6%)</text><text x="150" y="2051" font-family="Arial, sans-serif" font-size="18" fill="#202124">51–100 gelöscht</text><rect x="450" y="2035" width="900" height="24" fill="#edf2f5"/><rect x="450" y="2035" width="5.5" height="24" fill="#e5391b"/><text x="1380" y="2053" font-family="Arial, sans-serif" font-size="18" fill="#202124">1 (0,5%)</text><text x="150" y="2096" font-family="Arial, sans-serif" font-size="18" fill="#202124">101–200 gelöscht</text><rect x="450" y="2080" width="900" height="24" fill="#edf2f5"/><rect x="450" y="2080" width="16.4" height="24" fill="#c62828"/><text x="1380" y="2098" font-family="Arial, sans-serif" font-size="18" fill="#202124">3 (1,5%)</text><text x="150" y="2141" font-family="Arial, sans-serif" font-size="18" fill="#202124">201–250 gelöscht</text><rect x="450" y="2125" width="900" height="24" fill="#edf2f5"/><rect x="450" y="2125" width="0.0" height="24" fill="#8e1919"/><text x="1380" y="2143" font-family="Arial, sans-serif" font-size="18" fill="#202124">0 (0,0%)</text><text x="150" y="2186" font-family="Arial, sans-serif" font-size="18" fill="#202124">Über 250 gelöscht</text><rect x="450" y="2170" width="900" height="24" fill="#edf2f5"/><rect x="450" y="2170" width="10.9" height="24" fill="#5b0f0f"/><text x="1380" y="2188" font-family="Arial, sans-serif" font-size="18" fill="#202124">2 (1,0%)</text></g><text x="40" y="2460" font-family="Arial, sans-serif" font-size="13" fill="#8a8f94">Quelle: Google Maps, öffentlich sichtbare Banner; Analyse-Snapshot 02.05.2026</text><text x="1760" y="2460" text-anchor="end" font-family="Arial, sans-serif" font-size="13" fill="#8a8f94">generated by Go cmd/charts</text></svg>
