<svg xmlns="http://www.w3.org/2000/svg" width="1800" height="2500" viewBox="0 0 1800 2500">
  <defs>
    <linearGradient id="bg" x1="0" y1="0" x2="0" y2="1"><stop offset="0%" stop-color="#d9e8f2"/><stop offset="58%" stop-color="#eef6fa"/><stop offset="100%" stop-color="#d7dde2"/></linearGradient>
    <filter id="softShadow" x="-10%" y="-10%" width="120%" height="120%"><feDropShadow dx="0" dy="8" stdDeviation="10" flood-color="#6d7f8a" flood-opacity="0.16"/></filter>
  </defs>
  <rect width="100%" height="100%" fill="url(#bg)"/>
  <circle cx="1450" cy="310" r="500" fill="#ffffff" opacity="0.18"/>
  <circle cx="260" cy="2140" r="620" fill="#ffffff" opacity="0.20"/>
  <text x="900" y="70" text-anchor="middle" font-family="Arial, sans-serif" font-size="48" font-weight="800" fill="#202124">Postleitzahl 90402 — Nürnberg</text>
  <text x="900" y="112" text-anchor="middle" font-family="Arial, sans-serif" font-size="22" fill="#4b5055">Google-Maps-Orte: gelöschte Rezensionen wegen „Diffamierung“</text>
  <text x="900" y="160" text-anchor="middle" font-family="Arial, sans-serif" font-size="18" fill="#6f7377">197 Orte erfasst · 46 mit sichtbarem Banner (23,4%) · 1 in der „Über“-Stufe</text><g><text x="80" y="230" font-family="Arial, sans-serif" font-size="27" font-weight="800" fill="#202124">1. Höchste Lösch-Quote</text><text x="80" y="260" font-family="Arial, sans-serif" font-size="16" fill="#6f7377">Anteil gelöschter Rezensionen</text><rect x="80" y="322" width="470" height="1104" fill="#ffffff" opacity="0.96" filter="url(#softShadow)"/><line x1="114.0" y1="322" x2="114.0" y2="1406.0" stroke="#dde3e8" stroke-width="1"/><line x1="214.5" y1="322" x2="214.5" y2="1406.0" stroke="#dde3e8" stroke-width="1"/><line x1="315.0" y1="322" x2="315.0" y2="1406.0" stroke="#dde3e8" stroke-width="1"/><line x1="415.5" y1="322" x2="415.5" y2="1406.0" stroke="#dde3e8" stroke-width="1"/><line x1="516.0" y1="322" x2="516.0" y2="1406.0" stroke="#dde3e8" stroke-width="1"/><text x="72" y="361.0" text-anchor="end" font-family="Arial, sans-serif" font-size="13" fill="#83888d">1.</text><text x="114" y="342.0" font-family="Arial, sans-serif" font-size="14" fill="#202124">H&amp;B Döner</text><rect x="114" y="346.0" width="402.0" height="18" fill="#c9332c"/><text x="524.0" y="361.0" font-family="Arial, sans-serif" font-size="13" fill="#202124">22,3%  (51–100 von 263)</text><text x="72" y="397.0" text-anchor="end" font-family="Arial, sans-serif" font-size="13" fill="#83888d">2.</text><text x="114" y="378.0" font-family="Arial, sans-serif" font-size="14" fill="#202124">Kochlöffel</text><rect x="114" y="382.0" width="395.1" height="18" fill="#c9332c"/><text x="517.1" y="397.0" font-family="Arial, sans-serif" font-size="13" fill="#202124">21,9%  (101–150 von 447)</text><text x="72" y="433.0" text-anchor="end" font-family="Arial, sans-serif" font-size="13" fill="#83888d">3.</text><text x="114" y="414.0" font-family="Arial, sans-serif" font-size="14" fill="#202124">Schnitzery Nürnberg</text><rect x="114" y="418.0" width="395.1" height="18" fill="#c9332c"/><text x="517.1" y="433.0" font-family="Arial, sans-serif" font-size="13" fill="#202124">21,9%  (51–100 von 269)</text><text x="72" y="469.0" text-anchor="end" font-family="Arial, sans-serif" font-size="13" fill="#83888d">4.</text><text x="114" y="450.0" font-family="Arial, sans-serif" font-size="14" fill="#202124">Smack Burger</text><rect x="114" y="454.0" width="352.1" height="18" fill="#c9332c"/><text x="474.1" y="469.0" font-family="Arial, sans-serif" font-size="13" fill="#202124">19,5%  (51–100 von 311)</text><text x="72" y="505.0" text-anchor="end" font-family="Arial, sans-serif" font-size="13" fill="#83888d">5.</text><text x="114" y="486.0" font-family="Arial, sans-serif" font-size="14" fill="#202124">Urfa Dürüm Döner Nürnberg</text><rect x="114" y="490.0" width="338.2" height="18" fill="#c9332c"/><text x="460.2" y="505.0" font-family="Arial, sans-serif" font-size="13" fill="#202124">18,8%  (über 250 von 1.299)</text><text x="72" y="541.0" text-anchor="end" font-family="Arial, sans-serif" font-size="13" fill="#83888d">6.</text><text x="114" y="522.0" font-family="Arial, sans-serif" font-size="14" fill="#202124">Bat Dat - Asia Snacks</text><rect x="114" y="526.0" width="300.1" height="18" fill="#c9332c"/><text x="422.1" y="541.0" font-family="Arial, sans-serif" font-size="13" fill="#202124">16,6%  (51–100 von 378)</text><text x="72" y="577.0" text-anchor="end" font-family="Arial, sans-serif" font-size="13" fill="#83888d">7.</text><text x="114" y="558.0" font-family="Arial, sans-serif" font-size="14" fill="#202124">Steak Döner</text><rect x="114" y="562.0" width="290.2" height="18" fill="#c9332c"/><text x="412.2" y="577.0" font-family="Arial, sans-serif" font-size="13" fill="#202124">16,1%  (21–50 von 185)</text><text x="72" y="613.0" text-anchor="end" font-family="Arial, sans-serif" font-size="13" fill="#83888d">8.</text><text x="114" y="594.0" font-family="Arial, sans-serif" font-size="14" fill="#202124">Maestro</text><rect x="114" y="598.0" width="236.0" height="18" fill="#c9332c"/><text x="358.0" y="613.0" font-family="Arial, sans-serif" font-size="13" fill="#202124">13,1%  (151–200 von 1.165)</text><text x="72" y="649.0" text-anchor="end" font-family="Arial, sans-serif" font-size="13" fill="#83888d">9.</text><text x="114" y="630.0" font-family="Arial, sans-serif" font-size="14" fill="#202124">Pizza Zulù UG</text><rect x="114" y="634.0" width="225.3" height="18" fill="#c9332c"/><text x="347.3" y="649.0" font-family="Arial, sans-serif" font-size="13" fill="#202124">12,5%  (6–10 von 56)</text><text x="72" y="685.0" text-anchor="end" font-family="Arial, sans-serif" font-size="13" fill="#83888d">10.</text><text x="114" y="666.0" font-family="Arial, sans-serif" font-size="14" fill="#202124">Cookie Couture Nürnberg</text><rect x="114" y="670.0" width="208.0" height="18" fill="#c9332c"/><text x="330.0" y="685.0" font-family="Arial, sans-serif" font-size="13" fill="#202124">11,5%  (21–50 von 272)</text><text x="72" y="721.0" text-anchor="end" font-family="Arial, sans-serif" font-size="13" fill="#83888d">11.</text><text x="114" y="702.0" font-family="Arial, sans-serif" font-size="14" fill="#202124">Konditorei Cafe Beer</text><rect x="114" y="706.0" width="207.5" height="18" fill="#c9332c"/><text x="329.5" y="721.0" font-family="Arial, sans-serif" font-size="13" fill="#202124">11,5%  (201–250 von 1.733)</text><text x="72" y="757.0" text-anchor="end" font-family="Arial, sans-serif" font-size="13" fill="#83888d">12.</text><text x="114" y="738.0" font-family="Arial, sans-serif" font-size="14" fill="#202124">Wild Child coffee &amp; eatery</text><rect x="114" y="742.0" width="205.5" height="18" fill="#c9332c"/><text x="327.5" y="757.0" font-family="Arial, sans-serif" font-size="13" fill="#202124">11,4%  (21–50 von 276)</text><text x="72" y="793.0" text-anchor="end" font-family="Arial, sans-serif" font-size="13" fill="#83888d">13.</text><text x="114" y="774.0" font-family="Arial, sans-serif" font-size="14" fill="#202124">Smashpoint</text><rect x="114" y="778.0" width="200.3" height="18" fill="#c9332c"/><text x="322.3" y="793.0" font-family="Arial, sans-serif" font-size="13" fill="#202124">11,1%  (21–50 von 284)</text><text x="72" y="829.0" text-anchor="end" font-family="Arial, sans-serif" font-size="13" fill="#83888d">14.</text><text x="114" y="810.0" font-family="Arial, sans-serif" font-size="14" fill="#202124">Espressolab</text><rect x="114" y="814.0" width="172.2" height="18" fill="#c9332c"/><text x="294.2" y="829.0" font-family="Arial, sans-serif" font-size="13" fill="#202124">9,6%  (51–100 von 715)</text><text x="72" y="865.0" text-anchor="end" font-family="Arial, sans-serif" font-size="13" fill="#83888d">15.</text><text x="114" y="846.0" font-family="Arial, sans-serif" font-size="14" fill="#202124">Balū • Breakfast &amp; Brunch</text><rect x="114" y="850.0" width="164.8" height="18" fill="#c9332c"/><text x="286.8" y="865.0" font-family="Arial, sans-serif" font-size="13" fill="#202124">9,1%  (11–20 von 154)</text><text x="72" y="901.0" text-anchor="end" font-family="Arial, sans-serif" font-size="13" fill="#83888d">16.</text><text x="114" y="882.0" font-family="Arial, sans-serif" font-size="14" fill="#202124">Lamore da Massimo - italienisches Restaurant…</text><rect x="114" y="886.0" width="125.3" height="18" fill="#c9332c"/><text x="247.3" y="901.0" font-family="Arial, sans-serif" font-size="13" fill="#202124">7,0%  (51–100 von 1.011)</text><text x="72" y="937.0" text-anchor="end" font-family="Arial, sans-serif" font-size="13" fill="#83888d">17.</text><text x="114" y="918.0" font-family="Arial, sans-serif" font-size="14" fill="#202124">Tucher Mautkeller Nürnberg</text><rect x="114" y="922.0" width="121.7" height="18" fill="#c9332c"/><text x="243.7" y="937.0" font-family="Arial, sans-serif" font-size="13" fill="#202124">6,8%  (101–150 von 1.733)</text><text x="72" y="973.0" text-anchor="end" font-family="Arial, sans-serif" font-size="13" fill="#83888d">18.</text><text x="114" y="954.0" font-family="Arial, sans-serif" font-size="14" fill="#202124">CôCô taste of Asia Sushi Nürnberg</text><rect x="114" y="958.0" width="119.5" height="18" fill="#c9332c"/><text x="241.5" y="973.0" font-family="Arial, sans-serif" font-size="13" fill="#202124">6,6%  (51–100 von 1.063)</text><text x="72" y="1009.0" text-anchor="end" font-family="Arial, sans-serif" font-size="13" fill="#83888d">19.</text><text x="114" y="990.0" font-family="Arial, sans-serif" font-size="14" fill="#202124">Kilians Irish Pub</text><rect x="114" y="994.0" width="111.2" height="18" fill="#c9332c"/><text x="233.2" y="1009.0" font-family="Arial, sans-serif" font-size="13" fill="#202124">6,2%  (21–50 von 540)</text><text x="72" y="1045.0" text-anchor="end" font-family="Arial, sans-serif" font-size="13" fill="#83888d">20.</text><text x="114" y="1026.0" font-family="Arial, sans-serif" font-size="14" fill="#202124">Mam-Mam Burger</text><rect x="114" y="1030.0" width="93.4" height="18" fill="#c9332c"/><text x="215.4" y="1045.0" font-family="Arial, sans-serif" font-size="13" fill="#202124">5,2%  (51–100 von 1.382)</text><text x="72" y="1081.0" text-anchor="end" font-family="Arial, sans-serif" font-size="13" fill="#83888d">21.</text><text x="114" y="1062.0" font-family="Arial, sans-serif" font-size="14" fill="#202124">KOKORO NÜRNBERG (AM NEUEN MUSEUM)</text><rect x="114" y="1066.0" width="92.7" height="18" fill="#c9332c"/><text x="214.7" y="1081.0" font-family="Arial, sans-serif" font-size="13" fill="#202124">5,1%  (101–150 von 2.315)</text><text x="72" y="1117.0" text-anchor="end" font-family="Arial, sans-serif" font-size="13" fill="#83888d">22.</text><text x="114" y="1098.0" font-family="Arial, sans-serif" font-size="14" fill="#202124">Bruderherz Nürnberg - Brauwerkstatt, Gutmann…</text><rect x="114" y="1102.0" width="78.6" height="18" fill="#c9332c"/><text x="200.6" y="1117.0" font-family="Arial, sans-serif" font-size="13" fill="#202124">4,4%  (11–20 von 340)</text><text x="72" y="1153.0" text-anchor="end" font-family="Arial, sans-serif" font-size="13" fill="#83888d">23.</text><text x="114" y="1134.0" font-family="Arial, sans-serif" font-size="14" fill="#202124">MULLIGAN&#39;S - Irish Pub, Bar und Grill</text><rect x="114" y="1138.0" width="77.7" height="18" fill="#c9332c"/><text x="199.7" y="1153.0" font-family="Arial, sans-serif" font-size="13" fill="#202124">4,3%  (21–50 von 789)</text><text x="72" y="1189.0" text-anchor="end" font-family="Arial, sans-serif" font-size="13" fill="#83888d">24.</text><text x="114" y="1170.0" font-family="Arial, sans-serif" font-size="14" fill="#202124">Skybar - Rooftop Bar &amp; Events</text><rect x="114" y="1174.0" width="77.0" height="18" fill="#c9332c"/><text x="199.0" y="1189.0" font-family="Arial, sans-serif" font-size="13" fill="#202124">4,3%  (21–50 von 795)</text><text x="72" y="1225.0" text-anchor="end" font-family="Arial, sans-serif" font-size="13" fill="#83888d">25.</text><text x="114" y="1206.0" font-family="Arial, sans-serif" font-size="14" fill="#202124">60&#39;s SMASH BURGER</text><rect x="114" y="1210.0" width="58.2" height="18" fill="#c9332c"/><text x="180.2" y="1225.0" font-family="Arial, sans-serif" font-size="13" fill="#202124">3,2%  (51–100 von 2.262)</text><text x="72" y="1261.0" text-anchor="end" font-family="Arial, sans-serif" font-size="13" fill="#83888d">26.</text><text x="114" y="1242.0" font-family="Arial, sans-serif" font-size="14" fill="#202124">2BITES Nürnberg</text><rect x="114" y="1246.0" width="47.2" height="18" fill="#c9332c"/><text x="169.2" y="1261.0" font-family="Arial, sans-serif" font-size="13" fill="#202124">2,6%  (2–5 von 130)</text><text x="72" y="1297.0" text-anchor="end" font-family="Arial, sans-serif" font-size="13" fill="#83888d">27.</text><text x="114" y="1278.0" font-family="Arial, sans-serif" font-size="14" fill="#202124">Kokono Nürnberg</text><rect x="114" y="1282.0" width="44.2" height="18" fill="#c9332c"/><text x="166.2" y="1297.0" font-family="Arial, sans-serif" font-size="13" fill="#202124">2,5%  (51–100 von 3.009)</text><text x="72" y="1333.0" text-anchor="end" font-family="Arial, sans-serif" font-size="13" fill="#83888d">28.</text><text x="114" y="1314.0" font-family="Arial, sans-serif" font-size="14" fill="#202124">Eiscafé Sirena</text><rect x="114" y="1318.0" width="43.8" height="18" fill="#c9332c"/><text x="165.8" y="1333.0" font-family="Arial, sans-serif" font-size="13" fill="#202124">2,4%  (6–10 von 321)</text><text x="72" y="1369.0" text-anchor="end" font-family="Arial, sans-serif" font-size="13" fill="#83888d">29.</text><text x="114" y="1350.0" font-family="Arial, sans-serif" font-size="14" fill="#202124">Pizz &amp; Via</text><rect x="114" y="1354.0" width="36.4" height="18" fill="#c9332c"/><text x="158.4" y="1369.0" font-family="Arial, sans-serif" font-size="13" fill="#202124">2,0%  (21–50 von 1.718)</text><text x="72" y="1405.0" text-anchor="end" font-family="Arial, sans-serif" font-size="13" fill="#83888d">30.</text><text x="114" y="1386.0" font-family="Arial, sans-serif" font-size="14" fill="#202124">Falco Manufaktur</text><rect x="114" y="1390.0" width="31.4" height="18" fill="#c9332c"/><text x="153.4" y="1405.0" font-family="Arial, sans-serif" font-size="13" fill="#202124">1,7%  (11–20 von 877)</text><text x="315" y="1444.0" text-anchor="middle" font-family="Arial, sans-serif" font-size="13" fill="#6f7377">Lösch-Quote (%) · Top 30</text></g><g><text x="665" y="230" font-family="Arial, sans-serif" font-size="27" font-weight="800" fill="#202124">2. Schlechtestes „echtes“ Rating</text><text x="665" y="260" font-family="Arial, sans-serif" font-size="16" fill="#6f7377">Modell: gelöschte Rezensionen waren 1★</text><rect x="665" y="322" width="470" height="1104" fill="#ffffff" opacity="0.96" filter="url(#softShadow)"/><line x1="699.0" y1="322" x2="699.0" y2="1406.0" stroke="#dde3e8" stroke-width="1"/><line x1="799.5" y1="322" x2="799.5" y2="1406.0" stroke="#dde3e8" stroke-width="1"/><line x1="900.0" y1="322" x2="900.0" y2="1406.0" stroke="#dde3e8" stroke-width="1"/><line x1="1000.5" y1="322" x2="1000.5" y2="1406.0" stroke="#dde3e8" stroke-width="1"/><line x1="1101.0" y1="322" x2="1101.0" y2="1406.0" stroke="#dde3e8" stroke-width="1"/><text x="657" y="361.0" text-anchor="end" font-family="Arial, sans-serif" font-size="13" fill="#83888d">1.</text><text x="699" y="342.0" font-family="Arial, sans-serif" font-size="14" fill="#202124">Kochlöffel</text><rect x="699" y="346.0" width="402.0" height="18" fill="#ef7d16"/><text x="1109.0" y="361.0" font-family="Arial, sans-serif" font-size="13" fill="#202124">3,34★  (vorher 4,0★)</text><text x="657" y="397.0" text-anchor="end" font-family="Arial, sans-serif" font-size="13" fill="#83888d">2.</text><text x="699" y="378.0" font-family="Arial, sans-serif" font-size="14" fill="#202124">Pizz &amp; Via</text><rect x="699" y="382.0" width="328.5" height="18" fill="#ef7d16"/><text x="1035.5" y="397.0" font-family="Arial, sans-serif" font-size="13" fill="#202124">3,65★  (vorher 3,7★)</text><text x="657" y="433.0" text-anchor="end" font-family="Arial, sans-serif" font-size="13" fill="#83888d">3.</text><text x="699" y="414.0" font-family="Arial, sans-serif" font-size="14" fill="#202124">Schnitzery Nürnberg</text><rect x="699" y="418.0" width="307.2" height="18" fill="#ef7d16"/><text x="1014.2" y="433.0" font-family="Arial, sans-serif" font-size="13" fill="#202124">3,73★  (vorher 4,5★)</text><text x="657" y="469.0" text-anchor="end" font-family="Arial, sans-serif" font-size="13" fill="#83888d">4.</text><text x="699" y="450.0" font-family="Arial, sans-serif" font-size="14" fill="#202124">Cookie Couture Nürnberg</text><rect x="699" y="454.0" width="283.4" height="18" fill="#ef7d16"/><text x="990.4" y="469.0" font-family="Arial, sans-serif" font-size="13" fill="#202124">3,83★  (vorher 4,2★)</text><text x="657" y="505.0" text-anchor="end" font-family="Arial, sans-serif" font-size="13" fill="#83888d">5.</text><text x="699" y="486.0" font-family="Arial, sans-serif" font-size="14" fill="#202124">H&amp;B Döner</text><rect x="699" y="490.0" width="272.8" height="18" fill="#ef7d16"/><text x="979.8" y="505.0" font-family="Arial, sans-serif" font-size="13" fill="#202124">3,88★  (vorher 4,7★)</text><text x="657" y="541.0" text-anchor="end" font-family="Arial, sans-serif" font-size="13" fill="#83888d">6.</text><text x="699" y="522.0" font-family="Arial, sans-serif" font-size="14" fill="#202124">Smack Burger</text><rect x="699" y="526.0" width="267.4" height="18" fill="#ef7d16"/><text x="974.4" y="541.0" font-family="Arial, sans-serif" font-size="13" fill="#202124">3,90★  (vorher 4,6★)</text><text x="657" y="577.0" text-anchor="end" font-family="Arial, sans-serif" font-size="13" fill="#83888d">7.</text><text x="699" y="558.0" font-family="Arial, sans-serif" font-size="14" fill="#202124">Urfa Dürüm Döner Nürnberg</text><rect x="699" y="562.0" width="260.6" height="18" fill="#ef7d16"/><text x="967.6" y="577.0" font-family="Arial, sans-serif" font-size="13" fill="#202124">3,92★  (vorher 4,6★)</text><text x="657" y="613.0" text-anchor="end" font-family="Arial, sans-serif" font-size="13" fill="#83888d">8.</text><text x="699" y="594.0" font-family="Arial, sans-serif" font-size="14" fill="#202124">Maestro</text><rect x="699" y="598.0" width="253.4" height="18" fill="#ef7d16"/><text x="960.4" y="613.0" font-family="Arial, sans-serif" font-size="13" fill="#202124">3,96★  (vorher 4,4★)</text><text x="657" y="649.0" text-anchor="end" font-family="Arial, sans-serif" font-size="13" fill="#83888d">9.</text><text x="699" y="630.0" font-family="Arial, sans-serif" font-size="14" fill="#202124">Bat Dat - Asia Snacks</text><rect x="699" y="634.0" width="222.1" height="18" fill="#ef7d16"/><text x="929.1" y="649.0" font-family="Arial, sans-serif" font-size="13" fill="#202124">4,08★  (vorher 4,7★)</text><text x="657" y="685.0" text-anchor="end" font-family="Arial, sans-serif" font-size="13" fill="#83888d">10.</text><text x="699" y="666.0" font-family="Arial, sans-serif" font-size="14" fill="#202124">Wild Child coffee &amp; eatery</text><rect x="699" y="670.0" width="218.0" height="18" fill="#ef7d16"/><text x="925.0" y="685.0" font-family="Arial, sans-serif" font-size="13" fill="#202124">4,10★  (vorher 4,5★)</text><text x="657" y="721.0" text-anchor="end" font-family="Arial, sans-serif" font-size="13" fill="#83888d">11.</text><text x="699" y="702.0" font-family="Arial, sans-serif" font-size="14" fill="#202124">Pizza Zulù UG</text><rect x="699" y="706.0" width="206.1" height="18" fill="#ef7d16"/><text x="913.1" y="721.0" font-family="Arial, sans-serif" font-size="13" fill="#202124">4,15★  (vorher 4,6★)</text><text x="657" y="757.0" text-anchor="end" font-family="Arial, sans-serif" font-size="13" fill="#83888d">12.</text><text x="699" y="738.0" font-family="Arial, sans-serif" font-size="14" fill="#202124">Espressolab</text><rect x="699" y="742.0" width="202.2" height="18" fill="#ef7d16"/><text x="909.2" y="757.0" font-family="Arial, sans-serif" font-size="13" fill="#202124">4,17★  (vorher 4,5★)</text><text x="657" y="793.0" text-anchor="end" font-family="Arial, sans-serif" font-size="13" fill="#83888d">13.</text><text x="699" y="774.0" font-family="Arial, sans-serif" font-size="14" fill="#202124">Konditorei Cafe Beer</text><rect x="699" y="778.0" width="197.6" height="18" fill="#ef7d16"/><text x="904.6" y="793.0" font-family="Arial, sans-serif" font-size="13" fill="#202124">4,18★  (vorher 4,6★)</text><text x="657" y="829.0" text-anchor="end" font-family="Arial, sans-serif" font-size="13" fill="#83888d">14.</text><text x="699" y="810.0" font-family="Arial, sans-serif" font-size="14" fill="#202124">Tucher Mautkeller Nürnberg</text><rect x="699" y="814.0" width="178.5" height="18" fill="#ef7d16"/><text x="885.5" y="829.0" font-family="Arial, sans-serif" font-size="13" fill="#202124">4,26★  (vorher 4,5★)</text><text x="657" y="865.0" text-anchor="end" font-family="Arial, sans-serif" font-size="13" fill="#83888d">15.</text><text x="699" y="846.0" font-family="Arial, sans-serif" font-size="14" fill="#202124">Steak Döner</text><rect x="699" y="850.0" width="176.5" height="18" fill="#ef7d16"/><text x="883.5" y="865.0" font-family="Arial, sans-serif" font-size="13" fill="#202124">4,27★  (vorher 4,9★)</text><text x="657" y="901.0" text-anchor="end" font-family="Arial, sans-serif" font-size="13" fill="#83888d">16.</text><text x="699" y="882.0" font-family="Arial, sans-serif" font-size="14" fill="#202124">Das Moor - Fränkische Spezialitäten</text><rect x="699" y="886.0" width="158.6" height="18" fill="#ef7d16"/><text x="865.6" y="901.0" font-family="Arial, sans-serif" font-size="13" fill="#202124">4,35★  (vorher 4,4★)</text><text x="657" y="937.0" text-anchor="end" font-family="Arial, sans-serif" font-size="13" fill="#83888d">17.</text><text x="699" y="918.0" font-family="Arial, sans-serif" font-size="14" fill="#202124">Smashpoint</text><rect x="699" y="922.0" width="150.8" height="18" fill="#ef7d16"/><text x="857.8" y="937.0" font-family="Arial, sans-serif" font-size="13" fill="#202124">4,38★  (vorher 4,8★)</text><text x="657" y="973.0" text-anchor="end" font-family="Arial, sans-serif" font-size="13" fill="#83888d">18.</text><text x="699" y="954.0" font-family="Arial, sans-serif" font-size="14" fill="#202124">KOKORO NÜRNBERG (AM NEUEN MUSEUM)</text><rect x="699" y="958.0" width="141.8" height="18" fill="#ef7d16"/><text x="848.8" y="973.0" font-family="Arial, sans-serif" font-size="13" fill="#202124">4,42★  (vorher 4,6★)</text><text x="657" y="1009.0" text-anchor="end" font-family="Arial, sans-serif" font-size="13" fill="#83888d">19.</text><text x="699" y="990.0" font-family="Arial, sans-serif" font-size="14" fill="#202124">Skybar - Rooftop Bar &amp; Events</text><rect x="699" y="994.0" width="134.3" height="18" fill="#ef7d16"/><text x="841.3" y="1009.0" font-family="Arial, sans-serif" font-size="13" fill="#202124">4,45★  (vorher 4,6★)</text><text x="657" y="1045.0" text-anchor="end" font-family="Arial, sans-serif" font-size="13" fill="#83888d">20.</text><text x="699" y="1026.0" font-family="Arial, sans-serif" font-size="14" fill="#202124">Balū • Breakfast &amp; Brunch</text><rect x="699" y="1030.0" width="132.6" height="18" fill="#ef7d16"/><text x="839.6" y="1045.0" font-family="Arial, sans-serif" font-size="13" fill="#202124">4,45★  (vorher 4,8★)</text><text x="657" y="1081.0" text-anchor="end" font-family="Arial, sans-serif" font-size="13" fill="#83888d">21.</text><text x="699" y="1062.0" font-family="Arial, sans-serif" font-size="14" fill="#202124">Kilians Irish Pub</text><rect x="699" y="1066.0" width="128.0" height="18" fill="#ef7d16"/><text x="835.0" y="1081.0" font-family="Arial, sans-serif" font-size="13" fill="#202124">4,47★  (vorher 4,7★)</text><text x="657" y="1117.0" text-anchor="end" font-family="Arial, sans-serif" font-size="13" fill="#83888d">22.</text><text x="699" y="1098.0" font-family="Arial, sans-serif" font-size="14" fill="#202124">Mam-Mam Burger</text><rect x="699" y="1102.0" width="119.3" height="18" fill="#ef7d16"/><text x="826.3" y="1117.0" font-family="Arial, sans-serif" font-size="13" fill="#202124">4,51★  (vorher 4,7★)</text><text x="657" y="1153.0" text-anchor="end" font-family="Arial, sans-serif" font-size="13" fill="#83888d">23.</text><text x="699" y="1134.0" font-family="Arial, sans-serif" font-size="14" fill="#202124">Lamore da Massimo - italienisches Restaurant…</text><rect x="699" y="1138.0" width="112.5" height="18" fill="#ef7d16"/><text x="819.5" y="1153.0" font-family="Arial, sans-serif" font-size="13" fill="#202124">4,54★  (vorher 4,8★)</text><text x="657" y="1189.0" text-anchor="end" font-family="Arial, sans-serif" font-size="13" fill="#83888d">24.</text><text x="699" y="1170.0" font-family="Arial, sans-serif" font-size="14" fill="#202124">Bruderherz Nürnberg - Brauwerkstatt, Gutmann…</text><rect x="699" y="1174.0" width="111.8" height="18" fill="#ef7d16"/><text x="818.8" y="1189.0" font-family="Arial, sans-serif" font-size="13" fill="#202124">4,54★  (vorher 4,7★)</text><text x="657" y="1225.0" text-anchor="end" font-family="Arial, sans-serif" font-size="13" fill="#83888d">25.</text><text x="699" y="1206.0" font-family="Arial, sans-serif" font-size="14" fill="#202124">WurstDurst</text><rect x="699" y="1210.0" width="110.6" height="18" fill="#ef7d16"/><text x="817.6" y="1225.0" font-family="Arial, sans-serif" font-size="13" fill="#202124">4,54★  (vorher 4,6★)</text><text x="657" y="1261.0" text-anchor="end" font-family="Arial, sans-serif" font-size="13" fill="#83888d">26.</text><text x="699" y="1242.0" font-family="Arial, sans-serif" font-size="14" fill="#202124">CôCô taste of Asia Sushi Nürnberg</text><rect x="699" y="1246.0" width="109.6" height="18" fill="#ef7d16"/><text x="816.6" y="1261.0" font-family="Arial, sans-serif" font-size="13" fill="#202124">4,55★  (vorher 4,8★)</text><text x="657" y="1297.0" text-anchor="end" font-family="Arial, sans-serif" font-size="13" fill="#83888d">27.</text><text x="699" y="1278.0" font-family="Arial, sans-serif" font-size="14" fill="#202124">Chiba 小食光</text><rect x="699" y="1282.0" width="106.9" height="18" fill="#ef7d16"/><text x="813.9" y="1297.0" font-family="Arial, sans-serif" font-size="13" fill="#202124">4,56★  (vorher 4,6★)</text><text x="657" y="1333.0" text-anchor="end" font-family="Arial, sans-serif" font-size="13" fill="#83888d">28.</text><text x="699" y="1314.0" font-family="Arial, sans-serif" font-size="14" fill="#202124">Hotel und Restaurant im Pillhofer</text><rect x="699" y="1318.0" width="106.7" height="18" fill="#ef7d16"/><text x="813.7" y="1333.0" font-family="Arial, sans-serif" font-size="13" fill="#202124">4,56★  (vorher 4,6★)</text><text x="657" y="1369.0" text-anchor="end" font-family="Arial, sans-serif" font-size="13" fill="#83888d">29.</text><text x="699" y="1350.0" font-family="Arial, sans-serif" font-size="14" fill="#202124">O.sha Thai Restaurant Nürnberg</text><rect x="699" y="1354.0" width="102.1" height="18" fill="#ef7d16"/><text x="809.1" y="1369.0" font-family="Arial, sans-serif" font-size="13" fill="#202124">4,58★  (vorher 4,6★)</text><text x="657" y="1405.0" text-anchor="end" font-family="Arial, sans-serif" font-size="13" fill="#83888d">30.</text><text x="699" y="1386.0" font-family="Arial, sans-serif" font-size="14" fill="#202124">60&#39;s SMASH BURGER</text><rect x="699" y="1390.0" width="101.8" height="18" fill="#ef7d16"/><text x="808.8" y="1405.0" font-family="Arial, sans-serif" font-size="13" fill="#202124">4,58★  (vorher 4,7★)</text><text x="900" y="1444.0" text-anchor="middle" font-family="Arial, sans-serif" font-size="13" fill="#6f7377">Punkte unter 5★</text></g><g><text x="1250" y="230" font-family="Arial, sans-serif" font-size="27" font-weight="800" fill="#202124">3. Beste Orte ohne Löschbanner</text><text x="1250" y="260" font-family="Arial, sans-serif" font-size="16" fill="#6f7377">kein sichtbarer Diffamierungs-Löschbanner — ab 100 Rezensionen</text><rect x="1250" y="322" width="470" height="1104" fill="#ffffff" opacity="0.96" filter="url(#softShadow)"/><line x1="1284.0" y1="322" x2="1284.0" y2="1406.0" stroke="#dde3e8" stroke-width="1"/><line x1="1384.5" y1="322" x2="1384.5" y2="1406.0" stroke="#dde3e8" stroke-width="1"/><line x1="1485.0" y1="322" x2="1485.0" y2="1406.0" stroke="#dde3e8" stroke-width="1"/><line x1="1585.5" y1="322" x2="1585.5" y2="1406.0" stroke="#dde3e8" stroke-width="1"/><line x1="1686.0" y1="322" x2="1686.0" y2="1406.0" stroke="#dde3e8" stroke-width="1"/><text x="1242" y="361.0" text-anchor="end" font-family="Arial, sans-serif" font-size="13" fill="#83888d">1.</text><text x="1284" y="342.0" font-family="Arial, sans-serif" font-size="14" fill="#202124">The Professor Döner</text><rect x="1284" y="346.0" width="394.0" height="18" fill="#2e7d32"/><text x="1686.0" y="361.0" font-family="Arial, sans-serif" font-size="13" fill="#202124">4,9★  (3.417 Rezensionen)</text><text x="1242" y="397.0" text-anchor="end" font-family="Arial, sans-serif" font-size="13" fill="#83888d">2.</text><text x="1284" y="378.0" font-family="Arial, sans-serif" font-size="14" fill="#202124">Indo Chaska Indisches Restaurant</text><rect x="1284" y="382.0" width="394.0" height="18" fill="#2e7d32"/><text x="1686.0" y="397.0" font-family="Arial, sans-serif" font-size="13" fill="#202124">4,9★  (927 Rezensionen)</text><text x="1242" y="433.0" text-anchor="end" font-family="Arial, sans-serif" font-size="13" fill="#83888d">3.</text><text x="1284" y="414.0" font-family="Arial, sans-serif" font-size="14" fill="#202124">Siam&#39;s Harissa صيام هريسة</text><rect x="1284" y="418.0" width="394.0" height="18" fill="#2e7d32"/><text x="1686.0" y="433.0" font-family="Arial, sans-serif" font-size="13" fill="#202124">4,9★  (228 Rezensionen)</text><text x="1242" y="469.0" text-anchor="end" font-family="Arial, sans-serif" font-size="13" fill="#83888d">4.</text><text x="1284" y="450.0" font-family="Arial, sans-serif" font-size="14" fill="#202124">FriedChicks</text><rect x="1284" y="454.0" width="394.0" height="18" fill="#2e7d32"/><text x="1686.0" y="469.0" font-family="Arial, sans-serif" font-size="13" fill="#202124">4,9★  (217 Rezensionen)</text><text x="1242" y="505.0" text-anchor="end" font-family="Arial, sans-serif" font-size="13" fill="#83888d">5.</text><text x="1284" y="486.0" font-family="Arial, sans-serif" font-size="14" fill="#202124">Zum Flößla</text><rect x="1284" y="490.0" width="385.9" height="18" fill="#2e7d32"/><text x="1677.9" y="505.0" font-family="Arial, sans-serif" font-size="13" fill="#202124">4,8★  (1.233 Rezensionen)</text><text x="1242" y="541.0" text-anchor="end" font-family="Arial, sans-serif" font-size="13" fill="#83888d">6.</text><text x="1284" y="522.0" font-family="Arial, sans-serif" font-size="14" fill="#202124">Takumi Nürnberg Sapporo Ramen</text><rect x="1284" y="526.0" width="385.9" height="18" fill="#2e7d32"/><text x="1677.9" y="541.0" font-family="Arial, sans-serif" font-size="13" fill="#202124">4,8★  (1.113 Rezensionen)</text><text x="1242" y="577.0" text-anchor="end" font-family="Arial, sans-serif" font-size="13" fill="#83888d">7.</text><text x="1284" y="558.0" font-family="Arial, sans-serif" font-size="14" fill="#202124">Coffee Bayt</text><rect x="1284" y="562.0" width="385.9" height="18" fill="#2e7d32"/><text x="1677.9" y="577.0" font-family="Arial, sans-serif" font-size="13" fill="#202124">4,8★  (664 Rezensionen)</text><text x="1242" y="613.0" text-anchor="end" font-family="Arial, sans-serif" font-size="13" fill="#83888d">8.</text><text x="1284" y="594.0" font-family="Arial, sans-serif" font-size="14" fill="#202124">sip&amp;Co.</text><rect x="1284" y="598.0" width="385.9" height="18" fill="#2e7d32"/><text x="1677.9" y="613.0" font-family="Arial, sans-serif" font-size="13" fill="#202124">4,8★  (108 Rezensionen)</text><text x="1242" y="649.0" text-anchor="end" font-family="Arial, sans-serif" font-size="13" fill="#83888d">9.</text><text x="1284" y="630.0" font-family="Arial, sans-serif" font-size="14" fill="#202124">Essentials Café</text><rect x="1284" y="634.0" width="385.9" height="18" fill="#2e7d32"/><text x="1677.9" y="649.0" font-family="Arial, sans-serif" font-size="13" fill="#202124">4,8★  (103 Rezensionen)</text><text x="1242" y="685.0" text-anchor="end" font-family="Arial, sans-serif" font-size="13" fill="#83888d">10.</text><text x="1284" y="666.0" font-family="Arial, sans-serif" font-size="14" fill="#202124">PETER PANE Burgergrill &amp; Bar</text><rect x="1284" y="670.0" width="377.9" height="18" fill="#2e7d32"/><text x="1669.9" y="685.0" font-family="Arial, sans-serif" font-size="13" fill="#202124">4,7★  (11.337 Rezensionen)</text><text x="1242" y="721.0" text-anchor="end" font-family="Arial, sans-serif" font-size="13" fill="#83888d">11.</text><text x="1284" y="702.0" font-family="Arial, sans-serif" font-size="14" fill="#202124">Tucher-Bräu am Opernhaus Nürnberg</text><rect x="1284" y="706.0" width="377.9" height="18" fill="#2e7d32"/><text x="1669.9" y="721.0" font-family="Arial, sans-serif" font-size="13" fill="#202124">4,7★  (4.934 Rezensionen)</text><text x="1242" y="757.0" text-anchor="end" font-family="Arial, sans-serif" font-size="13" fill="#83888d">12.</text><text x="1284" y="738.0" font-family="Arial, sans-serif" font-size="14" fill="#202124">Arjon Döner</text><rect x="1284" y="742.0" width="377.9" height="18" fill="#2e7d32"/><text x="1669.9" y="757.0" font-family="Arial, sans-serif" font-size="13" fill="#202124">4,7★  (1.558 Rezensionen)</text><text x="1242" y="793.0" text-anchor="end" font-family="Arial, sans-serif" font-size="13" fill="#83888d">13.</text><text x="1284" y="774.0" font-family="Arial, sans-serif" font-size="14" fill="#202124">Guerilla Gröstl Burger Foodhouse</text><rect x="1284" y="778.0" width="377.9" height="18" fill="#2e7d32"/><text x="1669.9" y="793.0" font-family="Arial, sans-serif" font-size="13" fill="#202124">4,7★  (1.464 Rezensionen)</text><text x="1242" y="829.0" text-anchor="end" font-family="Arial, sans-serif" font-size="13" fill="#83888d">14.</text><text x="1284" y="810.0" font-family="Arial, sans-serif" font-size="14" fill="#202124">WonderWaffel Nürnberg</text><rect x="1284" y="814.0" width="377.9" height="18" fill="#2e7d32"/><text x="1669.9" y="829.0" font-family="Arial, sans-serif" font-size="13" fill="#202124">4,7★  (1.303 Rezensionen)</text><text x="1242" y="865.0" text-anchor="end" font-family="Arial, sans-serif" font-size="13" fill="#83888d">15.</text><text x="1284" y="846.0" font-family="Arial, sans-serif" font-size="14" fill="#202124">Sao Mai Nürnberg</text><rect x="1284" y="850.0" width="377.9" height="18" fill="#2e7d32"/><text x="1669.9" y="865.0" font-family="Arial, sans-serif" font-size="13" fill="#202124">4,7★  (1.070 Rezensionen)</text><text x="1242" y="901.0" text-anchor="end" font-family="Arial, sans-serif" font-size="13" fill="#83888d">16.</text><text x="1284" y="882.0" font-family="Arial, sans-serif" font-size="14" fill="#202124">POCKETS Café</text><rect x="1284" y="886.0" width="377.9" height="18" fill="#2e7d32"/><text x="1669.9" y="901.0" font-family="Arial, sans-serif" font-size="13" fill="#202124">4,7★  (974 Rezensionen)</text><text x="1242" y="937.0" text-anchor="end" font-family="Arial, sans-serif" font-size="13" fill="#83888d">17.</text><text x="1284" y="918.0" font-family="Arial, sans-serif" font-size="14" fill="#202124">Ishihara</text><rect x="1284" y="922.0" width="377.9" height="18" fill="#2e7d32"/><text x="1669.9" y="937.0" font-family="Arial, sans-serif" font-size="13" fill="#202124">4,7★  (947 Rezensionen)</text><text x="1242" y="973.0" text-anchor="end" font-family="Arial, sans-serif" font-size="13" fill="#83888d">18.</text><text x="1284" y="954.0" font-family="Arial, sans-serif" font-size="14" fill="#202124">Machhörndl Kaffee: Espresso-Brew Bar</text><rect x="1284" y="958.0" width="377.9" height="18" fill="#2e7d32"/><text x="1669.9" y="973.0" font-family="Arial, sans-serif" font-size="13" fill="#202124">4,7★  (886 Rezensionen)</text><text x="1242" y="1009.0" text-anchor="end" font-family="Arial, sans-serif" font-size="13" fill="#83888d">19.</text><text x="1284" y="990.0" font-family="Arial, sans-serif" font-size="14" fill="#202124">Red Curry House</text><rect x="1284" y="994.0" width="377.9" height="18" fill="#2e7d32"/><text x="1669.9" y="1009.0" font-family="Arial, sans-serif" font-size="13" fill="#202124">4,7★  (872 Rezensionen)</text><text x="1242" y="1045.0" text-anchor="end" font-family="Arial, sans-serif" font-size="13" fill="#83888d">20.</text><text x="1284" y="1026.0" font-family="Arial, sans-serif" font-size="14" fill="#202124">freshmade | orient wraps and bowls</text><rect x="1284" y="1030.0" width="377.9" height="18" fill="#2e7d32"/><text x="1669.9" y="1045.0" font-family="Arial, sans-serif" font-size="13" fill="#202124">4,7★  (736 Rezensionen)</text><text x="1242" y="1081.0" text-anchor="end" font-family="Arial, sans-serif" font-size="13" fill="#83888d">21.</text><text x="1284" y="1062.0" font-family="Arial, sans-serif" font-size="14" fill="#202124">Imperial by Alexander Herrmann &amp; Michi Seitz</text><rect x="1284" y="1066.0" width="377.9" height="18" fill="#2e7d32"/><text x="1669.9" y="1081.0" font-family="Arial, sans-serif" font-size="13" fill="#202124">4,7★  (705 Rezensionen)</text><text x="1242" y="1117.0" text-anchor="end" font-family="Arial, sans-serif" font-size="13" fill="#83888d">22.</text><text x="1284" y="1098.0" font-family="Arial, sans-serif" font-size="14" fill="#202124">Restaurant Estragon</text><rect x="1284" y="1102.0" width="377.9" height="18" fill="#2e7d32"/><text x="1669.9" y="1117.0" font-family="Arial, sans-serif" font-size="13" fill="#202124">4,7★  (643 Rezensionen)</text><text x="1242" y="1153.0" text-anchor="end" font-family="Arial, sans-serif" font-size="13" fill="#83888d">23.</text><text x="1284" y="1134.0" font-family="Arial, sans-serif" font-size="14" fill="#202124">BALKON Nürnberg</text><rect x="1284" y="1138.0" width="377.9" height="18" fill="#2e7d32"/><text x="1669.9" y="1153.0" font-family="Arial, sans-serif" font-size="13" fill="#202124">4,7★  (593 Rezensionen)</text><text x="1242" y="1189.0" text-anchor="end" font-family="Arial, sans-serif" font-size="13" fill="#83888d">24.</text><text x="1284" y="1170.0" font-family="Arial, sans-serif" font-size="14" fill="#202124">KORNS BAR RESTAURANT EVENTS</text><rect x="1284" y="1174.0" width="377.9" height="18" fill="#2e7d32"/><text x="1669.9" y="1189.0" font-family="Arial, sans-serif" font-size="13" fill="#202124">4,7★  (533 Rezensionen)</text><text x="1242" y="1225.0" text-anchor="end" font-family="Arial, sans-serif" font-size="13" fill="#83888d">25.</text><text x="1284" y="1206.0" font-family="Arial, sans-serif" font-size="14" fill="#202124">Herzkaffee Nürnberg</text><rect x="1284" y="1210.0" width="377.9" height="18" fill="#2e7d32"/><text x="1669.9" y="1225.0" font-family="Arial, sans-serif" font-size="13" fill="#202124">4,7★  (472 Rezensionen)</text><text x="1242" y="1261.0" text-anchor="end" font-family="Arial, sans-serif" font-size="13" fill="#83888d">26.</text><text x="1284" y="1242.0" font-family="Arial, sans-serif" font-size="14" fill="#202124">Suppdiwupp</text><rect x="1284" y="1246.0" width="377.9" height="18" fill="#2e7d32"/><text x="1669.9" y="1261.0" font-family="Arial, sans-serif" font-size="13" fill="#202124">4,7★  (438 Rezensionen)</text><text x="1242" y="1297.0" text-anchor="end" font-family="Arial, sans-serif" font-size="13" fill="#83888d">27.</text><text x="1284" y="1278.0" font-family="Arial, sans-serif" font-size="14" fill="#202124">Kaschemme Nürnberg</text><rect x="1284" y="1282.0" width="377.9" height="18" fill="#2e7d32"/><text x="1669.9" y="1297.0" font-family="Arial, sans-serif" font-size="13" fill="#202124">4,7★  (435 Rezensionen)</text><text x="1242" y="1333.0" text-anchor="end" font-family="Arial, sans-serif" font-size="13" fill="#83888d">28.</text><text x="1284" y="1314.0" font-family="Arial, sans-serif" font-size="14" fill="#202124">Egg La</text><rect x="1284" y="1318.0" width="377.9" height="18" fill="#2e7d32"/><text x="1669.9" y="1333.0" font-family="Arial, sans-serif" font-size="13" fill="#202124">4,7★  (371 Rezensionen)</text><text x="1242" y="1369.0" text-anchor="end" font-family="Arial, sans-serif" font-size="13" fill="#83888d">29.</text><text x="1284" y="1350.0" font-family="Arial, sans-serif" font-size="14" fill="#202124">NIKU - Japanese BBQ &amp; Udon Bar</text><rect x="1284" y="1354.0" width="377.9" height="18" fill="#2e7d32"/><text x="1669.9" y="1369.0" font-family="Arial, sans-serif" font-size="13" fill="#202124">4,7★  (304 Rezensionen)</text><text x="1242" y="1405.0" text-anchor="end" font-family="Arial, sans-serif" font-size="13" fill="#83888d">30.</text><text x="1284" y="1386.0" font-family="Arial, sans-serif" font-size="14" fill="#202124">Oi.</text><rect x="1284" y="1390.0" width="377.9" height="18" fill="#2e7d32"/><text x="1669.9" y="1405.0" font-family="Arial, sans-serif" font-size="13" fill="#202124">4,7★  (275 Rezensionen)</text><text x="1485" y="1444.0" text-anchor="middle" font-family="Arial, sans-serif" font-size="13" fill="#6f7377">Rating (★)</text></g><g><text x="120" y="1660" font-family="Arial, sans-serif" font-size="28" font-weight="800" fill="#202124">Verteilung der Lösch-Stufen über alle 197 Orte</text><rect x="120" y="1715" width="1540" height="560" fill="#ffffff" opacity="0.96" filter="url(#softShadow)"/><text x="150" y="1781" font-family="Arial, sans-serif" font-size="18" fill="#202124">Keine Löschung</text><rect x="450" y="1765" width="900" height="24" fill="#edf2f5"/><rect x="450" y="1765" width="900.0" height="24" fill="#2e7d32"/><text x="1380" y="1783" font-family="Arial, sans-serif" font-size="18" fill="#202124">151 (76,6%)</text><text x="150" y="1826" font-family="Arial, sans-serif" font-size="18" fill="#202124">Eine gelöscht</text><rect x="450" y="1810" width="900" height="24" fill="#edf2f5"/><rect x="450" y="1810" width="6.0" height="24" fill="#8bc34a"/><text x="1380" y="1828" font-family="Arial, sans-serif" font-size="18" fill="#202124">1 (0,5%)</text><text x="150" y="1871" font-family="Arial, sans-serif" font-size="18" fill="#202124">2–5 gelöscht</text><rect x="450" y="1855" width="900" height="24" fill="#edf2f5"/><rect x="450" y="1855" width="17.9" height="24" fill="#cddc39"/><text x="1380" y="1873" font-family="Arial, sans-serif" font-size="18" fill="#202124">3 (1,5%)</text><text x="150" y="1916" font-family="Arial, sans-serif" font-size="18" fill="#202124">6–10 gelöscht</text><rect x="450" y="1900" width="900" height="24" fill="#edf2f5"/><rect x="450" y="1900" width="47.7" height="24" fill="#ffca28"/><text x="1380" y="1918" font-family="Arial, sans-serif" font-size="18" fill="#202124">8 (4,1%)</text><text x="150" y="1961" font-family="Arial, sans-serif" font-size="18" fill="#202124">11–20 gelöscht</text><rect x="450" y="1945" width="900" height="24" fill="#edf2f5"/><rect x="450" y="1945" width="47.7" height="24" fill="#ff9f1c"/><text x="1380" y="1963" font-family="Arial, sans-serif" font-size="18" fill="#202124">8 (4,1%)</text><text x="150" y="2006" font-family="Arial, sans-serif" font-size="18" fill="#202124">21–50 gelöscht</text><rect x="450" y="1990" width="900" height="24" fill="#edf2f5"/><rect x="450" y="1990" width="59.6" height="24" fill="#ff6d00"/><text x="1380" y="2008" font-family="Arial, sans-serif" font-size="18" fill="#202124">10 (5,1%)</text><text x="150" y="2051" font-family="Arial, sans-serif" font-size="18" fill="#202124">51–100 gelöscht</text><rect x="450" y="2035" width="900" height="24" fill="#edf2f5"/><rect x="450" y="2035" width="59.6" height="24" fill="#e5391b"/><text x="1380" y="2053" font-family="Arial, sans-serif" font-size="18" fill="#202124">10 (5,1%)</text><text x="150" y="2096" font-family="Arial, sans-serif" font-size="18" fill="#202124">101–200 gelöscht</text><rect x="450" y="2080" width="900" height="24" fill="#edf2f5"/><rect x="450" y="2080" width="17.9" height="24" fill="#c62828"/><text x="1380" y="2098" font-family="Arial, sans-serif" font-size="18" fill="#202124">3 (1,5%)</text><text x="150" y="2141" font-family="Arial, sans-serif" font-size="18" fill="#202124">201–250 gelöscht</text><rect x="450" y="2125" width="900" height="24" fill="#edf2f5"/><rect x="450" y="2125" width="11.9" height="24" fill="#8e1919"/><text x="1380" y="2143" font-family="Arial, sans-serif" font-size="18" fill="#202124">2 (1,0%)</text><text x="150" y="2186" font-family="Arial, sans-serif" font-size="18" fill="#202124">Über 250 gelöscht</text><rect x="450" y="2170" width="900" height="24" fill="#edf2f5"/><rect x="450" y="2170" width="6.0" height="24" fill="#5b0f0f"/><text x="1380" y="2188" font-family="Arial, sans-serif" font-size="18" fill="#202124">1 (0,5%)</text></g><text x="40" y="2460" font-family="Arial, sans-serif" font-size="13" fill="#8a8f94">Quelle: Google Maps, öffentlich sichtbare Banner; Analyse-Snapshot 02.05.2026</text><text x="1760" y="2460" text-anchor="end" font-family="Arial, sans-serif" font-size="13" fill="#8a8f94">generated by Go cmd/charts</text></svg>
